{"glyphs":{"0":{"ha":608,"x_min":8,"x_max":663,"o":"m 602 787 q 648 741 633 773 q 663 646 663 709 q 624 439 663 550 q 517 232 586 329 q 359 72 448 135 q 196 1 260 1 q 103 31 146 1 q 34 116 60 61 q 8 245 8 172 q 65 462 8 349 q 209 667 121 576 q 390 808 296 759 q 553 843 485 858 q 602 787 597 833 m 446 654 l 469 704 q 399 664 429 684 q 329 608 368 644 q 245 518 289 572 q 139 343 175 428 q 103 200 103 259 q 160 115 103 115 q 253 151 193 115 q 382 248 314 186 q 496 381 447 307 q 571 527 545 455 q 597 650 597 599 q 583 700 597 682 q 547 718 569 718 q 504 703 527 718 q 446 654 481 687 z "},"1":{"ha":376,"x_min":45,"x_max":418,"o":"m 136 648 l 136 704 q 186 746 161 726 q 242 790 211 766 q 306 836 273 814 q 380 880 338 857 q 418 777 418 826 q 406 716 418 749 q 375 640 395 683 q 325 533 355 597 q 205 241 245 356 q 165 85 165 126 q 170 58 165 81 q 175 24 175 35 q 164 3 175 4 q 132 11 153 1 q 62 60 80 37 q 45 119 45 83 q 93 323 45 185 q 150 463 117 393 q 222 603 182 532 q 297 733 262 673 q 136 648 220 701 z "},"2":{"ha":608,"x_min":7,"x_max":676,"o":"m 211 596 q 313 587 282 593 q 343 562 343 581 q 338 551 343 554 q 321 546 333 548 q 294 542 310 545 q 218 526 271 538 q 160 514 165 514 q 134 547 134 514 q 146 624 134 577 q 180 711 159 671 q 225 768 201 751 q 312 808 253 788 q 443 842 370 828 q 576 856 516 856 q 622 847 607 856 q 642 824 636 839 q 663 765 648 810 q 676 671 676 724 q 646 559 676 606 q 564 473 616 513 q 379 352 511 434 q 174 220 247 269 q 146 202 167 215 q 109 174 125 189 q 75 138 92 160 q 363 187 166 146 q 467 213 416 199 q 528 227 517 227 q 545 210 545 227 q 537 171 545 194 q 517 125 530 149 q 485 85 503 102 q 139 1 395 1 q 50 22 73 1 q 22 77 37 35 q 7 140 7 120 q 41 227 7 176 q 136 332 76 278 q 269 428 197 386 q 504 564 490 554 q 582 632 553 597 q 610 688 610 667 q 594 717 610 707 q 551 728 579 728 q 445 712 507 728 q 320 666 383 696 q 211 596 256 635 z "},"3":{"ha":708,"x_min":-33,"x_max":758,"o":"m 216 621 q 189 646 197 632 q 180 690 180 659 q 226 769 180 734 q 354 824 271 804 q 539 844 437 844 q 703 804 648 844 q 758 686 758 764 q 738 605 758 640 q 669 539 717 569 q 314 444 616 507 q 469 419 406 436 q 571 366 533 402 q 608 269 608 330 q 550 137 608 203 q 389 29 492 71 q 158 -14 285 -14 q 17 15 67 -14 q -33 86 -33 43 q -17 139 -33 111 q 22 188 -1 168 q 60 208 44 208 q 69 201 69 208 q 62 183 69 197 q 56 168 56 176 q 87 140 56 152 q 168 129 119 129 q 300 144 236 129 q 414 184 363 159 q 494 237 465 209 q 524 288 524 264 q 464 351 524 334 q 282 368 404 368 q 202 361 241 368 q 165 354 164 354 q 155 371 155 354 q 170 439 155 397 q 204 493 184 480 q 299 515 216 501 q 440 542 381 530 q 582 585 500 555 q 659 630 633 604 q 685 677 685 656 q 554 730 685 730 q 430 723 490 730 q 335 704 370 715 q 301 682 301 692 q 308 668 301 673 q 322 660 315 663 q 346 652 330 657 q 354 646 350 650 q 358 636 358 642 q 216 621 358 617 z "},"4":{"ha":593,"x_min":7,"x_max":673,"o":"m 554 236 l 411 205 q 385 89 391 153 q 403 54 403 72 q 354 6 403 39 q 290 -26 306 -26 q 258 22 258 -26 q 279 183 258 105 q 204 178 252 183 q 139 172 157 172 q 74 179 98 172 q 39 204 51 186 q 17 261 27 224 q 7 315 7 298 q 26 370 7 330 q 83 464 45 410 q 171 564 121 517 q 299 666 224 614 q 443 756 374 718 q 567 821 512 795 q 632 846 622 846 q 665 808 665 846 q 652 770 665 802 q 673 733 673 749 q 667 691 673 710 q 651 655 661 672 q 627 618 640 639 q 583 549 597 572 q 544 488 568 527 q 503 422 519 450 q 469 354 487 394 q 587 372 576 372 q 618 349 618 372 q 554 236 618 317 m 338 332 q 450 526 391 445 q 567 673 509 607 q 624 749 624 739 q 620 758 624 755 q 608 761 615 761 q 497 700 595 761 q 322 578 394 635 q 194 456 250 522 q 100 311 137 389 q 338 332 231 319 z "},"5":{"ha":593,"x_min":-57,"x_max":692,"o":"m 338 821 q 517 815 454 815 q 692 819 608 815 q 635 714 662 756 q 597 668 608 673 q 465 663 580 663 q 314 664 359 663 q 192 503 238 600 q 382 546 319 546 q 510 499 464 546 q 555 364 555 452 q 483 164 555 252 q 297 27 410 76 q 66 -21 184 -21 q -29 0 -1 -21 q -57 77 -57 21 q -45 129 -57 109 q -4 168 -33 150 q 142 214 66 214 q 150 208 150 214 q 145 203 150 205 q 139 200 140 200 q 53 150 53 168 q 110 132 53 132 q 284 174 193 132 q 436 273 374 216 q 497 366 497 330 q 472 408 497 393 q 399 424 446 424 q 315 416 353 424 q 230 395 277 408 q 171 382 182 382 q 140 401 149 382 q 124 434 132 418 q 112 467 117 450 q 106 496 106 484 q 338 821 146 642 z "},"6":{"ha":579,"x_min":14,"x_max":653,"o":"m 509 812 l 579 808 q 638 803 623 806 q 653 791 653 800 q 590 749 653 784 q 485 689 527 714 q 368 603 443 663 q 220 458 294 543 q 192 424 205 441 q 169 391 179 406 q 158 374 159 375 q 288 489 231 451 q 408 526 345 526 q 512 487 474 526 q 550 378 550 447 q 496 207 550 300 q 361 48 443 113 q 204 -17 280 -17 q 113 20 157 -17 q 41 114 68 56 q 14 233 14 172 q 73 424 14 316 q 245 636 132 532 q 509 812 357 741 m 176 93 q 278 142 212 93 q 393 261 343 191 q 443 395 443 332 q 400 452 443 452 q 248 364 351 452 q 156 268 185 311 q 127 171 127 225 q 139 111 127 130 q 176 93 150 93 z "},"7":{"ha":607,"x_min":102,"x_max":721,"o":"m 326 93 l 336 81 q 232 11 277 35 q 157 -14 188 -14 q 116 4 130 -14 q 102 52 102 22 q 154 212 102 108 q 316 445 206 316 q 586 696 427 574 q 411 708 499 708 q 293 698 336 708 q 210 669 250 688 q 178 652 195 663 q 158 640 161 640 q 143 647 152 640 q 135 664 135 654 q 164 717 135 678 q 208 782 193 755 q 249 829 228 816 q 346 847 266 838 q 545 856 427 856 q 590 855 564 856 q 648 851 617 854 q 693 848 679 849 q 714 787 707 820 q 721 734 721 755 q 715 706 721 716 q 693 682 709 696 q 626 621 661 654 q 545 539 591 589 q 457 434 499 490 q 372 313 414 379 q 308 193 330 247 q 285 103 285 139 q 297 85 285 85 q 326 93 310 85 z "},"8":{"ha":623,"x_min":69,"x_max":775,"o":"m 422 450 q 471 352 454 393 q 489 275 489 311 q 447 122 489 185 q 344 30 406 60 q 218 0 282 0 q 117 30 164 0 q 69 106 69 60 q 96 186 69 139 q 174 295 122 234 q 301 435 225 357 q 201 647 201 551 q 230 764 201 715 q 315 845 258 813 q 454 892 372 877 q 648 907 536 907 q 747 901 720 907 q 775 872 775 895 q 768 847 775 865 q 746 806 760 829 q 715 761 732 782 q 697 747 707 749 q 663 746 687 744 q 675 713 675 726 q 657 675 675 694 q 585 609 639 656 q 492 522 531 562 q 457 486 477 508 q 422 450 437 465 m 382 509 q 470 586 419 542 q 562 665 521 630 q 618 718 602 701 q 635 739 635 734 q 545 758 635 758 q 373 726 431 758 q 315 637 315 694 q 333 579 315 613 q 382 509 351 545 m 346 374 q 204 209 255 277 q 154 121 154 140 q 231 77 154 77 q 283 89 255 77 q 333 121 311 100 q 370 175 355 142 q 385 245 385 207 q 346 374 385 319 z "},"9":{"ha":636,"x_min":107,"x_max":707,"o":"m 539 496 q 416 401 468 438 q 324 343 365 363 q 250 322 283 322 q 192 356 227 322 q 132 439 157 389 q 107 534 107 488 q 193 709 107 619 q 393 860 279 800 q 571 921 507 921 q 635 899 605 921 q 682 849 665 876 q 699 807 699 822 q 669 754 699 785 q 605 699 640 724 q 561 673 570 673 q 557 679 557 673 q 596 726 557 687 q 618 762 618 748 q 610 771 618 771 q 541 748 596 771 q 421 686 485 725 q 306 596 357 648 q 248 513 267 556 q 228 447 228 469 q 265 415 228 415 q 333 433 287 415 q 429 483 378 452 q 514 549 479 514 q 616 643 587 621 q 668 665 645 665 q 695 657 684 665 q 707 635 707 648 q 665 564 707 630 q 495 287 549 374 q 393 133 440 200 q 303 28 346 66 q 227 -11 260 -11 q 207 16 207 -11 q 234 91 207 37 q 302 143 262 144 q 432 331 383 256 q 539 496 481 405 z "}," ":{"ha":390,"x_min":0,"x_max":0,"o":""},"!":{"ha":478,"x_min":89,"x_max":603,"o":"m 484 869 q 509 873 498 873 q 558 859 531 873 q 603 819 585 845 q 499 666 571 772 q 393 507 428 559 q 320 397 357 454 q 264 309 283 340 q 277 293 277 306 q 261 265 277 285 q 232 245 245 245 q 194 273 217 245 q 171 319 171 300 q 181 352 171 329 q 218 421 192 375 q 278 524 245 468 q 358 663 311 581 q 484 869 451 822 m 149 5 q 109 23 128 5 q 89 74 89 41 q 111 170 89 117 q 157 224 133 224 q 187 213 172 224 q 213 184 202 203 q 224 142 224 165 q 199 55 224 104 q 149 5 174 5 z "},"\"":{"ha":419,"x_min":150,"x_max":432,"o":"m 150 685 l 150 846 l 252 846 l 252 685 l 231 501 l 171 501 l 150 685 m 329 685 l 329 846 l 432 846 l 432 685 l 411 501 l 351 501 l 329 685 z "},"#":{"ha":844,"x_min":75,"x_max":814,"o":"m 75 521 l 75 610 l 273 610 l 326 856 l 414 856 l 361 610 l 608 610 l 661 856 l 750 856 l 697 610 l 814 610 l 814 521 l 679 521 l 635 306 l 814 306 l 814 216 l 618 216 l 566 -28 l 476 -28 l 529 216 l 281 216 l 229 -28 l 140 -28 l 192 216 l 75 216 l 75 306 l 211 306 l 256 521 l 75 521 m 591 521 l 343 521 l 298 306 l 547 306 l 591 521 z "},"$":{"ha":652,"x_min":61,"x_max":707,"o":"m 435 749 l 522 758 q 545 815 536 795 q 572 854 554 836 q 614 873 590 873 q 627 864 627 873 q 611 825 627 860 q 583 761 595 791 q 677 746 648 760 q 707 690 707 733 q 659 614 707 636 q 611 597 642 606 q 576 589 581 589 q 568 595 568 589 q 571 600 568 597 q 590 611 584 607 q 596 623 596 614 q 578 634 596 630 q 533 637 560 637 l 479 492 q 629 368 629 475 q 601 270 629 314 q 515 194 572 226 q 371 143 458 163 q 348 68 360 111 q 329 8 336 26 q 311 -9 321 -9 q 294 9 301 -9 q 288 52 288 27 q 306 134 288 85 q 220 131 272 131 q 194 41 205 88 q 178 -5 184 -5 q 160 24 170 -5 q 150 68 150 54 q 167 142 150 81 q 94 167 109 161 q 70 184 79 173 q 61 218 61 196 q 125 321 61 274 q 164 288 149 298 q 211 271 180 278 l 268 440 q 199 450 228 441 q 154 479 170 458 q 138 536 138 500 q 146 582 138 555 q 171 631 155 608 q 250 697 201 675 q 379 736 298 720 q 388 759 383 746 q 395 780 392 771 q 408 806 399 788 q 422 835 417 824 q 468 827 468 842 q 464 812 468 823 q 449 781 459 802 q 435 749 439 760 m 297 522 l 335 625 q 249 592 279 611 q 218 553 218 573 q 297 522 218 527 m 478 640 l 389 633 l 346 515 l 429 503 l 478 640 m 457 421 l 414 283 q 502 323 474 305 q 529 366 529 342 q 513 400 529 390 q 457 421 497 410 m 404 428 l 318 435 l 261 264 q 290 262 269 262 q 351 269 323 262 l 404 428 z "},"%":{"ha":956,"x_min":146,"x_max":893,"o":"m 496 771 q 526 751 516 766 q 536 704 536 736 q 505 582 536 649 q 421 469 474 515 q 310 422 369 422 q 236 456 265 422 q 207 549 207 490 q 241 667 207 608 q 332 766 276 727 q 446 806 389 806 q 475 797 465 806 q 496 771 486 789 m 322 507 q 405 541 365 507 q 469 622 445 575 q 493 700 493 668 q 472 737 493 737 q 446 732 469 737 q 411 733 422 726 q 407 736 410 734 q 403 737 405 737 q 362 709 394 737 q 306 640 330 681 q 281 555 281 599 q 293 520 281 534 q 322 507 305 507 m 775 317 q 807 293 800 308 q 815 237 815 279 q 777 112 815 174 q 687 11 738 50 q 607 -29 637 -29 q 544 12 576 -29 q 511 110 511 52 q 543 214 511 157 q 626 309 575 270 q 726 347 676 347 q 775 317 754 347 m 570 106 q 585 54 570 68 q 626 53 600 40 q 684 104 652 66 q 737 191 718 147 q 757 258 757 235 q 736 290 757 290 q 677 265 719 290 q 603 197 635 239 q 570 106 570 155 m 146 28 q 195 120 146 60 q 386 329 245 180 q 516 458 454 400 q 613 547 578 517 q 719 634 648 576 q 802 704 789 692 q 872 760 852 749 q 893 739 893 771 q 866 682 893 715 q 760 574 839 649 q 596 414 680 498 q 415 216 513 329 q 323 103 366 160 q 250 4 279 46 q 208 -52 220 -39 q 186 -65 197 -65 q 159 -31 172 -65 q 146 28 146 4 z "},"&":{"ha":681,"x_min":56,"x_max":730,"o":"m 248 5 q 155 35 199 5 q 83 118 110 65 q 56 236 56 171 q 122 394 56 323 q 317 534 188 465 q 310 595 310 577 q 339 724 310 663 q 414 826 368 784 q 511 891 460 869 q 610 914 563 914 q 697 888 664 914 q 730 821 730 862 q 702 722 730 766 q 630 645 674 679 q 523 571 587 610 q 446 521 459 531 q 511 346 467 435 q 607 420 572 387 q 665 481 642 453 q 697 509 689 509 q 707 494 703 509 q 711 461 711 479 q 696 383 711 420 q 654 310 682 347 q 586 232 627 273 l 631 183 q 646 199 637 189 q 659 213 654 209 q 669 216 664 216 q 680 211 676 216 q 684 199 684 205 q 644 105 684 171 q 579 40 605 40 q 553 51 566 40 q 522 87 540 62 q 492 129 503 112 q 353 37 414 69 q 248 5 292 5 m 431 648 l 431 621 q 582 736 528 675 q 636 833 636 798 q 606 864 636 864 q 535 831 578 864 q 461 748 492 798 q 431 648 431 699 m 339 446 q 250 371 289 411 q 188 293 211 331 q 165 231 165 256 q 211 180 165 180 q 301 202 244 180 q 415 267 358 224 q 339 446 385 336 z "},"'":{"ha":304,"x_min":183,"x_max":283,"o":"m 183 685 l 183 846 l 283 846 l 283 685 l 267 503 l 204 503 l 183 685 z "},"(":{"ha":463,"x_min":143,"x_max":509,"o":"m 296 100 q 314 119 309 119 q 320 106 317 119 q 322 74 322 93 q 302 18 322 39 q 253 5 281 -3 q 200 53 224 14 q 160 162 177 92 q 143 307 143 233 q 187 536 143 425 q 293 734 231 647 q 413 874 355 821 q 490 928 471 928 q 504 917 499 928 q 509 890 509 905 q 452 791 509 854 q 305 559 361 692 q 249 296 249 426 q 262 182 249 237 q 296 100 275 128 z "},")":{"ha":463,"x_min":65,"x_max":411,"o":"m 269 810 q 257 796 262 796 q 254 803 254 796 q 254 814 254 809 q 275 879 254 854 q 319 904 295 904 q 362 880 341 904 q 397 809 383 855 q 411 700 411 762 q 400 579 411 641 q 367 448 389 517 q 311 309 345 378 q 190 82 243 159 q 102 5 137 5 q 76 18 86 5 q 65 47 65 30 q 74 75 65 62 q 176 256 135 172 q 244 419 216 339 q 284 565 272 500 q 297 688 297 631 q 290 769 297 734 q 269 810 282 803 z "},"*":{"ha":449,"x_min":-50,"x_max":408,"o":"m -49 606 q -36 622 -49 616 q 14 639 -24 628 q 75 657 52 650 q 131 682 98 665 q 37 709 96 696 q -36 727 -22 722 q -50 746 -50 731 q -28 790 -50 756 q 7 823 -7 823 q 58 802 20 823 q 161 739 96 781 q 145 841 161 789 q 129 903 129 893 q 137 920 129 916 q 164 924 146 924 q 236 876 236 924 q 227 821 236 865 q 215 737 218 776 q 249 763 235 747 q 285 809 263 779 q 322 852 307 838 q 351 867 337 867 q 375 847 362 867 q 398 803 389 827 q 408 768 408 778 q 395 742 408 748 q 331 724 382 736 q 248 693 281 711 q 323 676 275 686 q 388 659 371 666 q 404 637 404 652 q 382 587 404 616 q 343 558 359 558 q 303 584 339 558 q 221 637 267 610 q 233 561 224 603 q 243 505 243 519 q 233 477 243 488 q 205 465 224 465 q 129 501 129 465 q 136 520 129 503 q 150 564 142 536 q 160 637 157 592 q 109 600 132 618 q 70 569 87 582 q 39 552 54 557 q 3 547 24 547 q -29 568 -9 547 q -49 606 -49 589 z "},"+":{"ha":926,"x_min":115,"x_max":860,"o":"m 115 371 l 115 478 l 433 478 l 433 798 l 541 798 l 541 478 l 860 478 l 860 371 l 541 371 l 541 56 l 433 56 l 433 371 l 115 371 z "},",":{"ha":463,"x_min":90,"x_max":229,"o":"m 125 -17 q 97 -5 103 -9 q 90 12 90 -1 q 112 61 90 31 q 160 114 133 91 q 204 136 187 136 q 229 106 229 136 q 188 14 229 71 q 114 -65 147 -43 q 92 -69 92 -80 q 95 -60 92 -64 q 109 -42 99 -56 q 125 -17 119 -29 z "},"-":{"ha":708,"x_min":164,"x_max":567,"o":"m 467 399 q 494 405 490 404 q 530 399 499 405 q 548 396 541 397 q 561 392 555 395 q 567 387 567 390 q 530 350 567 381 q 457 310 494 319 q 374 297 434 302 q 241 292 315 292 q 183 295 203 292 q 164 309 164 298 q 174 329 164 314 q 200 359 184 343 q 367 406 245 406 q 467 399 387 406 z "},".":{"ha":463,"x_min":79,"x_max":205,"o":"m 107 -3 q 87 6 96 -3 q 79 31 79 15 q 94 74 79 43 q 131 131 109 106 q 176 155 153 155 q 205 121 205 155 q 190 72 205 102 q 151 19 174 41 q 107 -3 128 -3 z "},"/":{"ha":390,"x_min":3,"x_max":389,"o":"m 102 -92 l 3 -92 l 290 936 l 389 936 l 102 -92 z "},":":{"ha":463,"x_min":86,"x_max":370,"o":"m 119 -3 q 86 32 86 -3 q 107 84 86 57 q 158 131 129 111 q 209 151 188 150 q 231 126 231 151 q 212 76 231 106 q 166 21 193 45 q 119 -3 140 -3 m 254 289 q 230 300 238 289 q 221 329 221 311 q 242 380 221 350 q 291 433 262 411 q 339 456 319 456 q 361 447 353 456 q 370 422 370 437 q 350 371 370 404 q 303 313 330 338 q 254 289 277 289 z "},";":{"ha":463,"x_min":82,"x_max":370,"o":"m 258 277 q 231 288 243 277 q 220 317 220 300 q 241 370 220 338 q 292 424 262 401 q 339 447 321 447 q 361 438 352 447 q 370 411 370 429 q 351 357 370 389 q 307 301 333 325 q 258 277 281 277 m 123 -12 q 82 22 82 -10 q 102 69 82 40 q 150 121 122 98 q 200 143 178 143 q 227 111 227 143 q 193 27 227 84 q 122 -60 159 -31 q 97 -74 107 -71 q 86 -68 86 -77 q 99 -50 86 -64 q 123 -12 113 -35 z "},"<":{"ha":926,"x_min":117,"x_max":859,"o":"m 859 182 l 859 65 l 117 378 l 117 473 l 859 785 l 859 669 l 261 427 l 859 182 z "},"=":{"ha":926,"x_min":117,"x_max":859,"o":"m 117 533 l 117 640 l 859 640 l 859 533 l 117 533 m 117 214 l 117 321 l 859 321 l 859 214 l 117 214 z "},">":{"ha":926,"x_min":117,"x_max":859,"o":"m 117 669 l 117 785 l 859 473 l 859 378 l 117 65 l 117 182 l 714 425 l 117 669 z "},"?":{"ha":449,"x_min":79,"x_max":536,"o":"m 204 739 q 213 728 204 733 q 229 720 222 724 q 258 692 258 708 q 255 682 258 682 q 241 686 251 682 q 227 692 231 691 q 173 698 202 698 q 134 704 144 699 q 123 732 123 709 q 141 793 123 754 q 178 851 158 832 q 232 882 193 865 q 318 909 271 898 q 404 921 366 921 q 501 886 465 921 q 536 783 536 850 q 523 704 536 749 q 484 609 509 659 q 422 508 458 559 q 340 408 387 458 q 280 339 301 369 q 258 285 258 310 q 259 278 258 283 q 261 268 260 273 q 262 259 262 262 q 262 250 262 256 q 241 221 262 221 q 204 251 223 221 q 184 318 184 281 q 240 441 184 370 q 419 619 296 513 q 474 672 458 653 q 490 720 490 692 q 467 771 490 753 q 396 789 444 789 q 315 781 362 789 q 236 761 267 772 q 204 739 204 749 m 140 4 q 104 25 128 4 q 79 78 79 45 q 92 135 79 102 q 122 192 105 168 q 151 216 140 216 q 177 203 163 216 q 200 170 191 189 q 210 134 210 151 q 198 84 210 116 q 170 28 186 52 q 140 4 154 4 z "},"@":{"ha":1402,"x_min":75,"x_max":1360,"o":"m 686 659 q 801 626 748 659 q 890 534 854 594 l 913 640 l 1035 640 l 937 184 q 924 124 932 157 q 917 78 917 91 q 931 48 917 62 q 966 35 945 35 q 1070 83 1008 35 q 1179 217 1133 131 q 1226 410 1226 303 q 1190 580 1226 501 q 1088 716 1154 659 q 932 806 1022 774 q 741 838 843 838 q 513 793 617 838 q 333 669 410 749 q 216 482 257 589 q 175 253 175 374 q 214 34 175 131 q 329 -130 253 -62 q 515 -233 406 -197 q 762 -268 625 -268 q 1050 -213 926 -268 q 1238 -64 1173 -157 l 1360 -64 q 1304 -147 1339 -106 q 1218 -227 1268 -189 q 1110 -295 1168 -266 q 989 -342 1051 -324 q 761 -368 890 -368 q 391 -293 546 -368 q 156 -81 236 -218 q 75 241 75 57 q 121 504 75 378 q 252 728 167 629 q 387 845 312 798 q 552 913 463 891 q 746 936 642 936 q 986 895 878 936 q 1169 781 1093 853 q 1286 616 1245 709 q 1326 418 1326 522 q 1292 225 1326 315 q 1197 65 1257 134 q 1065 -41 1137 -3 q 922 -79 992 -79 q 819 -50 845 -79 q 787 35 792 -20 q 722 -25 758 1 q 651 -65 686 -52 q 582 -78 615 -78 q 456 -39 513 -78 q 366 71 399 1 q 334 229 334 142 q 362 382 334 306 q 440 522 391 459 q 554 622 490 585 q 686 659 617 659 m 458 218 q 478 115 458 159 q 531 46 497 71 q 608 22 565 22 q 693 49 649 22 q 772 122 736 75 q 829 231 808 169 q 851 361 851 292 q 808 506 851 453 q 693 558 765 558 q 574 506 628 558 q 489 374 520 454 q 458 218 458 294 z "},"A":{"ha":882,"x_min":-85,"x_max":1013,"o":"m 604 279 q 485 277 523 277 q 323 279 427 277 q 271 223 302 256 q 212 164 239 191 q 164 117 184 136 q 131 85 144 98 q 33 -11 56 12 q -15 -51 10 -33 q -61 -69 -40 -69 q -85 -47 -85 -69 q -51 26 -85 -24 q 26 113 -17 75 q 96 151 68 151 q 117 144 103 151 l 245 282 q 182 287 221 286 q 129 292 142 288 q 115 315 115 297 q 178 407 115 345 q 241 451 212 441 q 355 461 271 460 q 285 445 306 454 q 262 418 264 436 q 299 418 282 418 q 342 418 315 418 q 382 419 369 418 q 584 608 493 528 q 775 761 675 688 q 990 893 876 833 q 1013 832 1013 864 q 995 771 1013 806 q 922 641 978 736 q 808 439 866 546 q 840 438 827 439 q 867 437 852 438 q 914 436 905 437 q 922 422 922 435 q 912 403 922 417 q 875 357 901 389 q 823 292 848 325 l 724 283 q 644 115 644 134 q 673 87 644 87 q 791 147 688 87 l 786 111 q 700 45 730 69 q 646 5 669 21 q 605 -19 623 -11 q 567 -26 586 -26 q 523 -6 545 -26 q 501 53 501 15 q 513 97 501 68 q 537 153 524 126 q 604 279 551 179 m 476 433 l 696 437 q 759 544 734 503 q 811 632 783 585 q 861 713 840 680 q 907 789 882 747 q 807 721 858 758 q 692 631 756 684 q 579 533 629 578 q 476 433 530 488 z "},"B":{"ha":766,"x_min":29,"x_max":901,"o":"m 382 458 l 347 418 q 455 403 408 412 q 543 383 503 394 q 614 359 583 372 q 721 235 721 315 q 676 139 721 186 q 560 56 631 92 q 413 -2 488 19 q 275 -22 337 -22 q 115 16 172 -22 q 57 121 57 54 q 92 229 57 167 q 201 385 127 292 q 123 401 146 387 q 100 440 100 415 q 109 464 100 456 q 132 476 117 472 q 190 485 147 479 q 298 498 232 490 q 431 635 372 589 q 557 688 490 681 q 569 688 562 688 q 575 685 575 688 q 560 663 575 681 q 510 607 545 646 q 429 515 476 568 q 638 554 557 532 q 760 607 719 576 q 802 675 802 637 q 758 741 802 720 q 623 761 713 761 q 508 751 572 761 q 390 728 443 741 q 297 700 338 715 q 256 679 256 686 q 260 675 256 677 q 293 654 293 663 q 191 613 293 644 q 54 582 90 582 q 29 607 29 582 q 84 714 29 637 q 183 814 138 792 q 256 838 199 821 q 381 869 313 854 q 519 894 449 884 q 644 904 590 904 q 837 858 772 904 q 901 743 901 812 q 872 653 901 696 q 780 571 842 610 q 617 503 718 532 q 382 458 517 474 m 310 371 q 247 297 275 329 q 208 244 220 264 q 196 204 196 224 q 230 146 196 172 q 326 121 263 121 q 451 141 385 121 q 562 195 517 162 q 607 262 607 229 q 574 311 607 292 q 473 344 541 330 q 310 371 405 359 z "},"C":{"ha":839,"x_min":53,"x_max":922,"o":"m 856 216 l 856 172 q 647 -37 742 45 q 460 -164 551 -119 q 285 -208 370 -208 q 159 -179 212 -208 q 80 -94 106 -150 q 53 39 53 -38 q 72 166 53 99 q 128 303 92 234 q 218 445 165 372 q 343 599 271 518 q 490 743 418 682 q 622 838 563 804 q 731 890 681 873 q 815 907 782 907 q 873 890 849 907 q 909 843 897 874 q 922 771 922 812 q 870 601 922 694 q 740 419 818 507 q 591 276 662 332 q 489 221 520 221 q 450 238 468 221 q 432 275 432 254 q 473 369 432 314 q 563 470 514 424 q 621 515 611 515 q 625 511 625 515 q 618 490 625 505 q 611 472 611 475 q 615 467 611 467 q 682 528 627 467 q 782 664 736 590 q 828 786 828 739 q 820 816 828 806 q 794 827 811 827 q 650 750 747 827 q 452 554 553 673 q 283 308 351 435 q 215 85 215 181 q 232 -8 215 29 q 280 -66 248 -45 q 358 -86 313 -86 q 581 -9 456 -86 q 856 216 706 67 z "},"D":{"ha":897,"x_min":-28,"x_max":878,"o":"m 72 596 q 81 591 72 591 q 136 600 87 591 q 225 608 185 608 q 148 584 180 596 q 82 556 116 571 q 33 535 47 541 q 7 530 18 530 q -28 575 -28 530 q 31 737 -28 690 q 107 782 54 756 q 225 832 159 808 q 371 872 292 855 q 528 889 450 889 q 673 866 607 889 q 785 801 740 843 q 853 699 829 760 q 878 564 878 639 q 811 341 878 449 q 635 151 745 233 q 387 20 525 68 q 114 -28 248 -28 q 74 -22 89 -28 q 54 -1 60 -17 q 47 46 47 15 q 54 109 47 85 q 74 165 60 134 q 414 710 172 382 q 307 689 365 705 q 196 656 248 674 q 108 621 144 637 q 72 596 72 604 m 433 714 q 436 699 433 713 q 439 675 439 685 q 423 631 439 659 q 360 531 407 603 q 280 405 313 459 q 201 265 247 351 q 182 229 187 238 q 164 197 176 219 q 147 160 153 176 q 142 136 142 144 q 161 112 142 119 q 216 104 180 104 q 412 138 309 104 q 605 231 515 172 q 750 366 696 291 q 804 524 804 441 q 736 668 804 617 q 536 718 667 718 q 433 714 481 718 z "},"E":{"ha":854,"x_min":46,"x_max":904,"o":"m 904 854 l 904 808 q 893 772 904 780 q 811 732 882 765 q 675 656 740 700 q 721 710 700 692 q 777 754 741 728 q 692 766 746 766 q 510 733 608 766 q 345 654 413 700 q 277 576 277 608 q 297 550 277 560 q 364 533 318 539 q 478 526 410 528 q 647 524 547 524 q 741 518 720 524 q 762 493 762 513 q 738 436 762 468 q 672 397 713 404 q 572 380 609 387 q 483 356 534 373 q 370 307 432 339 q 224 208 277 258 q 172 119 172 158 q 210 67 172 86 q 317 49 247 49 q 807 265 557 49 q 792 148 808 199 q 728 52 777 98 q 609 -22 687 13 q 438 -79 530 -58 q 264 -100 345 -100 q 108 -55 170 -100 q 46 65 46 -9 q 76 173 46 119 q 168 276 106 227 q 324 365 229 325 q 542 428 418 405 q 559 439 559 431 q 539 449 559 447 q 463 451 518 450 q 366 456 408 452 q 277 473 323 460 q 202 526 229 488 q 176 608 176 563 q 218 726 176 667 q 337 832 260 785 q 523 908 414 880 q 761 937 631 937 q 865 929 836 937 q 899 906 895 920 q 904 854 904 892 z "},"F":{"ha":782,"x_min":3,"x_max":863,"o":"m 450 338 l 553 338 q 688 546 642 457 q 734 663 734 635 q 668 701 734 701 q 531 685 629 698 q 340 653 433 671 q 208 621 258 637 q 138 593 158 604 q 113 578 117 583 q 197 581 163 581 q 252 568 252 581 q 214 554 252 563 q 142 536 176 546 q 77 514 109 527 q 39 501 45 501 q 13 513 23 501 q 3 542 3 525 q 21 602 3 553 q 74 700 40 650 q 158 772 108 749 q 275 804 176 781 q 498 846 374 827 q 725 865 622 865 q 825 848 787 865 q 863 774 863 831 q 849 717 863 755 q 806 619 836 679 q 734 488 777 559 q 637 338 692 417 l 742 338 l 652 208 q 606 206 633 207 q 546 204 578 205 q 365 0 463 96 q 189 -153 268 -96 q 78 -211 110 -211 q 56 -202 65 -211 q 46 -180 46 -194 q 76 -121 46 -169 q 160 -33 106 -74 q 282 14 214 9 q 330 65 310 43 q 387 131 350 88 q 443 197 423 174 l 239 187 q 193 190 205 186 q 180 212 180 195 q 187 230 180 212 q 201 260 194 247 q 219 283 212 279 q 256 294 225 288 l 380 325 q 450 338 431 338 z "},"G":{"ha":782,"x_min":53,"x_max":904,"o":"m 796 216 l 796 180 q 643 56 719 115 q 458 -77 567 -3 q 363 -201 403 -153 q 294 -281 323 -250 q 264 -314 264 -313 q 232 -337 254 -326 q 195 -349 210 -349 q 160 -333 174 -349 q 146 -297 146 -318 q 203 -181 146 -243 q 370 -56 260 -120 q 473 101 424 22 q 560 245 523 180 q 628 374 597 311 q 531 295 579 333 q 437 223 483 258 q 380 181 391 189 q 361 167 369 173 q 184 64 243 64 q 91 117 129 64 q 53 250 53 170 q 69 356 53 301 q 119 470 85 412 q 199 583 153 528 q 302 682 246 637 q 497 806 389 751 q 698 889 605 861 q 835 918 791 918 q 876 906 861 918 q 898 872 891 893 q 904 827 904 850 q 890 783 904 805 q 821 722 871 754 q 722 665 772 690 q 664 640 671 640 q 660 643 660 640 q 675 663 660 649 q 710 690 691 676 q 760 758 752 722 q 629 710 694 740 q 500 639 564 680 q 372 545 436 597 q 250 419 300 484 q 173 298 199 353 q 147 212 147 242 q 161 173 147 190 q 200 157 176 157 q 271 182 229 157 q 371 251 316 209 q 471 332 425 294 q 571 415 517 370 q 648 482 621 456 q 689 526 675 507 q 746 572 718 566 q 794 561 774 578 q 814 518 814 543 q 784 455 814 510 q 694 295 755 399 q 545 47 633 190 q 796 216 623 90 z "},"H":{"ha":897,"x_min":-77,"x_max":974,"o":"m 155 595 l 9 519 q -36 502 -24 502 q -67 515 -57 502 q -77 556 -77 528 q -63 630 -77 588 q -32 691 -50 671 q 54 747 -14 711 q 216 819 121 783 q 414 878 311 854 q 603 902 517 902 q 691 883 663 902 q 720 783 720 864 q 689 685 720 739 q 617 580 659 631 q 460 399 574 529 q 549 412 521 409 q 656 423 578 414 q 802 631 746 553 q 896 760 857 709 q 942 819 935 811 q 965 830 956 834 q 974 802 974 827 q 968 757 974 774 q 950 722 962 739 q 937 703 938 705 q 886 627 920 674 q 821 534 853 580 q 749 425 789 488 q 899 405 825 422 l 777 239 q 643 246 726 246 q 611 182 623 205 q 592 139 600 159 q 585 100 585 118 q 591 72 585 90 q 597 51 597 54 q 577 22 597 37 q 531 -5 557 7 q 489 -16 504 -16 q 464 22 464 -16 q 545 241 464 100 q 298 209 437 232 q 226 109 258 156 q 173 28 193 61 q 142 -15 152 -4 q 121 -26 132 -26 q 87 -9 101 -26 q 80 5 81 -2 q 78 20 78 12 q 78 34 78 28 q 87 58 78 42 q 129 120 96 73 q 178 190 162 166 q 132 188 160 188 q 75 201 97 188 q 53 233 53 214 q 64 279 53 254 q 94 320 76 304 q 131 337 113 337 q 160 330 143 337 l 335 373 q 553 624 481 532 q 625 743 625 716 q 617 767 625 758 q 594 783 609 777 q 561 788 580 788 q 490 776 538 788 q 374 740 441 764 q 207 674 307 716 q 132 635 132 644 q 142 623 132 626 q 169 619 153 621 q 184 614 184 618 q 177 607 184 612 q 155 595 169 602 z "},"I":{"ha":608,"x_min":41,"x_max":612,"o":"m 248 -20 l 205 11 q 196 28 196 19 q 228 89 196 37 q 290 191 251 126 q 353 298 329 256 q 411 409 376 340 q 473 542 445 477 q 539 733 539 692 q 501 782 539 782 q 420 753 473 782 q 311 677 368 724 q 218 580 255 631 q 180 490 180 529 q 184 481 180 484 q 196 478 187 478 q 249 497 212 478 q 265 494 265 505 q 214 438 265 484 q 138 393 162 393 q 79 430 117 393 q 41 496 41 466 q 62 551 41 507 q 120 649 83 594 q 197 743 157 703 q 304 827 244 790 q 419 884 364 863 q 509 904 475 904 q 585 867 557 904 q 612 764 612 830 q 543 509 612 675 q 330 118 474 342 q 335 103 332 111 q 338 89 338 96 q 336 84 338 87 q 331 76 334 80 q 328 71 328 72 l 278 -11 q 261 -25 270 -25 q 248 -20 253 -25 z "},"J":{"ha":521,"x_min":-56,"x_max":624,"o":"m 530 165 l 350 64 q 230 -127 290 -37 q 124 -276 170 -217 q 43 -365 77 -334 q -7 -396 9 -396 q -42 -381 -28 -396 q -56 -347 -56 -367 q 27 -164 -56 -274 q 288 71 109 -54 q 415 340 365 219 q 492 548 465 462 q 529 686 518 634 q 539 753 539 739 q 517 782 539 782 q 463 761 498 782 q 386 698 427 740 q 309 602 345 656 q 243 480 273 547 q 198 355 214 412 q 182 264 182 298 q 184 225 182 255 q 199 248 191 235 q 222 276 208 262 q 250 300 235 290 q 271 311 259 307 q 283 310 283 315 q 245 259 283 306 q 178 174 206 212 q 134 133 161 152 q 90 114 107 114 q 63 133 70 114 q 57 193 57 152 q 91 415 57 293 q 183 629 125 537 q 298 762 230 703 q 430 854 366 821 q 530 888 494 888 q 600 860 575 888 q 624 782 624 831 q 618 727 624 758 q 604 665 612 696 q 573 565 595 634 q 545 473 551 496 q 489 330 524 404 q 392 135 455 256 l 530 210 l 530 165 z "},"K":{"ha":911,"x_min":-3,"x_max":1031,"o":"m 823 -78 q 799 -69 815 -78 q 753 -39 783 -60 q 685 8 723 -18 l 318 254 l 210 111 q 205 84 210 93 q 184 58 200 75 q 121 -1 147 20 q 74 -21 95 -21 q 56 -13 64 -21 q 49 8 49 -4 q 68 52 49 24 l 267 298 q 249 355 249 326 q 266 406 249 385 q 304 440 282 427 q 424 505 326 453 q 564 713 564 690 q 546 728 564 728 q 465 706 528 728 q 300 639 402 684 q 58 524 198 594 q 32 518 47 517 q 7 530 18 519 q -3 558 -3 541 q 0 571 -3 564 q 7 594 2 578 q 17 623 13 610 q 23 652 18 627 q 41 697 28 677 q 82 743 53 718 q 167 796 112 768 q 186 804 177 802 q 195 799 195 806 q 175 782 195 797 q 131 734 155 768 q 423 832 329 804 q 574 860 517 860 q 626 818 605 860 q 647 762 647 775 q 632 720 647 743 l 524 557 q 724 658 652 621 q 880 740 795 696 q 986 796 964 785 q 1015 807 1008 807 q 1031 793 1031 807 q 1007 748 1031 785 q 956 683 984 712 q 908 654 927 654 q 897 657 903 654 q 884 661 890 659 q 660 549 792 614 q 450 447 527 484 l 392 359 l 736 126 q 805 75 783 94 q 837 34 826 56 q 847 -22 847 12 q 823 -78 847 -78 z "},"L":{"ha":825,"x_min":-74,"x_max":872,"o":"m 729 514 l 750 493 q 653 391 694 423 q 591 359 611 359 q 575 389 575 359 q 671 612 575 461 q 751 758 751 743 q 741 771 751 771 q 645 686 722 771 q 456 444 568 600 q 281 196 328 271 q 429 173 371 187 q 597 128 487 159 q 760 92 707 97 q 672 -7 696 19 q 635 -39 648 -33 q 574 -40 614 -47 q 448 -9 534 -32 q 285 28 361 13 q 147 43 210 43 q 86 35 112 43 q 16 8 61 26 q -47 -11 -29 -11 q -74 11 -74 -11 q -65 39 -74 23 q -22 107 -43 75 q 23 158 -1 140 q 92 186 47 176 q 210 197 136 197 q 416 498 320 367 q 590 720 511 629 q 727 856 668 810 q 821 903 786 903 q 859 889 845 903 q 872 851 872 876 q 729 514 872 770 z "},"M":{"ha":1157,"x_min":-61,"x_max":1260,"o":"m 1173 216 l 1173 170 q 1063 72 1108 109 q 973 6 1018 35 q 899 -36 928 -24 q 848 -49 869 -49 q 766 -12 798 -49 q 734 85 734 26 q 762 219 734 153 q 840 356 789 286 q 968 515 891 427 q 1025 589 1025 581 q 1021 597 1025 593 q 1014 600 1018 600 q 935 543 1001 600 q 764 376 868 486 q 539 113 660 265 q 496 57 532 104 q 445 -4 460 10 q 419 -18 430 -18 q 386 20 400 -18 q 372 102 372 58 q 390 159 372 128 q 465 268 407 189 q 561 401 523 347 q 644 533 599 456 q 691 618 676 587 q 707 675 707 650 q 694 696 707 696 q 597 627 669 696 q 421 422 526 558 q 203 109 317 287 q 150 26 165 47 q 115 5 134 5 q 71 56 92 5 q 50 138 50 106 q 58 160 50 148 q 205 363 148 279 q 308 521 263 446 q 373 645 353 596 q 393 721 393 693 q 367 750 393 750 q 293 722 345 750 q 161 646 241 694 q 33 573 81 598 q -39 547 -15 547 q -61 572 -61 547 q -52 638 -61 587 q -32 710 -42 689 q 41 782 -18 737 q 106 827 100 827 q 111 822 111 827 q 106 814 111 819 q 64 777 78 791 q 47 746 51 763 q 270 860 172 821 q 406 899 368 899 q 441 873 425 899 q 470 814 458 848 q 482 771 482 781 q 465 689 482 736 q 417 580 447 642 q 342 424 387 517 q 409 508 377 469 q 472 583 441 547 q 536 657 504 620 q 635 754 581 708 q 738 830 690 801 q 803 860 786 860 q 845 834 827 860 q 864 778 864 808 q 838 703 864 758 q 763 560 812 647 q 632 336 713 473 q 793 505 709 418 q 917 632 876 592 q 985 693 958 672 q 1060 754 1022 722 q 1119 806 1097 787 q 1158 836 1141 825 q 1189 846 1175 846 q 1233 805 1206 846 q 1260 753 1260 764 q 1244 719 1260 739 q 1178 646 1228 699 q 1018 446 1086 547 q 915 262 950 345 q 880 131 880 179 q 891 87 880 101 q 926 74 903 74 q 967 82 948 74 q 1008 105 985 90 q 1051 134 1031 120 q 1107 170 1080 151 q 1150 200 1135 189 q 1173 216 1165 212 z "},"N":{"ha":796,"x_min":-71,"x_max":896,"o":"m 149 262 q 330 575 270 461 q 390 721 390 690 q 382 740 390 732 q 363 747 374 747 q 244 707 342 747 q 126 653 163 673 q 23 595 89 633 q -52 558 -42 558 q -71 585 -71 558 q -5 720 -71 635 q 172 868 61 804 q 186 867 186 877 q 170 851 186 863 q 141 826 153 839 q 113 789 128 814 q 322 889 255 860 q 436 918 389 918 q 501 901 477 918 q 525 851 525 884 q 502 768 525 823 q 436 636 479 714 q 348 483 393 559 q 184 208 302 407 q 427 496 316 373 q 619 697 537 620 q 758 813 701 774 q 840 852 814 852 q 863 834 850 852 q 886 791 876 817 q 896 749 896 765 q 873 660 896 704 q 806 554 850 616 q 620 283 678 382 q 561 123 561 184 q 608 78 561 78 q 659 94 630 78 q 729 144 688 111 q 811 218 770 178 l 812 165 q 708 63 754 106 q 621 -11 662 21 q 547 -59 580 -43 q 490 -75 515 -75 q 434 -51 455 -75 q 412 12 412 -27 q 428 101 412 49 q 477 220 444 153 q 558 368 510 288 q 668 533 607 447 q 728 643 728 618 q 713 657 728 657 q 437 416 652 657 q 390 361 424 401 q 322 275 357 321 q 243 173 287 230 q 155 58 200 117 q 119 31 134 31 q 77 57 103 31 q 50 96 50 83 q 88 167 50 110 q 149 262 125 224 z "},"O":{"ha":796,"x_min":54,"x_max":760,"o":"m 524 696 q 561 705 542 701 q 598 713 579 710 q 636 717 618 717 q 704 699 675 717 q 746 651 732 682 q 760 586 760 621 q 740 460 760 531 q 682 316 720 389 q 595 178 645 243 q 430 36 526 90 q 254 -18 334 -18 q 150 14 195 -18 q 80 107 105 46 q 54 252 54 169 q 115 474 54 363 q 268 676 176 586 q 455 822 361 767 q 608 876 549 876 q 682 847 656 876 q 730 751 708 817 q 621 736 667 749 q 524 696 574 723 m 353 558 q 257 427 305 507 q 178 269 208 347 q 149 151 149 192 q 243 50 149 50 q 413 139 309 50 q 594 353 517 228 q 671 581 671 478 q 611 656 671 656 q 498 619 565 656 q 371 515 432 583 q 285 396 349 491 q 353 558 297 460 z "},"P":{"ha":868,"x_min":32,"x_max":909,"o":"m 283 403 l 490 711 q 342 691 420 709 q 208 653 264 673 q 109 615 153 633 q 46 590 65 597 q 37 593 41 590 q 32 602 32 597 q 63 668 32 607 q 138 799 95 729 q 557 884 375 884 q 848 794 767 884 q 893 717 878 763 q 909 627 909 671 q 867 442 909 525 q 746 298 825 359 q 561 204 667 237 q 328 172 454 172 q 236 180 305 172 l 175 69 q 184 46 184 55 q 175 11 184 25 q 139 -43 161 -9 q 109 -87 117 -76 q 91 -106 101 -98 q 72 -114 81 -114 q 47 -102 52 -114 q 41 -69 41 -90 q 71 25 41 -39 q 160 197 100 90 q 111 229 128 210 q 93 268 93 249 q 141 346 93 310 q 283 403 189 382 m 354 385 l 315 319 q 361 317 341 318 q 395 315 381 315 q 601 347 513 315 q 739 426 688 379 q 813 521 790 473 q 836 600 836 568 q 801 669 836 644 q 700 704 766 694 q 529 713 633 713 q 530 694 530 705 q 493 602 530 659 l 375 416 l 464 427 q 475 416 475 427 q 457 404 475 408 l 354 385 z "},"Q":{"ha":897,"x_min":40,"x_max":932,"o":"m 187 473 l 187 533 q 204 618 187 585 q 272 684 221 651 q 421 760 322 716 q 603 832 531 809 q 750 854 674 854 q 884 814 837 854 q 932 700 932 773 q 355 165 932 478 q 495 140 416 156 q 623 116 575 123 q 722 109 671 109 q 847 126 787 109 q 787 4 805 35 q 748 -42 769 -28 q 692 -57 727 -57 q 557 -48 617 -57 q 400 -19 498 -39 q 250 9 303 1 q 143 16 196 18 q 112 -4 124 3 q 89 -16 100 -11 q 68 -21 77 -21 q 40 9 40 -21 q 60 77 40 37 q 98 134 81 117 q 157 161 118 153 q 264 172 196 169 q 512 327 410 256 q 696 481 614 398 q 777 575 745 530 q 823 651 809 621 q 838 694 838 682 q 791 722 838 722 q 650 700 725 722 q 493 635 575 677 q 309 526 412 593 q 399 530 355 530 q 450 511 450 530 q 436 499 450 504 q 386 488 421 494 q 344 476 366 484 q 294 454 323 467 q 251 434 266 440 q 225 428 235 428 q 187 473 187 428 z "},"R":{"ha":911,"x_min":50,"x_max":1046,"o":"m 526 62 l 271 187 q 161 11 173 54 q 125 -40 153 -20 q 85 -61 97 -61 q 50 -35 50 -61 q 91 51 50 -20 q 204 218 132 122 q 155 240 164 235 q 147 261 145 245 q 171 309 149 276 q 199 347 190 337 q 222 362 209 357 q 249 370 235 368 q 329 380 263 372 q 445 537 382 453 q 543 668 508 621 q 395 644 437 654 q 320 630 350 635 q 277 620 290 624 q 265 607 265 615 q 280 597 265 600 q 318 594 295 594 q 353 592 340 594 q 366 585 366 591 q 349 577 366 578 q 256 572 332 576 q 183 570 212 571 q 142 568 153 568 q 117 578 126 568 q 109 603 109 587 q 121 646 109 614 q 158 709 134 677 q 212 758 182 741 q 320 801 247 779 q 482 835 393 822 q 659 848 571 848 q 762 842 711 848 q 853 827 812 836 q 918 810 895 819 q 1013 748 980 789 q 1046 657 1046 707 q 1029 563 1046 609 q 978 478 1013 517 q 896 415 944 439 q 777 374 857 395 q 583 336 696 353 q 330 313 470 320 q 525 239 435 276 q 678 173 616 202 q 775 126 740 144 q 840 89 825 100 q 859 59 854 77 q 864 -1 864 41 q 858 -72 864 -49 q 833 -94 852 -94 q 801 -81 827 -94 q 729 -42 775 -68 q 645 3 683 -17 q 526 62 608 23 m 586 675 q 587 666 587 670 q 587 654 587 662 q 575 611 587 635 q 545 560 564 586 q 489 485 526 534 q 421 396 452 437 q 664 448 564 423 q 830 499 765 473 q 928 552 895 524 q 961 611 961 581 q 892 664 961 645 q 724 684 823 684 q 681 683 703 684 q 626 679 658 682 q 586 675 595 675 z "},"S":{"ha":897,"x_min":14,"x_max":958,"o":"m 713 196 q 662 252 696 227 q 586 293 628 277 q 497 315 543 308 q 241 404 360 336 q 220 427 231 410 q 208 461 208 445 q 228 581 208 521 q 279 675 248 641 q 460 773 330 731 q 754 815 591 815 q 905 800 852 815 q 958 754 958 785 q 944 675 958 703 q 915 638 930 648 q 859 614 899 629 q 784 583 816 599 q 730 551 753 566 q 703 536 708 536 q 696 542 696 536 q 720 577 696 553 q 779 618 744 600 q 817 643 817 637 q 775 652 817 652 q 543 629 650 652 q 375 570 437 607 q 314 496 314 534 q 339 462 314 472 q 452 429 365 452 q 607 376 538 406 q 753 289 705 334 q 800 187 800 243 q 782 110 800 149 q 727 38 763 71 q 644 -16 691 5 q 544 -47 604 -33 q 412 -71 483 -62 q 277 -79 341 -79 q 86 -57 158 -79 q 14 11 14 -35 q 38 74 14 31 q 96 132 62 117 q 152 145 125 144 q 179 139 179 147 q 177 135 179 137 q 172 132 175 133 q 167 129 170 130 q 145 120 153 123 q 131 114 136 117 q 126 106 126 111 q 267 92 126 92 q 467 100 389 92 q 604 132 545 109 q 713 196 664 155 z "},"T":{"ha":796,"x_min":83,"x_max":895,"o":"m 554 135 l 576 118 q 559 85 568 99 q 540 50 551 71 q 522 20 528 30 q 427 -69 471 -69 q 394 -54 408 -69 q 380 -14 380 -39 q 407 87 380 23 q 487 244 433 151 q 625 455 542 337 q 811 704 707 573 q 669 713 751 713 q 459 692 575 713 q 258 643 344 671 q 172 603 172 616 q 176 596 172 598 q 187 594 179 595 q 207 591 195 593 q 286 567 286 581 q 252 561 286 560 q 168 561 217 561 q 112 564 130 561 q 89 575 95 567 q 83 602 83 584 q 90 652 83 613 q 130 767 103 724 q 212 838 157 810 q 364 882 267 865 q 633 909 527 909 q 758 903 712 909 q 824 884 803 897 q 851 860 846 872 q 867 819 857 848 l 888 757 q 891 747 890 751 q 893 739 892 743 q 895 732 895 735 q 883 684 895 705 q 839 621 871 663 q 793 555 808 579 q 554 135 618 271 z "},"U":{"ha":868,"x_min":-54,"x_max":956,"o":"m 832 534 q 720 357 766 437 q 652 222 675 278 q 629 139 629 166 q 673 89 629 89 q 885 216 720 89 l 884 170 q 604 -25 693 -25 q 498 85 498 -25 q 563 271 498 151 q 760 583 627 392 q 500 304 604 414 q 285 93 396 195 q 237 47 258 68 q 193 15 215 26 q 146 3 172 3 q 79 34 106 3 q 53 122 53 65 q 75 207 53 159 q 140 320 96 256 q 249 461 184 385 q 393 638 353 587 q 433 704 433 690 q 422 714 433 714 q 379 702 410 714 q 300 664 349 690 q 172 587 250 637 q 57 528 114 551 q -22 505 1 505 q -45 513 -36 505 q -54 532 -54 520 q -40 585 -54 548 q -3 662 -26 622 q 37 721 20 701 q 171 817 86 775 q 345 880 256 858 q 493 903 435 903 q 556 888 536 903 q 576 840 576 873 q 558 728 576 768 q 497 625 540 688 q 451 558 481 601 q 388 476 420 516 q 336 408 357 435 q 294 349 316 381 q 220 237 235 262 q 204 193 204 212 q 227 170 204 170 q 266 184 247 170 q 347 253 285 199 q 487 382 419 315 q 610 512 555 450 q 751 671 666 573 q 873 810 847 782 q 917 838 900 838 q 944 813 932 838 q 956 746 956 789 q 932 685 956 723 q 832 534 909 646 z "},"V":{"ha":593,"x_min":-158,"x_max":707,"o":"m 490 766 q 475 735 490 760 q 429 663 459 711 q 355 541 398 615 q 265 376 311 467 q 189 213 212 273 q 165 111 165 154 q 201 52 165 77 q 287 132 245 85 q 370 237 329 179 q 465 382 411 294 q 561 545 519 471 q 556 557 559 551 q 554 567 554 563 q 567 627 554 599 q 599 681 580 654 q 657 755 618 707 q 682 768 667 768 q 707 737 707 768 q 681 639 707 706 q 606 482 656 572 q 483 280 557 392 q 317 47 410 169 q 182 -75 222 -75 q 130 -50 159 -75 q 79 20 100 -24 q 58 114 58 64 q 71 191 58 144 q 110 303 83 237 q 171 432 137 368 q 233 543 206 499 q 294 641 260 587 q 328 700 328 695 q 314 710 328 710 q 209 670 275 710 q 39 549 144 630 q -12 508 -1 517 q -22 493 -22 499 q -9 485 -22 485 q 27 489 -4 485 q 77 493 58 493 q 107 482 107 493 q 95 467 107 473 q 60 456 82 462 q 0 441 38 451 q -86 410 -41 431 q -139 390 -132 390 q -155 399 -152 390 q -158 431 -158 409 q -126 579 -158 527 q -12 689 -94 632 q 167 797 81 754 q 314 860 252 840 q 406 880 376 880 q 462 844 434 880 q 490 766 490 807 z "},"W":{"ha":970,"x_min":-53,"x_max":1089,"o":"m 60 110 q 66 154 60 125 q 85 197 73 182 q 138 273 114 239 q 182 333 163 308 q 220 378 201 358 q 386 565 336 503 q 436 652 436 627 q 421 677 436 668 q 382 686 406 686 q 256 651 332 686 q 78 558 180 615 q -35 501 -23 501 q -53 528 -53 501 q -39 591 -53 550 q -21 661 -28 636 q 2 705 -14 686 q 55 748 18 725 q 168 811 92 771 l 175 786 q 295 825 239 812 q 392 839 352 839 q 504 812 471 839 q 536 696 536 785 q 522 614 536 647 q 467 524 508 582 q 325 334 372 387 q 187 150 187 176 q 207 135 187 135 q 253 158 223 135 q 325 224 283 181 q 441 349 367 268 q 575 499 521 434 q 665 611 630 565 q 703 661 701 658 q 778 735 739 706 q 828 764 817 764 q 847 749 836 764 q 866 713 858 734 q 873 682 873 693 q 857 649 873 679 q 822 588 841 620 q 761 492 803 557 q 620 251 669 349 q 571 123 571 154 q 579 103 571 113 q 595 94 587 94 q 634 112 606 94 q 697 161 663 129 q 780 252 743 205 q 854 356 817 298 q 919 465 890 414 q 977 574 947 517 l 965 608 q 962 629 962 616 q 1002 695 962 640 q 1055 751 1042 751 q 1079 731 1069 751 q 1089 689 1089 710 q 1068 597 1089 666 q 1004 431 1048 528 q 896 232 960 333 q 777 81 840 144 q 663 -12 713 18 q 587 -43 612 -43 q 529 -18 559 -43 q 493 21 504 3 q 479 58 483 38 q 476 106 476 79 q 508 241 476 163 q 603 433 540 318 q 297 84 406 193 q 139 -25 189 -25 q 83 15 106 -25 q 60 110 60 54 z "},"X":{"ha":839,"x_min":46,"x_max":903,"o":"m 492 414 l 498 718 q 373 684 435 709 q 264 631 312 659 q 185 579 216 604 q 154 549 154 555 q 172 542 154 542 q 192 543 179 542 q 228 546 205 544 q 240 542 240 546 q 236 536 240 540 q 231 533 232 533 q 116 492 167 508 q 58 476 66 476 q 46 492 46 476 q 70 588 46 532 q 135 686 93 644 q 217 749 164 717 q 332 808 270 782 q 457 851 394 835 q 572 867 520 867 q 621 855 604 867 q 637 802 637 843 q 632 710 637 785 q 627 561 627 635 l 753 699 q 814 766 783 731 q 856 809 845 801 q 879 818 867 818 q 903 798 903 818 q 847 671 903 770 q 798 654 827 660 l 616 449 l 595 81 q 601 54 593 62 q 624 45 609 45 q 678 64 643 45 q 770 122 713 83 q 778 123 772 123 q 790 113 790 123 q 747 44 790 96 q 646 -47 703 -7 q 542 -87 589 -87 q 495 -61 507 -87 q 484 26 484 -35 q 484 66 484 46 q 485 123 484 85 q 487 200 486 160 q 489 300 488 240 q 356 153 408 214 q 277 58 304 92 q 243 12 250 23 q 164 -58 210 -28 q 97 -89 119 -89 q 75 -56 75 -89 q 113 39 75 -15 q 208 134 151 94 q 268 165 224 142 l 492 414 z "},"Y":{"ha":766,"x_min":-93,"x_max":774,"o":"m -89 472 l -77 551 q -55 618 -71 592 q 0 674 -39 644 q 121 762 39 705 q 428 900 318 900 q 475 886 461 900 q 489 839 489 873 q 471 774 489 815 q 405 643 453 732 q 321 482 357 553 q 253 358 291 424 q 202 269 215 293 q 189 232 189 244 q 198 209 189 218 q 220 199 207 199 q 259 218 237 199 q 346 300 281 237 q 413 374 377 331 q 501 484 448 416 q 599 608 554 551 q 649 673 627 644 q 687 716 671 701 q 713 732 703 732 q 739 711 721 732 l 755 690 q 774 653 774 665 q 723 554 774 640 q 637 405 673 468 q 546 224 602 342 q 439 -39 490 106 q 627 100 576 65 q 701 135 678 135 q 717 122 717 135 q 702 85 717 108 q 662 35 687 62 q 586 -44 637 7 q 476 -157 536 -96 q 405 -243 439 -194 q 351 -320 370 -293 q 317 -351 332 -347 q 275 -341 294 -358 q 256 -288 256 -324 q 282 -181 256 -262 q 361 20 308 -100 q 425 156 392 92 q 499 297 457 220 q 583 443 542 374 q 652 561 623 512 q 517 388 584 472 q 368 212 450 304 q 201 39 286 119 q 149 -8 165 4 q 107 -21 133 -21 q 76 -10 91 -21 q 50 19 60 1 q 40 54 40 37 q 48 104 40 83 q 78 170 57 126 q 212 425 170 356 q 363 696 363 667 q 356 711 363 705 q 339 717 349 717 q 294 700 320 717 q 227 651 267 684 q 130 573 187 618 q 9 486 73 528 q -47 448 -16 470 q -83 425 -79 425 q -93 435 -93 425 q -89 472 -93 444 z "},"Z":{"ha":753,"x_min":62,"x_max":812,"o":"m 107 -389 l 83 -367 q 62 -321 62 -346 q 95 -249 62 -298 q 193 -135 127 -199 q 359 0 258 -71 q 587 135 460 71 q 561 201 580 184 q 494 218 541 218 q 358 177 455 218 q 186 75 261 136 q 146 52 157 52 q 132 74 132 52 q 154 161 132 112 q 208 237 176 210 q 345 318 252 276 q 526 421 444 365 q 653 525 608 477 q 699 597 699 573 q 647 624 699 624 q 492 595 581 624 q 294 503 403 566 q 65 349 184 440 q 81 498 71 443 q 115 588 92 553 q 176 649 138 623 q 288 717 213 675 q 631 832 492 832 q 764 791 715 832 q 812 673 812 749 q 790 576 812 621 q 726 492 768 531 q 627 418 684 452 q 489 343 570 383 q 620 303 579 340 q 672 175 660 267 l 761 212 l 761 161 l 668 118 q 573 -94 642 3 q 419 -259 504 -191 q 255 -364 334 -327 q 138 -401 176 -401 q 107 -389 121 -401 m 570 65 q 416 -25 490 31 q 287 -134 341 -80 q 198 -235 233 -189 q 163 -296 163 -281 q 182 -309 163 -309 q 291 -260 212 -309 q 457 -118 370 -212 q 535 -17 515 -55 q 570 65 555 20 z "},"[":{"ha":406,"x_min":-110,"x_max":771,"o":"m 526 922 q 646 916 577 916 q 771 922 692 916 q 736 847 751 878 q 709 797 722 816 q 680 770 696 779 q 642 762 665 762 q 542 781 614 762 q 371 485 420 568 q 287 341 323 401 q 217 225 251 281 q 160 127 184 168 q 49 -131 83 -9 q 167 -106 118 -106 q 278 -135 227 -106 q 210 -247 233 -204 q 171 -349 187 -289 q 129 -327 150 -335 q 74 -319 107 -319 q 17 -324 40 -319 q -35 -337 -7 -329 q -71 -345 -64 -345 q -110 -258 -110 -345 q -87 -153 -110 -214 q -18 -7 -64 -92 q 98 193 28 77 q 260 456 168 309 q 351 607 313 541 q 410 708 390 673 q 467 813 429 743 q 526 922 505 883 z "},"\\":{"ha":390,"x_min":3,"x_max":389,"o":"m 389 -92 l 290 -92 l 3 936 l 102 936 l 389 -92 z "},"]":{"ha":507,"x_min":-231,"x_max":650,"o":"m 370 930 q 415 908 397 914 q 464 901 433 901 q 551 915 498 901 q 608 928 604 928 q 650 854 650 928 q 610 694 650 787 q 509 497 570 601 q 310 170 448 393 q 193 -26 245 64 q 102 -184 140 -116 q 16 -338 63 -252 q -51 -334 -26 -335 q -121 -334 -75 -334 q -231 -340 -173 -334 q -186 -243 -203 -273 q -151 -197 -170 -213 q -103 -180 -131 -180 q -40 -189 -74 -180 q 0 -197 -6 -197 q 233 203 100 -20 q 414 514 365 426 q 481 657 463 602 q 494 714 489 684 q 429 694 455 701 q 375 688 404 688 q 264 718 323 688 q 312 797 299 774 q 342 857 326 820 q 370 930 359 894 z "},"^":{"ha":652,"x_min":36,"x_max":615,"o":"m 323 765 l 161 359 l 36 359 l 277 903 l 374 903 l 615 359 l 492 359 l 323 765 z "},"_":{"ha":694,"x_min":-8,"x_max":703,"o":"m -8 -174 l -8 -104 l 703 -104 l 703 -174 l -8 -174 z "},"`":{"ha":463,"x_min":216,"x_max":389,"o":"m 359 618 q 304 661 337 618 q 240 751 264 714 q 216 810 216 789 q 260 839 216 839 q 321 815 299 839 q 367 726 342 791 q 389 648 389 669 q 380 627 389 636 q 359 618 372 618 z "},"a":{"ha":564,"x_min":4,"x_max":581,"o":"m 90 335 q 290 474 193 429 q 440 519 387 519 q 467 508 454 519 q 486 480 479 496 q 493 457 493 465 q 484 439 493 445 q 450 425 474 433 q 463 397 455 414 q 474 370 470 380 q 478 351 478 359 q 445 291 478 335 q 399 225 412 246 q 386 174 386 204 q 432 123 386 123 q 581 212 479 123 l 581 171 q 335 -20 409 -20 q 297 -2 309 -20 q 286 49 286 15 q 325 204 286 102 q 178 48 226 94 q 98 1 130 1 q 61 27 83 1 q 21 94 39 53 q 4 179 4 135 q 10 232 4 211 q 34 276 16 254 q 90 335 52 298 m 415 410 q 164 273 239 329 q 89 157 89 216 q 96 121 89 135 q 117 107 104 107 q 143 117 124 107 q 273 226 214 159 q 415 410 332 294 z "},"b":{"ha":449,"x_min":3,"x_max":549,"o":"m 460 212 l 460 168 q 349 123 389 123 q 301 131 326 123 q 196 18 240 54 q 109 -18 153 -18 q 30 35 58 -18 q 3 168 3 89 q 68 403 3 276 q 225 641 133 530 q 403 825 317 752 q 519 897 489 897 q 549 857 549 897 q 93 237 549 680 q 92 189 92 225 q 142 96 92 96 q 181 112 161 96 q 243 172 201 127 q 227 227 227 209 q 257 307 227 264 q 327 382 288 351 q 383 414 366 414 q 411 374 411 414 q 395 300 411 343 q 349 203 379 258 q 367 189 360 193 q 387 184 374 184 q 460 212 418 184 m 115 314 q 186 386 151 345 q 290 514 222 428 q 394 652 356 597 q 450 744 431 707 q 469 794 469 781 q 464 804 469 804 q 402 755 449 804 q 294 621 355 706 q 174 443 211 503 q 115 314 136 383 z "},"c":{"ha":406,"x_min":3,"x_max":419,"o":"m 419 212 l 419 167 q 301 56 347 96 q 215 -5 255 17 q 138 -26 176 -26 q 69 3 100 -26 q 20 80 38 33 q 3 182 3 128 q 23 264 3 228 q 102 357 43 300 q 230 461 171 425 q 323 498 290 498 q 365 481 348 498 q 382 439 382 465 q 359 377 382 417 q 309 308 337 337 q 265 278 281 278 q 248 297 248 278 q 249 307 248 302 q 249 317 249 312 q 243 326 249 325 q 229 321 237 327 q 136 254 161 273 q 97 215 111 235 q 82 174 82 195 q 108 109 82 134 q 175 83 134 83 q 278 116 218 83 q 419 212 338 149 z "},"d":{"ha":579,"x_min":4,"x_max":664,"o":"m 321 212 q 214 97 261 144 q 137 26 167 50 q 97 3 108 3 q 57 31 79 3 q 20 104 35 60 q 4 193 4 148 q 68 326 4 259 q 213 437 132 393 q 335 481 294 481 q 400 439 368 481 q 499 633 452 548 q 578 759 547 718 q 624 800 610 800 q 651 786 639 800 q 664 753 664 771 q 612 632 664 718 q 511 465 561 546 q 425 304 460 383 q 389 158 389 225 q 428 97 389 97 q 488 124 452 97 q 590 214 524 151 l 590 164 q 364 -25 444 -25 q 318 -1 332 -25 q 304 72 304 24 q 321 212 304 137 m 371 378 q 229 312 311 357 q 131 250 148 267 q 104 199 116 237 q 93 143 93 162 q 100 124 93 132 q 117 117 106 117 q 138 125 126 117 q 177 157 151 133 q 212 187 204 180 q 263 231 224 197 q 321 283 303 264 q 353 326 340 302 q 371 378 366 349 z "},"e":{"ha":406,"x_min":5,"x_max":416,"o":"m 119 189 l 119 172 q 139 110 119 132 q 191 87 159 87 q 259 103 224 87 q 330 144 295 119 q 416 214 366 170 l 416 172 q 273 31 340 80 q 136 -18 205 -18 q 41 28 76 -18 q 5 157 5 75 q 39 286 5 228 q 147 408 72 344 q 250 475 199 452 q 340 497 300 497 q 391 483 372 497 q 410 439 410 468 q 378 354 410 396 q 280 270 346 311 q 119 189 215 228 m 126 233 q 231 292 187 257 q 295 360 274 328 q 315 407 315 392 q 301 422 315 422 q 261 407 289 422 q 206 366 234 391 q 155 307 178 341 q 126 233 133 273 z "},"f":{"ha":376,"x_min":-52,"x_max":429,"o":"m 389 214 l 389 167 q 327 108 348 126 q 269 71 306 90 q 263 -35 269 9 q 236 -126 257 -78 q 171 -231 215 -174 q 85 -317 127 -287 q 20 -347 43 -347 q -29 -304 -7 -347 q -52 -196 -52 -260 q -31 -66 -52 -134 q 35 111 -9 3 q 1 197 1 155 q 19 250 1 232 q 69 283 37 269 q 114 347 93 321 q 172 416 136 373 q 338 755 243 590 q 376 818 364 802 q 400 833 387 833 q 420 817 412 833 q 429 772 429 800 q 422 711 429 739 q 402 655 415 684 q 365 588 389 627 q 336 539 342 549 q 260 407 302 479 q 192 292 217 334 q 157 229 168 250 q 215 174 193 197 q 252 119 236 151 q 294 140 275 128 q 338 174 313 153 q 389 214 364 195 m 186 32 l 184 46 q 154 45 165 44 q 127 51 142 46 q 103 60 112 56 q 85 68 95 64 q 33 -142 33 -58 q 46 -212 33 -183 q 75 -241 58 -241 q 120 -210 93 -241 q 166 -118 146 -179 q 186 32 186 -57 z "},"g":{"ha":534,"x_min":4,"x_max":550,"o":"m 550 168 l 325 -17 q 152 -262 230 -181 q 36 -343 74 -343 q 16 -318 16 -343 q 65 -193 16 -269 q 110 -135 85 -163 q 158 -86 136 -106 q 218 -34 181 -65 q 269 8 256 -3 q 367 220 337 146 q 256 109 303 152 q 169 42 208 65 q 97 18 129 18 q 33 74 62 18 q 4 187 4 129 q 17 244 4 214 q 56 308 29 274 q 124 377 83 342 q 221 447 165 413 q 385 513 326 513 q 428 481 428 513 q 334 395 428 437 q 219 328 276 370 q 128 240 163 287 q 93 157 93 194 q 102 127 93 138 q 125 117 111 117 q 179 138 149 117 q 269 215 210 160 q 341 296 296 240 q 416 381 387 352 q 469 411 446 411 q 491 402 483 411 q 500 378 500 394 q 475 287 500 347 q 386 93 450 228 l 550 212 l 550 168 z "},"h":{"ha":507,"x_min":0,"x_max":553,"o":"m 518 214 l 518 171 q 416 72 459 111 q 341 14 373 34 q 286 -5 309 -5 q 233 57 233 -5 q 266 173 233 107 q 361 329 299 239 q 303 290 330 312 q 255 244 276 268 q 220 203 234 220 q 135 101 176 153 q 80 34 94 50 q 53 18 66 18 q 0 149 0 18 q 13 243 0 191 q 82 379 26 294 q 285 670 201 557 q 425 841 370 783 q 500 897 481 899 q 538 888 524 895 q 553 871 553 880 q 529 815 553 854 q 449 693 506 776 q 361 570 387 606 q 284 469 336 534 q 191 352 233 404 q 94 241 149 301 l 94 160 q 252 326 185 261 q 364 423 318 390 q 432 456 410 456 q 470 432 452 456 q 488 392 488 408 q 481 375 488 385 q 403 278 432 317 q 359 210 374 240 q 343 158 343 180 q 374 126 343 126 q 518 214 406 126 z "},"i":{"ha":318,"x_min":5,"x_max":376,"o":"m 289 517 q 257 530 272 517 q 241 562 241 543 q 270 629 241 592 q 329 665 298 665 q 363 653 349 665 q 376 616 376 640 q 349 552 376 587 q 289 517 321 517 m 335 214 l 335 164 q 212 36 269 79 q 115 -7 155 -7 q 33 52 60 -7 q 5 179 5 110 q 11 230 5 205 q 24 269 16 254 q 52 318 31 285 q 228 468 148 468 q 269 436 269 468 q 242 368 269 414 q 195 302 216 322 q 118 223 136 245 q 100 172 100 201 q 118 132 100 148 q 165 115 136 115 q 236 139 197 115 q 335 214 274 162 z "},"j":{"ha":390,"x_min":-49,"x_max":486,"o":"m 486 686 q 471 629 486 666 q 440 564 454 580 q 400 547 427 547 q 342 586 342 547 q 378 673 342 616 q 408 711 397 704 q 446 718 420 718 q 486 686 486 718 m 52 335 l 71 389 l 196 446 q 358 498 308 498 q 397 463 397 498 q 387 421 397 450 q 352 338 376 392 q 294 217 327 285 q 227 77 262 149 q 316 141 277 111 q 406 215 354 170 l 407 167 q 165 -57 277 54 q 47 -254 98 -188 q -31 -321 -5 -321 q -49 -285 -49 -321 q -29 -196 -49 -241 q 31 -103 -9 -152 q 127 -3 72 -54 q 249 244 214 167 q 285 345 285 321 q 271 359 285 359 q 170 316 263 359 q 53 272 76 272 q 39 288 39 272 q 52 335 39 298 z "},"k":{"ha":507,"x_min":-5,"x_max":538,"o":"m 522 214 l 522 168 q 395 34 446 79 q 309 -12 343 -12 q 249 7 275 -12 q 200 62 222 27 q 150 158 179 96 q 87 78 115 115 q 49 29 60 41 q 29 17 38 17 q 3 40 11 17 q -5 109 -5 64 q 9 226 -5 170 q 51 336 24 283 q 122 452 79 390 q 218 582 165 514 q 346 735 292 675 q 439 824 399 794 q 505 854 479 854 q 538 825 538 854 q 418 645 538 800 q 68 220 298 489 l 68 161 q 316 406 222 326 q 461 486 410 486 q 494 461 482 486 q 505 404 505 437 q 448 281 505 338 q 273 151 391 224 q 309 107 294 121 q 349 93 325 93 q 394 107 370 93 q 444 143 418 121 q 522 214 469 165 m 254 179 q 318 232 280 196 q 384 306 357 267 q 411 370 411 344 q 401 380 411 380 q 313 331 376 380 q 191 204 250 281 q 254 179 216 204 z "},"l":{"ha":318,"x_min":1,"x_max":399,"o":"m 335 221 l 335 171 q 104 -17 193 -17 q 29 36 56 -17 q 1 174 1 88 q 34 338 1 243 q 121 531 66 433 q 234 702 176 629 q 343 804 293 775 q 375 817 363 817 q 394 804 389 817 q 399 761 399 791 q 322 529 399 667 q 109 249 245 392 q 102 195 102 214 q 120 124 102 151 q 172 97 139 97 q 209 110 189 97 q 250 143 229 123 q 335 221 272 163 m 132 343 q 200 422 168 378 q 262 516 233 466 q 308 606 292 566 q 325 667 325 646 q 314 682 325 682 q 298 675 310 682 q 205 542 257 641 q 132 343 154 444 z "},"m":{"ha":766,"x_min":0,"x_max":782,"o":"m 321 121 q 481 265 414 203 q 587 361 549 326 q 654 421 625 397 q 692 446 684 446 q 722 413 707 446 q 736 361 736 380 q 693 300 736 348 q 628 224 650 252 q 607 164 607 195 q 619 135 607 146 q 648 123 631 123 q 695 144 668 123 q 782 216 723 164 l 782 168 q 675 72 723 113 q 591 12 627 32 q 532 -8 555 -8 q 496 8 511 -8 q 482 47 482 24 q 490 94 482 71 q 515 151 498 118 q 560 229 532 183 q 611 313 588 275 q 488 204 542 256 q 401 113 435 152 q 347 52 367 74 q 277 9 309 9 q 241 60 241 9 q 268 133 241 80 q 343 267 294 185 q 347 283 347 272 q 334 297 347 297 q 291 269 319 297 q 182 151 262 241 q 131 86 159 126 q 91 32 103 45 q 66 18 79 18 q 21 62 42 18 q 0 163 0 105 q 14 235 0 205 q 57 311 28 266 q 131 405 102 377 q 192 433 160 433 q 225 426 212 433 q 239 404 239 418 q 214 357 239 390 q 151 290 189 325 q 113 242 131 271 q 94 200 94 213 q 109 182 94 182 q 167 229 120 182 q 270 333 214 277 q 373 426 326 389 q 454 463 421 463 q 488 447 475 463 q 501 410 501 432 q 481 356 501 395 q 421 259 460 317 q 321 121 382 202 z "},"n":{"ha":507,"x_min":4,"x_max":522,"o":"m 468 336 q 349 151 349 203 q 372 122 349 122 q 424 143 392 122 q 522 216 455 163 l 522 170 q 374 33 426 75 q 290 -9 323 -9 q 235 64 235 -9 q 241 106 235 85 q 260 150 248 127 q 296 215 272 173 q 353 311 321 258 q 256 233 314 292 q 191 164 218 197 q 135 91 165 131 q 91 36 104 50 q 62 22 77 22 q 22 68 41 22 q 4 174 4 113 q 13 232 4 211 q 46 292 21 253 q 127 397 93 363 q 192 431 161 431 q 227 423 214 431 q 240 400 240 416 q 236 386 240 393 q 227 372 232 378 q 205 349 222 366 q 98 195 98 230 q 111 175 98 175 q 143 201 119 175 q 203 270 166 227 q 291 358 240 312 q 406 447 341 404 q 465 472 441 472 q 487 442 476 472 q 497 382 497 412 q 468 336 497 367 z "},"o":{"ha":435,"x_min":4,"x_max":447,"o":"m 447 215 l 447 170 q 375 115 402 129 q 297 104 348 102 q 142 0 209 0 q 73 25 104 0 q 23 94 41 50 q 4 191 4 137 q 33 287 4 234 q 107 386 62 340 q 205 459 153 431 q 302 488 258 488 q 353 478 334 488 q 371 450 371 468 q 355 419 371 437 q 391 401 381 414 q 400 355 400 389 q 385 273 400 323 q 343 180 370 224 l 355 168 l 366 168 q 388 174 377 168 q 408 186 399 180 q 447 215 417 193 m 307 393 q 211 332 251 359 q 143 276 171 304 q 106 220 115 248 q 89 138 89 144 q 151 93 89 93 q 249 143 180 93 q 237 204 237 175 q 255 291 237 247 q 307 393 273 336 z "},"p":{"ha":564,"x_min":-92,"x_max":579,"o":"m 3 157 l 3 204 q 166 398 98 307 q 275 543 235 489 q 346 618 315 596 q 422 640 376 640 q 446 623 446 640 q 427 581 446 608 q 379 524 408 553 q 303 428 340 486 q 220 282 267 371 q 304 350 256 311 q 382 411 352 389 q 442 446 412 433 q 501 458 471 458 q 526 452 520 458 q 532 425 532 445 q 507 325 532 374 q 435 222 481 275 q 319 107 388 170 q 368 98 343 98 q 579 218 447 98 l 579 170 q 478 83 528 123 q 386 18 429 42 q 306 -7 342 -7 q 277 -4 292 -7 q 249 4 262 -1 q 216 16 236 8 q 184 28 195 24 q 160 22 163 22 q 104 41 136 22 q 55 -71 82 -2 q 10 -180 28 -140 q -39 -258 -8 -221 q -62 -275 -56 -275 q -92 -224 -92 -275 q -74 -131 -92 -179 q -30 -39 -56 -82 q 28 49 -3 5 q 72 115 59 94 q 239 429 179 300 q 3 157 83 239 m 278 123 q 378 243 345 194 q 411 319 411 293 q 386 345 411 345 q 291 289 352 345 q 164 138 229 233 q 231 141 214 143 q 278 123 248 140 z "},"q":{"ha":521,"x_min":3,"x_max":534,"o":"m 505 460 q 496 428 505 441 q 506 411 499 422 q 516 393 512 400 q 519 378 519 385 q 503 341 519 368 q 445 251 487 313 q 361 126 402 188 l 393 106 q 534 218 475 157 l 534 170 q 425 53 481 104 q 431 17 431 24 q 366 -138 431 -51 q 220 -291 302 -224 q 107 -357 139 -357 q 57 -268 57 -357 q 96 -174 57 -241 q 208 -4 136 -106 q 390 250 279 98 q 223 88 257 120 q 158 34 190 56 q 100 11 125 11 q 52 40 74 11 q 16 109 29 69 q 3 179 3 149 q 11 237 3 214 q 45 290 20 260 q 178 410 100 360 q 333 485 256 460 q 467 509 410 509 q 505 460 505 509 m 103 125 q 173 148 132 125 q 264 215 215 171 q 368 314 323 269 q 435 386 412 359 q 457 418 457 414 q 452 424 457 424 q 362 395 430 424 q 224 322 294 366 q 117 236 153 279 q 92 187 102 219 q 82 144 82 155 q 103 125 82 125 m 301 36 q 204 -126 252 -35 q 157 -231 157 -216 q 166 -239 157 -240 q 197 -228 176 -237 q 298 -135 241 -208 q 349 -51 337 -84 q 366 24 361 -18 q 301 36 325 17 z "},"r":{"ha":406,"x_min":4,"x_max":419,"o":"m 4 161 l 4 205 q 60 279 41 249 q 28 298 38 287 q 18 330 18 309 q 39 392 18 355 q 89 462 59 429 q 143 504 119 494 q 161 509 153 509 q 175 496 175 509 q 154 449 175 484 q 330 471 294 471 q 350 468 345 471 q 369 439 361 462 q 376 395 376 417 q 364 364 376 380 q 321 315 351 347 q 260 231 285 277 q 236 163 236 186 q 275 131 236 131 q 419 215 317 131 l 419 170 q 326 77 363 111 q 258 23 290 43 q 203 3 227 3 q 155 29 174 3 q 136 104 136 55 q 151 171 136 134 q 195 252 166 208 q 260 339 224 296 q 217 331 241 335 q 167 321 193 326 q 126 314 140 317 q 4 161 84 230 z "},"s":{"ha":433,"x_min":8,"x_max":447,"o":"m 8 195 l 8 211 q 249 469 183 395 q 321 553 264 553 q 351 545 335 553 l 355 532 q 353 509 353 524 q 362 461 353 496 q 378 402 372 426 q 383 349 383 378 q 363 263 383 304 q 304 184 342 222 q 204 107 265 146 q 243 103 229 103 q 303 117 271 103 q 369 154 335 131 q 447 215 402 178 l 447 170 q 292 41 360 85 q 174 -3 223 -3 q 56 52 110 -3 q 16 114 24 84 q 8 195 8 144 m 261 298 l 249 397 q 69 215 207 350 q 125 191 110 206 q 167 134 140 176 q 238 185 213 153 q 262 275 262 218 q 262 288 262 282 q 261 298 262 293 z "},"t":{"ha":347,"x_min":4,"x_max":447,"o":"m 249 566 l 278 566 q 343 657 314 630 q 410 684 372 684 q 447 667 447 684 q 418 623 447 659 q 374 562 389 587 q 415 557 397 559 q 443 554 433 555 q 346 407 404 482 q 314 409 327 408 q 288 411 301 410 q 256 414 275 412 q 194 308 219 355 q 156 223 170 262 q 143 150 143 184 q 180 103 143 103 q 248 131 206 103 q 359 215 290 158 l 359 170 q 89 -29 176 -29 q 40 -5 58 -29 q 21 56 21 18 q 32 115 21 81 q 69 220 42 150 q 51 204 60 212 q 36 190 43 196 q 20 176 28 183 q 4 161 12 169 l 4 208 q 176 418 75 268 q 157 419 166 418 q 136 419 149 419 q 77 414 96 419 q 61 409 68 412 q 52 407 54 407 q 49 411 49 407 q 77 478 49 433 q 119 534 99 516 q 168 559 139 553 q 249 566 197 566 z "},"u":{"ha":534,"x_min":4,"x_max":551,"o":"m 330 260 q 181 75 232 130 q 97 20 130 20 q 50 41 71 20 q 16 99 28 62 q 4 176 4 135 q 9 225 4 203 q 28 273 14 247 q 66 330 43 299 q 123 399 90 360 q 158 439 144 422 q 185 461 172 455 q 228 467 198 467 q 269 461 250 467 q 289 449 289 455 q 269 405 289 437 q 204 327 249 373 q 102 237 160 281 q 89 176 89 197 q 111 147 89 147 q 138 161 119 147 q 202 215 157 175 q 283 285 248 254 q 345 354 310 308 q 401 422 380 399 q 470 491 452 475 q 505 507 488 507 q 527 497 522 507 q 533 456 533 487 q 530 433 533 441 q 519 410 528 424 q 485 359 511 396 q 424 271 459 321 q 391 211 405 243 q 376 163 376 179 q 404 127 376 127 q 458 146 427 127 q 551 215 488 165 l 551 170 q 434 63 472 96 q 368 13 396 30 q 315 -4 340 -4 q 258 64 258 -4 q 275 133 258 90 q 330 260 292 177 z "},"v":{"ha":449,"x_min":0,"x_max":461,"o":"m 100 212 l 87 155 q 85 131 85 144 q 115 94 85 94 q 257 208 144 94 q 290 310 258 252 q 361 411 322 368 q 419 454 400 454 q 449 415 449 454 q 437 357 449 391 q 404 283 426 323 q 349 201 381 243 q 383 171 366 171 q 416 181 398 171 q 461 214 434 192 l 461 168 q 401 127 423 138 q 345 117 379 117 q 296 135 331 117 q 183 25 227 62 q 113 -11 140 -11 q 33 45 66 -11 q 0 168 0 101 q 102 385 0 258 q 151 436 132 422 q 193 450 170 450 q 232 443 214 450 q 250 425 250 435 q 205 326 250 391 q 100 212 159 260 z "},"w":{"ha":681,"x_min":0,"x_max":694,"o":"m 366 134 q 389 103 366 103 q 493 204 418 103 q 490 229 490 223 q 519 319 490 266 q 587 411 549 372 q 644 450 625 450 q 668 393 668 450 q 648 301 668 347 q 590 208 628 256 q 604 196 596 202 q 620 185 611 189 q 637 180 628 180 q 694 216 660 180 l 694 168 q 602 113 641 113 q 565 118 578 113 q 532 139 552 124 q 342 -11 407 -11 q 302 8 317 -11 q 288 60 288 26 q 301 182 288 76 q 239 110 275 151 q 182 46 204 68 q 142 12 161 24 q 104 0 123 0 q 61 23 86 0 q 18 84 35 46 q 0 167 0 123 q 12 240 0 210 q 68 332 24 271 q 138 420 107 386 q 193 474 168 455 q 233 493 218 493 q 258 489 243 493 q 285 477 273 484 q 297 461 297 469 q 274 396 297 435 q 207 308 252 357 q 104 208 162 259 q 89 132 89 161 q 95 114 89 123 q 109 106 100 106 q 215 193 136 106 q 424 456 294 279 q 444 463 429 463 q 475 455 461 463 q 489 435 489 448 q 453 355 489 427 q 392 223 418 283 q 366 134 366 163 z "},"x":{"ha":406,"x_min":-12,"x_max":433,"o":"m 144 214 l 144 374 q 97 352 119 368 q 48 313 74 336 q 17 290 23 290 q 9 310 9 290 q 50 379 9 330 q 139 472 90 429 q 210 514 188 514 q 232 499 222 514 q 241 458 241 484 q 241 427 241 441 q 239 389 240 413 q 237 321 239 366 q 415 481 387 481 q 428 474 423 481 q 433 458 433 468 q 397 390 433 436 q 349 343 361 343 q 322 349 332 343 l 236 239 q 247 150 237 179 q 279 121 256 121 q 327 141 300 121 q 415 216 354 161 l 415 170 q 218 -22 276 -22 q 167 16 182 -22 q 147 132 152 54 q 92 73 123 108 q 45 24 60 39 q 19 0 31 9 q -3 -9 7 -9 q -12 7 -12 -9 q 17 81 -12 34 q 58 129 45 129 q 64 127 60 129 q 69 126 69 126 l 144 214 z "},"y":{"ha":521,"x_min":3,"x_max":534,"o":"m 323 187 l 203 85 q 87 9 117 9 q 32 70 61 9 q 3 176 3 131 q 15 242 3 215 q 56 311 26 269 q 135 409 97 369 q 202 471 173 449 q 243 493 231 493 q 278 474 261 493 q 296 435 296 455 q 277 393 296 422 q 218 321 258 365 q 106 216 178 277 l 93 179 q 87 160 87 168 q 106 142 87 142 q 195 190 125 142 q 347 319 265 238 q 400 376 379 351 q 438 421 421 400 q 466 454 455 443 q 486 465 477 465 q 513 451 503 467 q 522 403 522 435 q 506 357 522 385 q 445 263 490 330 q 356 126 400 197 q 265 -33 311 56 q 307 7 267 -31 q 391 88 347 46 q 463 156 435 130 q 534 215 492 181 l 534 170 q 369 -17 443 71 q 254 -158 294 -105 q 207 -220 214 -211 q 174 -264 189 -243 q 150 -296 159 -285 q 134 -307 140 -307 q 108 -279 119 -307 q 97 -229 97 -251 q 104 -195 97 -210 q 323 187 153 -85 z "},"z":{"ha":419,"x_min":-87,"x_max":432,"o":"m 3 154 l 3 204 q 79 314 40 243 q 41 345 41 319 q 67 399 41 366 q 126 458 92 432 q 180 485 161 485 q 203 467 203 485 q 199 457 203 459 q 193 446 193 454 q 204 439 193 439 q 289 453 238 439 q 359 467 340 467 q 380 437 375 467 q 395 350 395 360 q 386 332 395 340 q 339 298 378 323 q 267 250 300 273 q 180 184 233 227 q 234 146 217 168 q 262 82 250 125 l 432 215 l 432 170 l 261 32 q 216 -100 254 -33 q 127 -221 178 -168 q 26 -309 76 -275 q -47 -343 -24 -343 q -79 -329 -70 -343 q -87 -286 -87 -314 q -70 -210 -87 -246 q -20 -139 -53 -174 q 59 -66 13 -103 q 183 24 106 -29 q 158 84 176 72 q 104 107 140 96 q 68 143 68 119 q 322 346 68 170 q 227 328 281 338 q 122 314 172 318 q 56 218 87 259 q 3 154 25 176 m 176 -40 q 82 -116 127 -74 q 4 -197 37 -159 q -29 -243 -29 -235 q -16 -258 -29 -258 q 47 -231 9 -258 q 123 -154 86 -204 q 176 -40 159 -103 z "},"{":{"ha":579,"x_min":147,"x_max":541,"o":"m 541 -389 l 503 -389 q 437 -387 458 -389 q 390 -372 416 -385 q 333 -326 355 -357 q 299 -249 310 -295 q 289 -142 289 -202 q 284 62 289 -1 q 249 164 279 124 q 147 207 218 204 l 147 318 q 249 361 218 321 q 284 464 279 401 q 289 668 289 527 q 299 774 289 728 q 332 851 310 821 q 390 897 355 881 q 427 910 408 906 q 463 915 446 914 q 503 916 479 916 l 541 916 l 541 808 l 519 808 q 447 798 471 808 q 413 758 422 787 q 403 668 403 729 l 403 570 q 391 425 403 483 q 349 327 379 366 q 260 262 318 287 q 346 201 315 237 q 390 107 376 165 q 403 -43 403 50 l 403 -143 q 413 -233 403 -204 q 447 -272 422 -262 q 519 -282 471 -282 l 541 -282 l 541 -389 z "},"|":{"ha":753,"x_min":359,"x_max":468,"o":"m 359 -349 l 359 936 l 468 936 l 468 -349 l 359 -349 z "},"}":{"ha":579,"x_min":114,"x_max":507,"o":"m 114 916 l 151 916 q 215 912 189 916 q 264 897 241 909 q 322 851 300 882 q 355 774 345 821 q 366 668 366 728 q 371 465 366 528 q 406 361 376 401 q 507 318 435 320 l 507 207 q 406 164 435 205 q 371 60 376 123 q 366 -142 366 -3 q 355 -249 366 -202 q 321 -326 345 -295 q 264 -372 298 -357 q 214 -386 239 -384 q 151 -389 189 -389 l 114 -389 l 114 -282 l 135 -282 q 208 -272 184 -282 q 242 -233 232 -262 q 252 -143 252 -203 l 252 -43 q 281 158 252 89 q 393 262 310 228 q 326 306 353 282 q 282 365 299 330 q 259 449 266 400 q 252 570 252 498 l 252 668 q 242 758 252 728 q 208 798 232 787 q 135 808 184 808 l 114 808 l 114 916 z "},"~":{"ha":926,"x_min":118,"x_max":857,"o":"m 157 317 l 118 317 q 173 482 124 428 q 293 536 222 536 q 393 519 340 536 q 520 470 447 502 q 630 424 594 437 q 696 411 667 411 q 779 444 747 411 q 818 536 812 476 l 857 536 q 802 375 853 432 q 676 318 751 318 q 586 333 633 318 q 469 378 538 349 q 356 423 400 408 q 275 439 312 439 q 157 317 178 439 z "},"":{"ha":882,"x_min":-85,"x_max":1211,"o":"m 604 279 q 485 277 523 277 q 323 279 427 277 q 271 223 302 256 q 212 164 239 191 q 164 117 184 136 q 131 85 144 98 q 33 -11 56 12 q -15 -51 10 -33 q -61 -69 -40 -69 q -85 -47 -85 -69 q -51 26 -85 -24 q 26 113 -17 75 q 96 151 68 151 q 117 144 103 151 l 245 282 q 182 287 221 286 q 129 292 142 288 q 115 315 115 297 q 178 407 115 345 q 241 451 212 441 q 355 461 271 460 q 285 445 306 454 q 262 418 264 436 q 299 418 282 418 q 342 418 315 418 q 382 419 369 418 q 584 608 493 528 q 775 761 675 688 q 990 893 876 833 q 1013 832 1013 864 q 995 771 1013 806 q 922 641 978 736 q 808 439 866 546 q 840 438 827 439 q 867 437 852 438 q 914 436 905 437 q 922 422 922 435 q 912 403 922 417 q 875 357 901 389 q 823 292 848 325 l 724 283 q 644 115 644 134 q 673 87 644 87 q 791 147 688 87 l 786 111 q 700 45 730 69 q 646 5 669 21 q 605 -19 623 -11 q 567 -26 586 -26 q 523 -6 545 -26 q 501 53 501 15 q 513 97 501 68 q 537 153 524 126 q 604 279 551 179 m 476 433 l 696 437 q 759 544 734 503 q 811 632 783 585 q 861 713 840 680 q 907 789 882 747 q 807 721 858 758 q 692 631 756 684 q 579 533 629 578 q 476 433 530 488 m 916 1036 q 890 1046 900 1036 q 880 1072 880 1056 q 896 1115 880 1084 q 936 1172 912 1147 q 983 1197 959 1197 q 1011 1187 1000 1197 q 1021 1160 1021 1177 q 984 1083 1021 1131 q 916 1036 947 1036 m 1109 1036 q 1084 1044 1095 1036 q 1073 1066 1073 1053 q 1090 1113 1073 1081 q 1132 1171 1107 1145 q 1177 1197 1156 1197 q 1201 1188 1191 1197 q 1211 1164 1211 1179 q 1177 1084 1211 1133 q 1109 1036 1143 1036 z "},"":{"ha":882,"x_min":-85,"x_max":1138,"o":"m 604 279 q 485 277 523 277 q 323 279 427 277 q 271 223 302 256 q 212 164 239 191 q 164 117 184 136 q 131 85 144 98 q 33 -11 56 12 q -15 -51 10 -33 q -61 -69 -40 -69 q -85 -47 -85 -69 q -51 26 -85 -24 q 26 113 -17 75 q 96 151 68 151 q 117 144 103 151 l 245 282 q 182 287 221 286 q 129 292 142 288 q 115 315 115 297 q 178 407 115 345 q 241 451 212 441 q 355 461 271 460 q 285 445 306 454 q 262 418 264 436 q 299 418 282 418 q 342 418 315 418 q 382 419 369 418 q 584 608 493 528 q 775 761 675 688 q 990 893 876 833 q 1013 832 1013 864 q 995 771 1013 806 q 922 641 978 736 q 808 439 866 546 q 840 438 827 439 q 867 437 852 438 q 914 436 905 437 q 922 422 922 435 q 912 403 922 417 q 875 357 901 389 q 823 292 848 325 l 724 283 q 644 115 644 134 q 673 87 644 87 q 791 147 688 87 l 786 111 q 700 45 730 69 q 646 5 669 21 q 605 -19 623 -11 q 567 -26 586 -26 q 523 -6 545 -26 q 501 53 501 15 q 513 97 501 68 q 537 153 524 126 q 604 279 551 179 m 476 433 l 696 437 q 759 544 734 503 q 811 632 783 585 q 861 713 840 680 q 907 789 882 747 q 807 721 858 758 q 692 631 756 684 q 579 533 629 578 q 476 433 530 488 m 1008 1002 q 937 1031 966 1002 q 909 1101 909 1061 q 926 1163 909 1132 q 974 1214 943 1194 q 1040 1234 1004 1234 q 1111 1207 1084 1234 q 1138 1135 1138 1180 q 1119 1072 1138 1103 q 1070 1022 1100 1041 q 1008 1002 1040 1002 m 1015 1044 q 1050 1058 1031 1044 q 1082 1090 1069 1071 q 1095 1127 1095 1109 q 1083 1161 1095 1148 q 1052 1173 1072 1173 q 1014 1160 1034 1173 q 983 1126 995 1147 q 972 1090 972 1106 q 984 1057 972 1070 q 1015 1044 996 1044 z "},"":{"ha":839,"x_min":53,"x_max":922,"o":"m 856 216 l 856 172 q 647 -37 742 45 q 460 -164 551 -119 q 285 -208 370 -208 q 159 -179 212 -208 q 80 -94 106 -150 q 53 39 53 -38 q 72 166 53 99 q 128 303 92 234 q 218 445 165 372 q 343 599 271 518 q 490 743 418 682 q 622 838 563 804 q 731 890 681 873 q 815 907 782 907 q 873 890 849 907 q 909 843 897 874 q 922 771 922 812 q 870 601 922 694 q 740 419 818 507 q 591 276 662 332 q 489 221 520 221 q 450 238 468 221 q 432 275 432 254 q 473 369 432 314 q 563 470 514 424 q 621 515 611 515 q 625 511 625 515 q 618 490 625 505 q 611 472 611 475 q 615 467 611 467 q 682 528 627 467 q 782 664 736 590 q 828 786 828 739 q 820 816 828 806 q 794 827 811 827 q 650 750 747 827 q 452 554 553 673 q 283 308 351 435 q 215 85 215 181 q 232 -8 215 29 q 280 -66 248 -45 q 358 -86 313 -86 q 581 -9 456 -86 q 856 216 706 67 m 231 -253 q 286 -271 265 -253 q 307 -321 307 -288 q 278 -396 307 -362 q 203 -449 249 -429 q 110 -469 157 -469 q 68 -452 68 -469 q 74 -438 68 -441 q 98 -432 81 -435 q 174 -401 142 -425 q 207 -349 207 -378 q 199 -328 207 -336 q 180 -321 191 -321 q 171 -322 179 -321 q 161 -323 163 -323 q 144 -306 144 -323 q 173 -270 144 -288 q 231 -253 201 -253 z "},"":{"ha":854,"x_min":46,"x_max":931,"o":"m 904 854 l 904 808 q 893 772 904 780 q 811 732 882 765 q 675 656 740 700 q 721 710 700 692 q 777 754 741 728 q 692 766 746 766 q 510 733 608 766 q 345 654 413 700 q 277 576 277 608 q 297 550 277 560 q 364 533 318 539 q 478 526 410 528 q 647 524 547 524 q 741 518 720 524 q 762 493 762 513 q 738 436 762 468 q 672 397 713 404 q 572 380 609 387 q 483 356 534 373 q 370 307 432 339 q 224 208 277 258 q 172 119 172 158 q 210 67 172 86 q 317 49 247 49 q 807 265 557 49 q 792 148 808 199 q 728 52 777 98 q 609 -22 687 13 q 438 -79 530 -58 q 264 -100 345 -100 q 108 -55 170 -100 q 46 65 46 -9 q 76 173 46 119 q 168 276 106 227 q 324 365 229 325 q 542 428 418 405 q 559 439 559 431 q 539 449 559 447 q 463 451 518 450 q 366 456 408 452 q 277 473 323 460 q 202 526 229 488 q 176 608 176 563 q 218 726 176 667 q 337 832 260 785 q 523 908 414 880 q 761 937 631 937 q 865 929 836 937 q 899 906 895 920 q 904 854 904 892 m 731 1006 q 710 1014 720 1006 q 701 1031 701 1022 q 771 1160 701 1057 q 822 1216 802 1202 q 881 1230 843 1230 q 931 1196 931 1230 q 887 1131 931 1176 q 794 1046 844 1085 q 731 1006 744 1006 z "},"":{"ha":796,"x_min":-71,"x_max":920,"o":"m 149 262 q 330 575 270 461 q 390 721 390 690 q 382 740 390 732 q 363 747 374 747 q 244 707 342 747 q 126 653 163 673 q 23 595 89 633 q -52 558 -42 558 q -71 585 -71 558 q -5 720 -71 635 q 172 868 61 804 q 186 867 186 877 q 170 851 186 863 q 141 826 153 839 q 113 789 128 814 q 322 889 255 860 q 436 918 389 918 q 501 901 477 918 q 525 851 525 884 q 502 768 525 823 q 436 636 479 714 q 348 483 393 559 q 184 208 302 407 q 427 496 316 373 q 619 697 537 620 q 758 813 701 774 q 840 852 814 852 q 863 834 850 852 q 886 791 876 817 q 896 749 896 765 q 873 660 896 704 q 806 554 850 616 q 620 283 678 382 q 561 123 561 184 q 608 78 561 78 q 659 94 630 78 q 729 144 688 111 q 811 218 770 178 l 812 165 q 708 63 754 106 q 621 -11 662 21 q 547 -59 580 -43 q 490 -75 515 -75 q 434 -51 455 -75 q 412 12 412 -27 q 428 101 412 49 q 477 220 444 153 q 558 368 510 288 q 668 533 607 447 q 728 643 728 618 q 713 657 728 657 q 437 416 652 657 q 390 361 424 401 q 322 275 357 321 q 243 173 287 230 q 155 58 200 117 q 119 31 134 31 q 77 57 103 31 q 50 96 50 83 q 88 167 50 110 q 149 262 125 224 m 629 1097 q 594 1088 608 1097 q 560 1065 580 1080 q 514 1042 530 1042 q 495 1062 495 1042 q 517 1114 495 1082 q 580 1167 540 1145 q 673 1190 621 1190 q 727 1182 704 1190 q 778 1158 749 1173 q 819 1143 806 1143 q 865 1161 841 1143 q 899 1176 884 1176 q 920 1144 920 1176 q 904 1102 920 1129 q 858 1056 888 1076 q 793 1037 829 1037 q 741 1052 771 1037 q 682 1082 711 1067 q 629 1097 652 1097 z "},"":{"ha":796,"x_min":54,"x_max":825,"o":"m 524 696 q 561 705 542 701 q 598 713 579 710 q 636 717 618 717 q 704 699 675 717 q 746 651 732 682 q 760 586 760 621 q 740 460 760 531 q 682 316 720 389 q 595 178 645 243 q 430 36 526 90 q 254 -18 334 -18 q 150 14 195 -18 q 80 107 105 46 q 54 252 54 169 q 115 474 54 363 q 268 676 176 586 q 455 822 361 767 q 608 876 549 876 q 682 847 656 876 q 730 751 708 817 q 621 736 667 749 q 524 696 574 723 m 353 558 q 257 427 305 507 q 178 269 208 347 q 149 151 149 192 q 243 50 149 50 q 413 139 309 50 q 594 353 517 228 q 671 581 671 478 q 611 656 671 656 q 498 619 565 656 q 371 515 432 583 q 285 396 349 491 q 353 558 297 460 m 530 1036 q 504 1046 514 1036 q 494 1072 494 1056 q 510 1115 494 1084 q 550 1172 526 1147 q 597 1197 573 1197 q 625 1187 614 1197 q 635 1160 635 1177 q 598 1083 635 1131 q 530 1036 561 1036 m 723 1036 q 698 1044 709 1036 q 687 1066 687 1053 q 704 1113 687 1081 q 746 1171 722 1145 q 791 1197 770 1197 q 815 1188 805 1197 q 825 1164 825 1179 q 791 1084 825 1133 q 723 1036 758 1036 z "},"":{"ha":868,"x_min":-54,"x_max":956,"o":"m 832 534 q 720 357 766 437 q 652 222 675 278 q 629 139 629 166 q 673 89 629 89 q 885 216 720 89 l 884 170 q 604 -25 693 -25 q 498 85 498 -25 q 563 271 498 151 q 760 583 627 392 q 500 304 604 414 q 285 93 396 195 q 237 47 258 68 q 193 15 215 26 q 146 3 172 3 q 79 34 106 3 q 53 122 53 65 q 75 207 53 159 q 140 320 96 256 q 249 461 184 385 q 393 638 353 587 q 433 704 433 690 q 422 714 433 714 q 379 702 410 714 q 300 664 349 690 q 172 587 250 637 q 57 528 114 551 q -22 505 1 505 q -45 513 -36 505 q -54 532 -54 520 q -40 585 -54 548 q -3 662 -26 622 q 37 721 20 701 q 171 817 86 775 q 345 880 256 858 q 493 903 435 903 q 556 888 536 903 q 576 840 576 873 q 558 728 576 768 q 497 625 540 688 q 451 558 481 601 q 388 476 420 516 q 336 408 357 435 q 294 349 316 381 q 220 237 235 262 q 204 193 204 212 q 227 170 204 170 q 266 184 247 170 q 347 253 285 199 q 487 382 419 315 q 610 512 555 450 q 751 671 666 573 q 873 810 847 782 q 917 838 900 838 q 944 813 932 838 q 956 746 956 789 q 932 685 956 723 q 832 534 909 646 m 638 1036 q 612 1046 622 1036 q 602 1072 602 1056 q 618 1115 602 1084 q 657 1172 634 1147 q 705 1197 681 1197 q 733 1187 722 1197 q 743 1160 743 1177 q 706 1083 743 1131 q 638 1036 669 1036 m 831 1036 q 806 1044 817 1036 q 795 1066 795 1053 q 812 1113 795 1081 q 853 1171 829 1145 q 899 1197 878 1197 q 923 1188 913 1197 q 932 1164 932 1179 q 899 1084 932 1133 q 831 1036 865 1036 z "},"":{"ha":564,"x_min":4,"x_max":612,"o":"m 90 335 q 290 474 193 429 q 440 519 387 519 q 467 508 454 519 q 486 480 479 496 q 493 457 493 465 q 484 439 493 445 q 450 425 474 433 q 463 397 455 414 q 474 370 470 380 q 478 351 478 359 q 445 291 478 335 q 399 225 412 246 q 386 174 386 204 q 432 123 386 123 q 581 212 479 123 l 581 171 q 335 -20 409 -20 q 297 -2 309 -20 q 286 49 286 15 q 325 204 286 102 q 178 48 226 94 q 98 1 130 1 q 61 27 83 1 q 21 94 39 53 q 4 179 4 135 q 10 232 4 211 q 34 276 16 254 q 90 335 52 298 m 415 410 q 164 273 239 329 q 89 157 89 216 q 96 121 89 135 q 117 107 104 107 q 143 117 124 107 q 273 226 214 159 q 415 410 332 294 m 412 616 q 391 624 401 616 q 382 642 382 632 q 452 770 382 667 q 504 826 483 812 q 562 840 524 840 q 612 806 612 840 q 569 741 612 786 q 475 656 525 695 q 412 616 425 616 z "},"":{"ha":564,"x_min":4,"x_max":581,"o":"m 90 335 q 290 474 193 429 q 440 519 387 519 q 467 508 454 519 q 486 480 479 496 q 493 457 493 465 q 484 439 493 445 q 450 425 474 433 q 463 397 455 414 q 474 370 470 380 q 478 351 478 359 q 445 291 478 335 q 399 225 412 246 q 386 174 386 204 q 432 123 386 123 q 581 212 479 123 l 581 171 q 335 -20 409 -20 q 297 -2 309 -20 q 286 49 286 15 q 325 204 286 102 q 178 48 226 94 q 98 1 130 1 q 61 27 83 1 q 21 94 39 53 q 4 179 4 135 q 10 232 4 211 q 34 276 16 254 q 90 335 52 298 m 415 410 q 164 273 239 329 q 89 157 89 216 q 96 121 89 135 q 117 107 104 107 q 143 117 124 107 q 273 226 214 159 q 415 410 332 294 m 456 618 q 401 661 434 618 q 337 751 361 714 q 313 810 313 789 q 357 839 313 839 q 418 815 396 839 q 464 726 439 791 q 486 648 486 669 q 477 627 486 636 q 456 618 469 618 z "},"":{"ha":564,"x_min":4,"x_max":581,"o":"m 90 335 q 290 474 193 429 q 440 519 387 519 q 467 508 454 519 q 486 480 479 496 q 493 457 493 465 q 484 439 493 445 q 450 425 474 433 q 463 397 455 414 q 474 370 470 380 q 478 351 478 359 q 445 291 478 335 q 399 225 412 246 q 386 174 386 204 q 432 123 386 123 q 581 212 479 123 l 581 171 q 335 -20 409 -20 q 297 -2 309 -20 q 286 49 286 15 q 325 204 286 102 q 178 48 226 94 q 98 1 130 1 q 61 27 83 1 q 21 94 39 53 q 4 179 4 135 q 10 232 4 211 q 34 276 16 254 q 90 335 52 298 m 415 410 q 164 273 239 329 q 89 157 89 216 q 96 121 89 135 q 117 107 104 107 q 143 117 124 107 q 273 226 214 159 q 415 410 332 294 m 433 714 q 417 704 427 714 q 398 684 408 694 q 305 615 337 615 q 275 642 275 615 q 311 706 275 656 q 390 796 347 755 q 465 836 434 836 q 515 798 496 836 q 545 712 531 764 q 558 646 558 660 q 551 626 558 635 q 533 616 544 616 q 492 638 515 616 q 447 700 469 661 q 433 714 442 714 z "},"":{"ha":564,"x_min":4,"x_max":614,"o":"m 90 335 q 290 474 193 429 q 440 519 387 519 q 467 508 454 519 q 486 480 479 496 q 493 457 493 465 q 484 439 493 445 q 450 425 474 433 q 463 397 455 414 q 474 370 470 380 q 478 351 478 359 q 445 291 478 335 q 399 225 412 246 q 386 174 386 204 q 432 123 386 123 q 581 212 479 123 l 581 171 q 335 -20 409 -20 q 297 -2 309 -20 q 286 49 286 15 q 325 204 286 102 q 178 48 226 94 q 98 1 130 1 q 61 27 83 1 q 21 94 39 53 q 4 179 4 135 q 10 232 4 211 q 34 276 16 254 q 90 335 52 298 m 415 410 q 164 273 239 329 q 89 157 89 216 q 96 121 89 135 q 117 107 104 107 q 143 117 124 107 q 273 226 214 159 q 415 410 332 294 m 319 646 q 293 656 303 646 q 283 682 283 666 q 299 725 283 694 q 339 782 315 757 q 386 807 362 807 q 414 797 404 807 q 425 770 425 787 q 387 693 425 741 q 319 646 350 646 m 512 646 q 487 654 498 646 q 476 676 476 663 q 493 723 476 691 q 535 781 511 755 q 581 807 559 807 q 604 798 594 807 q 614 774 614 789 q 580 694 614 743 q 512 646 547 646 z "},"":{"ha":564,"x_min":4,"x_max":601,"o":"m 90 335 q 290 474 193 429 q 440 519 387 519 q 467 508 454 519 q 486 480 479 496 q 493 457 493 465 q 484 439 493 445 q 450 425 474 433 q 463 397 455 414 q 474 370 470 380 q 478 351 478 359 q 445 291 478 335 q 399 225 412 246 q 386 174 386 204 q 432 123 386 123 q 581 212 479 123 l 581 171 q 335 -20 409 -20 q 297 -2 309 -20 q 286 49 286 15 q 325 204 286 102 q 178 48 226 94 q 98 1 130 1 q 61 27 83 1 q 21 94 39 53 q 4 179 4 135 q 10 232 4 211 q 34 276 16 254 q 90 335 52 298 m 415 410 q 164 273 239 329 q 89 157 89 216 q 96 121 89 135 q 117 107 104 107 q 143 117 124 107 q 273 226 214 159 q 415 410 332 294 m 311 707 q 275 699 290 707 q 241 675 261 690 q 195 652 212 652 q 176 672 176 652 q 199 724 176 692 q 261 778 221 755 q 354 800 302 800 q 408 792 385 800 q 459 768 431 783 q 500 753 488 753 q 546 771 522 753 q 581 786 565 786 q 601 754 601 786 q 585 712 601 739 q 539 666 569 686 q 475 647 510 647 q 422 662 452 647 q 363 692 393 677 q 311 707 333 707 z "},"":{"ha":564,"x_min":4,"x_max":581,"o":"m 90 335 q 290 474 193 429 q 440 519 387 519 q 467 508 454 519 q 486 480 479 496 q 493 457 493 465 q 484 439 493 445 q 450 425 474 433 q 463 397 455 414 q 474 370 470 380 q 478 351 478 359 q 445 291 478 335 q 399 225 412 246 q 386 174 386 204 q 432 123 386 123 q 581 212 479 123 l 581 171 q 335 -20 409 -20 q 297 -2 309 -20 q 286 49 286 15 q 325 204 286 102 q 178 48 226 94 q 98 1 130 1 q 61 27 83 1 q 21 94 39 53 q 4 179 4 135 q 10 232 4 211 q 34 276 16 254 q 90 335 52 298 m 415 410 q 164 273 239 329 q 89 157 89 216 q 96 121 89 135 q 117 107 104 107 q 143 117 124 107 q 273 226 214 159 q 415 410 332 294 m 411 612 q 340 642 369 612 q 312 711 312 671 q 329 773 312 742 q 377 824 347 804 q 443 844 407 844 q 514 817 487 844 q 541 745 541 790 q 522 682 541 713 q 473 632 503 651 q 411 612 443 612 m 418 654 q 454 668 435 654 q 486 700 473 681 q 498 737 498 720 q 487 771 498 758 q 455 783 475 783 q 417 770 437 783 q 387 736 398 757 q 375 700 375 716 q 387 667 375 680 q 418 654 399 654 z "},"":{"ha":406,"x_min":8,"x_max":419,"o":"m 419 216 l 419 171 q 252 22 310 65 q 146 -21 194 -21 q 46 39 84 -21 q 8 175 8 100 q 9 220 8 204 q 18 256 11 236 q 95 360 36 301 q 221 460 155 420 q 323 501 287 501 q 351 494 336 501 q 373 474 365 487 q 380 449 380 462 q 360 383 380 422 q 312 313 339 343 q 269 283 284 283 q 253 292 256 283 q 249 330 250 301 q 244 332 249 332 q 227 322 241 332 q 179 287 214 313 q 121 241 145 260 q 94 210 106 230 q 82 172 82 190 q 108 113 82 137 q 175 89 134 89 q 243 104 205 89 q 325 149 281 120 q 419 216 370 178 m 144 -77 q 187 -94 172 -77 q 203 -138 203 -111 q 168 -212 203 -176 q 90 -269 134 -247 q 26 -290 45 -290 q 15 -283 20 -290 q 9 -267 9 -276 q 45 -239 9 -254 q 118 -161 118 -201 q 111 -145 118 -153 q 96 -138 104 -138 q 83 -140 95 -138 q 68 -143 72 -143 q 57 -126 57 -143 q 86 -95 57 -113 q 144 -77 116 -77 z "},"":{"ha":406,"x_min":5,"x_max":515,"o":"m 119 189 l 119 172 q 139 110 119 132 q 191 87 159 87 q 259 103 224 87 q 330 144 295 119 q 416 214 366 170 l 416 172 q 273 31 340 80 q 136 -18 205 -18 q 41 28 76 -18 q 5 157 5 75 q 39 286 5 228 q 147 408 72 344 q 250 475 199 452 q 340 497 300 497 q 391 483 372 497 q 410 439 410 468 q 378 354 410 396 q 280 270 346 311 q 119 189 215 228 m 126 233 q 231 292 187 257 q 295 360 274 328 q 315 407 315 392 q 301 422 315 422 q 261 407 289 422 q 206 366 234 391 q 155 307 178 341 q 126 233 133 273 m 315 616 q 294 624 304 616 q 285 642 285 632 q 355 770 285 667 q 407 826 386 812 q 465 840 427 840 q 515 806 515 840 q 472 741 515 786 q 378 656 428 695 q 315 616 328 616 z "},"":{"ha":406,"x_min":5,"x_max":416,"o":"m 119 189 l 119 172 q 139 110 119 132 q 191 87 159 87 q 259 103 224 87 q 330 144 295 119 q 416 214 366 170 l 416 172 q 273 31 340 80 q 136 -18 205 -18 q 41 28 76 -18 q 5 157 5 75 q 39 286 5 228 q 147 408 72 344 q 250 475 199 452 q 340 497 300 497 q 391 483 372 497 q 410 439 410 468 q 378 354 410 396 q 280 270 346 311 q 119 189 215 228 m 126 233 q 231 292 187 257 q 295 360 274 328 q 315 407 315 392 q 301 422 315 422 q 261 407 289 422 q 206 366 234 391 q 155 307 178 341 q 126 233 133 273 m 359 618 q 304 661 337 618 q 240 751 264 714 q 216 810 216 789 q 260 839 216 839 q 321 815 299 839 q 367 726 342 791 q 389 648 389 669 q 380 627 389 636 q 359 618 372 618 z "},"":{"ha":406,"x_min":5,"x_max":461,"o":"m 119 189 l 119 172 q 139 110 119 132 q 191 87 159 87 q 259 103 224 87 q 330 144 295 119 q 416 214 366 170 l 416 172 q 273 31 340 80 q 136 -18 205 -18 q 41 28 76 -18 q 5 157 5 75 q 39 286 5 228 q 147 408 72 344 q 250 475 199 452 q 340 497 300 497 q 391 483 372 497 q 410 439 410 468 q 378 354 410 396 q 280 270 346 311 q 119 189 215 228 m 126 233 q 231 292 187 257 q 295 360 274 328 q 315 407 315 392 q 301 422 315 422 q 261 407 289 422 q 206 366 234 391 q 155 307 178 341 q 126 233 133 273 m 336 714 q 320 704 330 714 q 301 684 311 694 q 208 615 240 615 q 178 642 178 615 q 214 706 178 656 q 293 796 250 755 q 368 836 337 836 q 418 798 399 836 q 448 712 434 764 q 461 646 461 660 q 454 626 461 635 q 436 616 447 616 q 395 638 418 616 q 350 700 372 661 q 336 714 345 714 z "},"":{"ha":406,"x_min":5,"x_max":517,"o":"m 119 189 l 119 172 q 139 110 119 132 q 191 87 159 87 q 259 103 224 87 q 330 144 295 119 q 416 214 366 170 l 416 172 q 273 31 340 80 q 136 -18 205 -18 q 41 28 76 -18 q 5 157 5 75 q 39 286 5 228 q 147 408 72 344 q 250 475 199 452 q 340 497 300 497 q 391 483 372 497 q 410 439 410 468 q 378 354 410 396 q 280 270 346 311 q 119 189 215 228 m 126 233 q 231 292 187 257 q 295 360 274 328 q 315 407 315 392 q 301 422 315 422 q 261 407 289 422 q 206 366 234 391 q 155 307 178 341 q 126 233 133 273 m 222 646 q 196 656 206 646 q 186 682 186 666 q 202 725 186 694 q 242 782 218 757 q 289 807 265 807 q 317 797 307 807 q 328 770 328 787 q 290 693 328 741 q 222 646 253 646 m 415 646 q 390 654 401 646 q 379 676 379 663 q 396 723 379 691 q 438 781 414 755 q 484 807 462 807 q 507 798 497 807 q 517 774 517 789 q 483 694 517 743 q 415 646 450 646 z "},"":{"ha":318,"x_min":5,"x_max":460,"o":"m 335 214 l 335 164 q 212 36 269 79 q 115 -7 155 -7 q 33 52 60 -7 q 5 179 5 110 q 11 230 5 205 q 24 269 16 254 q 52 318 31 285 q 228 468 148 468 q 269 436 269 468 q 242 368 269 414 q 195 302 216 322 q 118 223 136 245 q 100 172 100 201 q 118 132 100 148 q 165 115 136 115 q 236 139 197 115 q 335 214 274 162 m 260 616 q 239 624 249 616 q 230 642 230 632 q 300 770 230 667 q 352 826 331 812 q 410 840 372 840 q 460 806 460 840 q 417 741 460 786 q 323 656 373 695 q 260 616 273 616 z "},"":{"ha":318,"x_min":5,"x_max":335,"o":"m 335 214 l 335 164 q 212 36 269 79 q 115 -7 155 -7 q 33 52 60 -7 q 5 179 5 110 q 11 230 5 205 q 24 269 16 254 q 52 318 31 285 q 228 468 148 468 q 269 436 269 468 q 242 368 269 414 q 195 302 216 322 q 118 223 136 245 q 100 172 100 201 q 118 132 100 148 q 165 115 136 115 q 236 139 197 115 q 335 214 274 162 m 304 618 q 250 661 282 618 q 185 751 209 714 q 161 810 161 789 q 205 839 161 839 q 266 815 244 839 q 312 726 288 791 q 334 648 334 669 q 326 627 334 636 q 304 618 317 618 z "},"":{"ha":318,"x_min":5,"x_max":406,"o":"m 335 214 l 335 164 q 212 36 269 79 q 115 -7 155 -7 q 33 52 60 -7 q 5 179 5 110 q 11 230 5 205 q 24 269 16 254 q 52 318 31 285 q 228 468 148 468 q 269 436 269 468 q 242 368 269 414 q 195 302 216 322 q 118 223 136 245 q 100 172 100 201 q 118 132 100 148 q 165 115 136 115 q 236 139 197 115 q 335 214 274 162 m 281 714 q 266 704 275 714 q 246 684 256 694 q 153 615 185 615 q 123 642 123 615 q 159 706 123 656 q 238 796 195 755 q 313 836 282 836 q 363 798 345 836 q 393 712 379 764 q 406 646 406 660 q 399 626 406 635 q 381 616 392 616 q 340 638 363 616 q 295 700 317 661 q 281 714 290 714 z "},"":{"ha":318,"x_min":5,"x_max":462,"o":"m 335 214 l 335 164 q 212 36 269 79 q 115 -7 155 -7 q 33 52 60 -7 q 5 179 5 110 q 11 230 5 205 q 24 269 16 254 q 52 318 31 285 q 228 468 148 468 q 269 436 269 468 q 242 368 269 414 q 195 302 216 322 q 118 223 136 245 q 100 172 100 201 q 118 132 100 148 q 165 115 136 115 q 236 139 197 115 q 335 214 274 162 m 168 646 q 141 656 151 646 q 131 682 131 666 q 147 725 131 694 q 187 782 163 757 q 234 807 210 807 q 262 797 252 807 q 273 770 273 787 q 235 693 273 741 q 168 646 198 646 m 360 646 q 335 654 346 646 q 324 676 324 663 q 341 723 324 691 q 383 781 359 755 q 429 807 407 807 q 452 798 442 807 q 462 774 462 789 q 428 694 462 743 q 360 646 395 646 z "},"":{"ha":507,"x_min":4,"x_max":643,"o":"m 468 336 q 349 151 349 203 q 372 122 349 122 q 424 143 392 122 q 522 216 455 163 l 522 170 q 374 33 426 75 q 290 -9 323 -9 q 235 64 235 -9 q 241 106 235 85 q 260 150 248 127 q 296 215 272 173 q 353 311 321 258 q 256 233 314 292 q 191 164 218 197 q 135 91 165 131 q 91 36 104 50 q 62 22 77 22 q 22 68 41 22 q 4 174 4 113 q 13 232 4 211 q 46 292 21 253 q 127 397 93 363 q 192 431 161 431 q 227 423 214 431 q 240 400 240 416 q 236 386 240 393 q 227 372 232 378 q 205 349 222 366 q 98 195 98 230 q 111 175 98 175 q 143 201 119 175 q 203 270 166 227 q 291 358 240 312 q 406 447 341 404 q 465 472 441 472 q 487 442 476 472 q 497 382 497 412 q 468 336 497 367 m 353 707 q 317 699 332 707 q 283 675 303 690 q 237 652 254 652 q 218 672 218 652 q 241 724 218 692 q 303 778 263 755 q 396 800 344 800 q 450 792 427 800 q 501 768 473 783 q 542 753 530 753 q 588 771 564 753 q 623 786 607 786 q 643 754 643 786 q 627 712 643 739 q 582 666 611 686 q 517 647 552 647 q 465 662 494 647 q 405 692 435 677 q 353 707 375 707 z "},"":{"ha":435,"x_min":4,"x_max":515,"o":"m 447 215 l 447 170 q 375 115 402 129 q 297 104 348 102 q 142 0 209 0 q 73 25 104 0 q 23 94 41 50 q 4 191 4 137 q 33 287 4 234 q 107 386 62 340 q 205 459 153 431 q 302 488 258 488 q 353 478 334 488 q 371 450 371 468 q 355 419 371 437 q 391 401 381 414 q 400 355 400 389 q 385 273 400 323 q 343 180 370 224 l 355 168 l 366 168 q 388 174 377 168 q 408 186 399 180 q 447 215 417 193 m 307 393 q 211 332 251 359 q 143 276 171 304 q 106 220 115 248 q 89 138 89 144 q 151 93 89 93 q 249 143 180 93 q 237 204 237 175 q 255 291 237 247 q 307 393 273 336 m 315 616 q 294 624 304 616 q 285 642 285 632 q 355 770 285 667 q 407 826 386 812 q 465 840 427 840 q 515 806 515 840 q 472 741 515 786 q 378 656 428 695 q 315 616 328 616 z "},"":{"ha":435,"x_min":4,"x_max":447,"o":"m 447 215 l 447 170 q 375 115 402 129 q 297 104 348 102 q 142 0 209 0 q 73 25 104 0 q 23 94 41 50 q 4 191 4 137 q 33 287 4 234 q 107 386 62 340 q 205 459 153 431 q 302 488 258 488 q 353 478 334 488 q 371 450 371 468 q 355 419 371 437 q 391 401 381 414 q 400 355 400 389 q 385 273 400 323 q 343 180 370 224 l 355 168 l 366 168 q 388 174 377 168 q 408 186 399 180 q 447 215 417 193 m 307 393 q 211 332 251 359 q 143 276 171 304 q 106 220 115 248 q 89 138 89 144 q 151 93 89 93 q 249 143 180 93 q 237 204 237 175 q 255 291 237 247 q 307 393 273 336 m 359 618 q 304 661 337 618 q 240 751 264 714 q 216 810 216 789 q 260 839 216 839 q 321 815 299 839 q 367 726 342 791 q 389 648 389 669 q 380 627 389 636 q 359 618 372 618 z "},"":{"ha":435,"x_min":4,"x_max":461,"o":"m 447 215 l 447 170 q 375 115 402 129 q 297 104 348 102 q 142 0 209 0 q 73 25 104 0 q 23 94 41 50 q 4 191 4 137 q 33 287 4 234 q 107 386 62 340 q 205 459 153 431 q 302 488 258 488 q 353 478 334 488 q 371 450 371 468 q 355 419 371 437 q 391 401 381 414 q 400 355 400 389 q 385 273 400 323 q 343 180 370 224 l 355 168 l 366 168 q 388 174 377 168 q 408 186 399 180 q 447 215 417 193 m 307 393 q 211 332 251 359 q 143 276 171 304 q 106 220 115 248 q 89 138 89 144 q 151 93 89 93 q 249 143 180 93 q 237 204 237 175 q 255 291 237 247 q 307 393 273 336 m 336 714 q 320 704 330 714 q 301 684 311 694 q 208 615 240 615 q 178 642 178 615 q 214 706 178 656 q 293 796 250 755 q 368 836 337 836 q 418 798 399 836 q 448 712 434 764 q 461 646 461 660 q 454 626 461 635 q 436 616 447 616 q 395 638 418 616 q 350 700 372 661 q 336 714 345 714 z "},"":{"ha":435,"x_min":4,"x_max":517,"o":"m 447 215 l 447 170 q 375 115 402 129 q 297 104 348 102 q 142 0 209 0 q 73 25 104 0 q 23 94 41 50 q 4 191 4 137 q 33 287 4 234 q 107 386 62 340 q 205 459 153 431 q 302 488 258 488 q 353 478 334 488 q 371 450 371 468 q 355 419 371 437 q 391 401 381 414 q 400 355 400 389 q 385 273 400 323 q 343 180 370 224 l 355 168 l 366 168 q 388 174 377 168 q 408 186 399 180 q 447 215 417 193 m 307 393 q 211 332 251 359 q 143 276 171 304 q 106 220 115 248 q 89 138 89 144 q 151 93 89 93 q 249 143 180 93 q 237 204 237 175 q 255 291 237 247 q 307 393 273 336 m 222 646 q 196 656 206 646 q 186 682 186 666 q 202 725 186 694 q 242 782 218 757 q 289 807 265 807 q 317 797 307 807 q 328 770 328 787 q 290 693 328 741 q 222 646 253 646 m 415 646 q 390 654 401 646 q 379 676 379 663 q 396 723 379 691 q 438 781 414 755 q 484 807 462 807 q 507 798 497 807 q 517 774 517 789 q 483 694 517 743 q 415 646 450 646 z "},"":{"ha":435,"x_min":4,"x_max":504,"o":"m 447 215 l 447 170 q 375 115 402 129 q 297 104 348 102 q 142 0 209 0 q 73 25 104 0 q 23 94 41 50 q 4 191 4 137 q 33 287 4 234 q 107 386 62 340 q 205 459 153 431 q 302 488 258 488 q 353 478 334 488 q 371 450 371 468 q 355 419 371 437 q 391 401 381 414 q 400 355 400 389 q 385 273 400 323 q 343 180 370 224 l 355 168 l 366 168 q 388 174 377 168 q 408 186 399 180 q 447 215 417 193 m 307 393 q 211 332 251 359 q 143 276 171 304 q 106 220 115 248 q 89 138 89 144 q 151 93 89 93 q 249 143 180 93 q 237 204 237 175 q 255 291 237 247 q 307 393 273 336 m 214 707 q 178 699 193 707 q 144 675 164 690 q 98 652 115 652 q 79 672 79 652 q 102 724 79 692 q 164 778 124 755 q 257 800 205 800 q 311 792 288 800 q 362 768 334 783 q 403 753 391 753 q 449 771 425 753 q 484 786 468 786 q 504 754 504 786 q 488 712 504 739 q 443 666 472 686 q 378 647 413 647 q 326 662 355 647 q 266 692 296 677 q 214 707 236 707 z "},"":{"ha":534,"x_min":4,"x_max":571,"o":"m 330 260 q 181 75 232 130 q 97 20 130 20 q 50 41 71 20 q 16 99 28 62 q 4 176 4 135 q 9 225 4 203 q 28 273 14 247 q 66 330 43 299 q 123 399 90 360 q 158 439 144 422 q 185 461 172 455 q 228 467 198 467 q 269 461 250 467 q 289 449 289 455 q 269 405 289 437 q 204 327 249 373 q 102 237 160 281 q 89 176 89 197 q 111 147 89 147 q 138 161 119 147 q 202 215 157 175 q 283 285 248 254 q 345 354 310 308 q 401 422 380 399 q 470 491 452 475 q 505 507 488 507 q 527 497 522 507 q 533 456 533 487 q 530 433 533 441 q 519 410 528 424 q 485 359 511 396 q 424 271 459 321 q 391 211 405 243 q 376 163 376 179 q 404 127 376 127 q 458 146 427 127 q 551 215 488 165 l 551 170 q 434 63 472 96 q 368 13 396 30 q 315 -4 340 -4 q 258 64 258 -4 q 275 133 258 90 q 330 260 292 177 m 371 616 q 350 624 359 616 q 340 642 340 632 q 411 770 340 667 q 462 826 441 812 q 521 840 483 840 q 571 806 571 840 q 527 741 571 786 q 434 656 484 695 q 371 616 384 616 z "},"":{"ha":534,"x_min":4,"x_max":551,"o":"m 330 260 q 181 75 232 130 q 97 20 130 20 q 50 41 71 20 q 16 99 28 62 q 4 176 4 135 q 9 225 4 203 q 28 273 14 247 q 66 330 43 299 q 123 399 90 360 q 158 439 144 422 q 185 461 172 455 q 228 467 198 467 q 269 461 250 467 q 289 449 289 455 q 269 405 289 437 q 204 327 249 373 q 102 237 160 281 q 89 176 89 197 q 111 147 89 147 q 138 161 119 147 q 202 215 157 175 q 283 285 248 254 q 345 354 310 308 q 401 422 380 399 q 470 491 452 475 q 505 507 488 507 q 527 497 522 507 q 533 456 533 487 q 530 433 533 441 q 519 410 528 424 q 485 359 511 396 q 424 271 459 321 q 391 211 405 243 q 376 163 376 179 q 404 127 376 127 q 458 146 427 127 q 551 215 488 165 l 551 170 q 434 63 472 96 q 368 13 396 30 q 315 -4 340 -4 q 258 64 258 -4 q 275 133 258 90 q 330 260 292 177 m 415 618 q 360 661 393 618 q 296 751 319 714 q 272 810 272 789 q 315 839 272 839 q 376 815 355 839 q 422 726 398 791 q 444 648 444 669 q 436 627 444 636 q 415 618 428 618 z "},"":{"ha":534,"x_min":4,"x_max":551,"o":"m 330 260 q 181 75 232 130 q 97 20 130 20 q 50 41 71 20 q 16 99 28 62 q 4 176 4 135 q 9 225 4 203 q 28 273 14 247 q 66 330 43 299 q 123 399 90 360 q 158 439 144 422 q 185 461 172 455 q 228 467 198 467 q 269 461 250 467 q 289 449 289 455 q 269 405 289 437 q 204 327 249 373 q 102 237 160 281 q 89 176 89 197 q 111 147 89 147 q 138 161 119 147 q 202 215 157 175 q 283 285 248 254 q 345 354 310 308 q 401 422 380 399 q 470 491 452 475 q 505 507 488 507 q 527 497 522 507 q 533 456 533 487 q 530 433 533 441 q 519 410 528 424 q 485 359 511 396 q 424 271 459 321 q 391 211 405 243 q 376 163 376 179 q 404 127 376 127 q 458 146 427 127 q 551 215 488 165 l 551 170 q 434 63 472 96 q 368 13 396 30 q 315 -4 340 -4 q 258 64 258 -4 q 275 133 258 90 q 330 260 292 177 m 392 714 q 376 704 386 714 q 357 684 366 694 q 264 615 296 615 q 233 642 233 615 q 269 706 233 656 q 349 796 305 755 q 424 836 393 836 q 473 798 455 836 q 503 712 490 764 q 517 646 517 660 q 510 626 517 635 q 492 616 503 616 q 451 638 474 616 q 406 700 428 661 q 392 714 401 714 z "},"":{"ha":534,"x_min":4,"x_max":572,"o":"m 330 260 q 181 75 232 130 q 97 20 130 20 q 50 41 71 20 q 16 99 28 62 q 4 176 4 135 q 9 225 4 203 q 28 273 14 247 q 66 330 43 299 q 123 399 90 360 q 158 439 144 422 q 185 461 172 455 q 228 467 198 467 q 269 461 250 467 q 289 449 289 455 q 269 405 289 437 q 204 327 249 373 q 102 237 160 281 q 89 176 89 197 q 111 147 89 147 q 138 161 119 147 q 202 215 157 175 q 283 285 248 254 q 345 354 310 308 q 401 422 380 399 q 470 491 452 475 q 505 507 488 507 q 527 497 522 507 q 533 456 533 487 q 530 433 533 441 q 519 410 528 424 q 485 359 511 396 q 424 271 459 321 q 391 211 405 243 q 376 163 376 179 q 404 127 376 127 q 458 146 427 127 q 551 215 488 165 l 551 170 q 434 63 472 96 q 368 13 396 30 q 315 -4 340 -4 q 258 64 258 -4 q 275 133 258 90 q 330 260 292 177 m 278 646 q 252 656 262 646 q 241 682 241 666 q 258 725 241 694 q 297 782 274 757 q 345 807 321 807 q 373 797 362 807 q 383 770 383 787 q 346 693 383 741 q 278 646 309 646 m 471 646 q 446 654 456 646 q 435 676 435 663 q 452 723 435 691 q 493 781 469 755 q 539 807 517 807 q 563 798 553 807 q 572 774 572 789 q 539 694 572 743 q 471 646 505 646 z "},"":{"ha":694,"x_min":205,"x_max":734,"o":"m 460 696 q 494 796 480 755 q 520 862 509 837 q 544 901 531 887 q 571 914 556 914 q 602 888 602 914 q 579 802 602 866 q 546 699 557 737 q 611 700 582 699 q 682 700 641 700 q 724 698 714 700 q 734 684 734 696 q 722 652 734 672 q 685 605 701 618 q 650 589 669 592 q 593 586 631 586 q 544 586 566 586 q 507 586 521 585 q 478 506 495 560 q 436 367 460 452 q 382 191 412 283 q 313 -7 352 99 q 300 -18 307 -18 q 274 21 288 -18 q 260 87 260 61 q 277 163 260 108 q 331 322 294 218 q 422 587 367 427 q 345 584 380 587 q 270 579 310 582 q 218 579 230 576 q 205 591 205 581 q 215 610 205 600 q 274 660 249 644 q 322 684 300 677 q 375 692 345 690 q 460 696 406 694 z "},"":{"ha":550,"x_min":161,"x_max":551,"o":"m 355 781 q 266 743 303 781 q 229 653 229 705 q 267 564 229 601 q 355 526 304 526 q 445 564 408 526 q 482 653 482 601 q 445 743 482 705 q 355 781 408 781 m 355 458 q 258 485 302 458 q 188 555 214 511 q 161 653 161 600 q 188 751 161 706 q 258 822 214 796 q 355 848 302 848 q 454 822 409 848 q 525 751 498 795 q 551 653 551 706 q 525 555 551 600 q 454 485 499 511 q 355 458 409 458 z "},"":{"ha":492,"x_min":36,"x_max":475,"o":"m 436 828 l 376 728 q 427 729 392 729 q 464 718 453 729 q 475 671 475 707 q 468 629 475 643 q 440 606 460 616 q 363 578 420 596 q 389 615 389 609 q 357 629 389 629 q 325 627 338 629 q 256 449 277 526 q 392 500 356 474 q 406 507 399 507 q 416 486 416 507 q 402 412 416 442 q 347 363 389 382 q 224 335 304 343 q 208 253 210 276 q 203 205 205 229 q 197 179 201 181 q 171 189 189 174 q 134 250 153 205 l 151 334 q 81 351 102 345 q 48 373 60 358 q 36 415 36 388 q 65 569 36 507 q 152 667 94 631 q 302 718 211 704 l 371 838 q 441 840 441 859 q 439 834 441 839 q 436 828 436 829 m 184 446 q 200 487 189 458 q 226 550 212 516 q 250 608 240 585 q 129 549 156 578 q 109 516 119 537 q 98 485 98 495 q 121 455 98 467 q 184 446 144 444 z "},"":{"ha":940,"x_min":66,"x_max":1011,"o":"m 440 376 l 469 376 q 615 582 554 503 q 732 724 682 667 q 826 823 782 781 q 905 885 871 865 q 965 905 939 905 q 999 890 987 905 q 1011 847 1011 876 q 980 739 1011 806 q 869 519 949 671 l 890 497 q 796 400 842 437 q 733 364 749 364 q 715 396 715 364 q 735 473 715 422 q 785 574 754 524 q 841 666 815 623 q 879 730 867 708 q 890 762 890 753 q 880 774 890 774 q 787 692 858 774 q 739 634 764 663 q 668 546 715 606 q 599 456 622 486 q 538 370 576 425 q 632 350 599 363 q 665 318 665 336 q 642 301 665 301 q 590 309 640 301 q 498 317 541 316 l 419 199 q 552 178 488 192 q 673 150 617 165 q 790 118 729 134 q 896 93 850 101 q 750 -39 798 -39 q 667 -25 726 -39 q 539 6 608 -11 q 408 35 471 24 q 292 46 345 46 q 226 37 254 46 q 152 10 198 28 q 90 -8 106 -8 q 66 18 66 -8 q 93 72 66 31 q 140 135 117 110 q 190 174 163 161 q 254 194 216 188 q 347 200 292 200 l 424 315 q 333 307 378 315 q 292 298 288 298 q 277 313 277 298 q 286 336 277 323 q 310 358 294 349 q 440 376 342 376 z "},"":{"ha":753,"x_min":62,"x_max":799,"o":"m 355 718 q 362 700 355 708 q 375 690 368 692 q 624 608 476 653 q 764 485 764 568 q 709 397 764 439 q 550 319 654 355 q 617 267 595 292 q 639 207 639 242 q 588 101 639 153 q 454 15 536 48 q 288 -18 372 -18 q 175 -5 227 -18 q 92 30 122 7 q 62 81 62 52 q 87 136 62 98 q 123 174 111 174 q 165 147 127 174 q 224 120 188 131 q 297 109 261 109 q 401 125 351 109 q 485 168 452 142 q 518 215 518 193 q 497 248 518 236 q 415 282 475 260 q 306 318 383 294 q 197 363 229 341 q 165 424 165 385 q 185 503 165 468 q 242 563 205 538 q 330 607 279 589 q 283 637 296 623 q 271 681 271 650 q 288 762 271 711 q 329 836 306 812 q 393 876 349 858 q 501 906 437 895 q 636 918 565 918 q 762 903 725 918 q 799 843 799 888 q 792 804 799 818 q 772 782 786 791 q 734 764 758 773 q 665 739 710 755 q 654 749 654 745 q 666 760 654 751 q 677 777 677 769 q 649 796 677 787 q 583 804 621 804 q 425 778 494 804 q 355 718 355 752 m 478 355 q 614 405 568 379 q 660 453 660 430 q 640 493 660 481 q 561 525 620 504 q 505 546 527 538 q 467 560 483 554 q 441 568 450 566 q 431 571 432 571 q 302 525 344 553 q 260 469 260 496 q 274 441 260 453 q 318 418 288 430 q 396 388 347 406 q 478 355 445 370 z "},"":{"ha":492,"x_min":74,"x_max":416,"o":"m 74 439 q 97 524 74 485 q 159 587 120 564 q 245 610 199 610 q 312 597 281 610 q 367 561 343 585 q 403 505 390 537 q 416 439 416 473 q 394 352 416 391 q 331 290 371 313 q 245 267 292 267 q 159 290 199 267 q 97 353 119 313 q 74 439 74 393 z "},"":{"ha":897,"x_min":107,"x_max":900,"o":"m 432 936 l 900 936 l 900 842 l 768 842 l 768 -307 l 681 -307 l 681 842 l 500 842 l 500 -307 l 411 -307 l 411 366 q 245 402 315 365 q 142 506 176 440 q 107 654 107 572 q 195 859 107 781 q 432 936 282 936 z "},"":{"ha":564,"x_min":-143,"x_max":690,"o":"m 468 314 q 302 117 468 180 q 371 102 337 102 q 419 108 397 102 q 465 130 441 115 q 509 162 488 144 q 576 221 530 179 l 576 172 q 468 76 517 113 q 372 19 418 39 q 281 0 325 0 q 186 24 226 0 q 126 84 146 47 q 106 158 106 121 q 116 188 106 176 q 144 199 127 199 q 169 193 157 199 q 213 167 180 187 q 260 139 245 147 q 325 170 303 149 q 347 232 347 191 q 341 283 347 255 q 326 342 335 312 q 312 396 317 372 q 307 440 307 420 q 318 484 307 467 q 353 517 330 500 q 405 552 383 537 q 448 583 427 568 q 481 610 469 598 q 529 664 509 635 q 559 720 549 692 q 570 765 570 747 q 547 789 570 789 q 491 774 523 789 q 425 730 460 760 q 357 656 391 701 q 186 390 307 590 q 74 190 115 273 q -12 8 33 106 q -77 -124 -57 -91 q -117 -157 -97 -157 q -135 -143 -127 -157 q -143 -107 -143 -130 q -126 -14 -143 -60 q -81 77 -109 33 q -18 171 -54 121 q 84 335 32 243 q 198 532 136 426 q 319 711 260 638 q 452 835 378 785 q 518 872 484 857 q 585 895 553 887 q 639 903 618 903 q 690 852 690 903 q 672 766 690 813 q 617 668 654 718 q 526 575 580 618 q 473 533 491 547 q 444 507 454 519 q 433 484 433 494 q 446 429 433 475 q 463 359 458 382 q 468 314 468 336 z "},"":{"ha":1028,"x_min":9,"x_max":1034,"o":"m 386 142 l 297 142 l 297 692 l 486 692 q 578 688 543 692 q 636 673 612 685 q 699 621 675 656 q 722 547 722 586 q 680 438 722 482 q 566 387 637 393 q 626 344 600 374 q 693 249 652 314 l 760 142 l 652 142 l 603 228 q 523 346 553 316 q 439 375 493 375 l 386 375 l 386 142 m 386 616 l 386 452 l 494 452 q 567 459 538 452 q 612 486 597 467 q 628 534 628 505 q 591 601 628 586 q 488 616 553 616 l 386 616 m 522 936 q 720 897 627 936 q 884 787 814 857 q 994 623 955 716 q 1034 425 1034 530 q 995 229 1034 321 q 885 63 956 136 q 721 -48 813 -9 q 522 -87 629 -87 q 266 -19 384 -87 q 79 168 148 50 q 9 425 9 285 q 49 623 9 531 q 160 786 88 715 q 325 897 232 857 q 522 936 418 936 m 522 851 q 309 794 407 851 q 152 640 210 737 q 94 425 94 542 q 152 211 94 309 q 308 55 210 113 q 522 -3 406 -3 q 736 55 639 -3 q 891 211 834 112 q 949 425 949 309 q 916 590 949 513 q 824 726 883 667 q 688 818 765 785 q 522 851 610 851 z "},"":{"ha":1028,"x_min":9,"x_max":1034,"o":"m 758 551 l 677 532 q 519 636 636 636 q 430 610 469 636 q 369 534 391 583 q 347 419 347 486 q 394 266 347 321 q 522 211 441 211 q 624 244 576 211 q 686 342 671 277 l 770 317 q 721 217 756 259 q 634 153 686 175 q 524 131 583 131 q 381 166 443 131 q 287 270 320 201 q 253 432 253 339 q 271 543 253 492 q 326 632 290 594 q 413 691 361 671 q 528 711 465 711 q 675 670 615 711 q 758 551 736 628 m 522 936 q 720 897 627 936 q 884 787 814 857 q 994 623 955 716 q 1034 425 1034 530 q 995 229 1034 321 q 885 63 956 136 q 721 -48 813 -9 q 522 -87 629 -87 q 266 -19 384 -87 q 79 168 148 50 q 9 425 9 285 q 49 623 9 531 q 160 786 88 715 q 325 897 232 857 q 522 936 418 936 m 522 851 q 309 794 407 851 q 152 640 210 737 q 94 425 94 542 q 152 211 94 309 q 308 55 210 113 q 522 -3 406 -3 q 736 55 639 -3 q 891 211 834 112 q 949 425 949 309 q 916 590 949 513 q 824 726 883 667 q 688 818 765 785 q 522 851 610 851 z "},"":{"ha":1389,"x_min":153,"x_max":1210,"o":"m 424 383 l 332 383 l 332 854 l 153 854 l 153 936 l 604 936 l 604 854 l 424 854 l 424 383 m 750 383 l 667 383 l 667 936 l 803 936 l 942 494 l 1076 936 l 1210 936 l 1210 383 l 1125 383 l 1125 847 l 983 383 l 900 383 l 750 854 l 750 383 z "},"":{"ha":463,"x_min":285,"x_max":515,"o":"m 315 616 q 294 624 304 616 q 285 642 285 632 q 355 770 285 667 q 407 826 386 812 q 465 840 427 840 q 515 806 515 840 q 472 741 515 786 q 378 656 428 695 q 315 616 328 616 z "},"":{"ha":463,"x_min":186,"x_max":517,"o":"m 222 646 q 196 656 206 646 q 186 682 186 666 q 202 725 186 694 q 242 782 218 757 q 289 807 265 807 q 317 797 307 807 q 328 770 328 787 q 290 693 328 741 q 222 646 253 646 m 415 646 q 390 654 401 646 q 379 676 379 663 q 396 723 379 691 q 438 781 414 755 q 484 807 462 807 q 507 798 497 807 q 517 774 517 789 q 483 694 517 743 q 415 646 450 646 z "},"":{"ha":762,"x_min":21,"x_max":750,"o":"m 558 762 l 627 724 l 521 534 l 750 534 l 750 458 l 479 458 l 371 265 l 750 265 l 750 189 l 329 189 l 204 -35 l 136 4 l 239 189 l 21 189 l 21 265 l 282 265 l 389 458 l 21 458 l 21 534 l 432 534 l 558 762 z "},"":{"ha":1317,"x_min":-89,"x_max":1369,"o":"m 570 279 l 314 277 q 64 7 155 95 q -58 -81 -26 -81 q -81 -72 -73 -81 q -89 -49 -89 -63 q -54 21 -89 -25 q 23 104 -20 66 q 86 142 66 142 q 113 134 102 142 q 241 273 177 195 q 119 267 151 263 q 86 292 86 271 q 124 361 86 309 q 187 427 161 414 q 233 439 197 431 q 297 449 269 447 q 239 423 256 434 q 222 390 222 412 q 245 374 222 376 q 329 375 268 371 q 598 657 471 539 q 820 840 725 775 q 971 920 916 905 q 1186 935 1025 935 q 1317 926 1280 935 q 1362 899 1354 918 q 1369 828 1369 880 q 1354 769 1369 782 q 1268 725 1339 757 q 1129 642 1198 692 q 1180 706 1152 681 q 1258 765 1209 732 q 1202 783 1234 775 q 1125 791 1169 791 q 991 781 1070 791 q 910 677 950 735 q 830 551 869 619 q 754 411 791 484 q 958 435 880 425 q 1050 446 1036 446 q 1101 421 1101 446 q 1080 379 1101 415 q 1028 311 1058 344 q 1000 301 1023 305 q 932 294 977 296 q 829 289 888 291 q 694 285 770 288 q 649 176 665 234 q 632 102 632 118 q 770 40 632 40 q 1021 98 902 40 q 1267 264 1139 155 q 1253 146 1268 197 q 1183 45 1238 96 q 1000 -58 1124 -12 q 764 -103 876 -103 q 641 -85 686 -103 q 546 -14 596 -67 q 512 35 519 16 q 504 92 504 53 q 570 279 504 149 m 397 378 l 635 399 q 759 600 676 477 q 951 861 842 722 q 813 773 878 821 q 678 664 748 726 q 540 533 608 602 q 397 378 473 463 z "},"":{"ha":796,"x_min":-41,"x_max":872,"o":"m 732 672 q 774 717 745 686 q 848 796 802 747 q 872 746 872 764 q 860 720 872 736 q 817 673 847 703 q 757 614 787 644 q 758 586 758 608 q 715 389 758 500 q 595 178 671 278 q 429 35 526 89 q 254 -18 333 -18 q 106 60 159 -18 q 40 -14 79 31 q -8 -60 1 -60 q -31 -48 -20 -60 q -41 -26 -41 -36 q -31 -7 -41 -20 q 18 46 -21 5 q 79 110 58 87 q 56 252 56 175 q 116 474 56 363 q 270 677 176 585 q 457 823 363 769 q 608 876 550 876 q 682 846 656 876 q 729 751 707 817 q 621 736 667 749 q 524 696 574 724 q 561 705 542 701 q 598 713 579 710 q 636 717 618 717 q 732 672 699 717 m 149 178 q 278 283 191 213 q 443 417 364 353 q 573 525 522 481 q 667 608 625 569 q 611 656 658 656 q 499 619 566 656 q 371 515 432 583 q 285 396 350 492 q 353 558 297 460 q 222 367 283 484 q 149 178 161 250 m 665 533 q 563 447 625 498 q 430 337 501 395 q 274 208 359 279 q 154 107 189 137 q 243 50 174 50 q 357 96 290 50 q 490 215 424 142 q 605 372 557 288 q 665 533 653 456 z "},"":{"ha":990,"x_min":35,"x_max":966,"o":"m 500 412 q 575 478 551 458 q 624 514 600 498 q 680 543 649 530 q 777 562 728 565 q 865 534 825 559 q 931 471 906 509 q 960 387 956 432 q 940 282 966 334 q 866 199 915 231 q 756 174 817 168 q 665 197 709 178 q 591 238 622 216 q 532 290 561 261 q 500 321 503 319 q 462 283 484 304 q 410 238 440 261 q 337 197 380 216 q 245 174 294 178 q 135 199 184 168 q 61 282 86 231 q 41 387 35 334 q 71 471 45 433 q 136 534 96 510 q 225 562 177 559 q 321 543 273 565 q 377 514 352 530 q 426 478 401 498 q 500 412 450 458 m 455 367 q 359 443 395 418 q 290 479 323 468 q 215 488 248 494 q 157 460 181 481 q 122 412 134 439 q 111 359 111 385 q 136 291 111 321 q 197 247 160 260 q 271 243 235 234 q 355 277 326 256 q 455 367 385 298 m 547 367 q 618 299 593 321 q 667 264 643 277 q 730 243 692 252 q 804 247 767 234 q 866 291 842 260 q 891 359 890 321 q 871 429 892 393 q 809 482 850 465 q 711 479 768 498 q 642 442 677 467 q 547 367 606 416 z "},"":{"ha":926,"x_min":115,"x_max":860,"o":"m 115 488 l 115 595 l 433 595 l 433 913 l 541 913 l 541 595 l 860 595 l 860 488 l 541 488 l 541 170 l 433 170 l 433 488 l 115 488 m 115 -61 l 115 46 l 860 46 l 860 -61 l 115 -61 z "},"":{"ha":926,"x_min":92,"x_max":835,"o":"m 92 -44 l 92 62 l 835 62 l 835 -44 l 92 -44 m 834 347 l 834 231 l 92 543 l 92 639 l 834 950 l 834 835 l 237 591 l 834 347 z "},"":{"ha":926,"x_min":92,"x_max":835,"o":"m 92 -44 l 92 62 l 835 62 l 835 -44 l 92 -44 m 92 835 l 92 950 l 834 639 l 834 543 l 92 231 l 92 347 l 690 591 l 92 835 z "},"":{"ha":868,"x_min":111,"x_max":1069,"o":"m 492 419 q 732 681 577 537 q 904 809 823 765 q 1028 852 984 852 q 1056 843 1043 852 q 1069 818 1069 833 q 1040 760 1069 791 q 973 705 1011 728 q 916 682 935 682 q 880 692 898 682 q 745 599 806 652 q 644 500 684 547 q 521 354 603 453 l 701 354 l 671 294 l 481 294 q 467 269 472 279 q 453 243 462 258 l 646 243 l 615 182 l 421 182 q 366 49 393 117 q 327 -40 339 -19 q 298 -61 315 -61 q 257 -31 277 -61 q 236 35 236 0 q 250 90 236 66 q 310 182 264 114 l 167 182 l 197 243 l 354 243 q 371 266 361 253 q 392 294 380 278 l 224 294 l 254 354 l 431 354 q 454 443 444 373 q 464 596 464 512 q 418 747 464 747 q 382 732 408 747 q 325 692 356 716 q 271 643 294 667 q 202 570 231 601 q 162 530 174 540 q 143 519 150 519 q 120 549 130 519 q 111 624 111 578 q 131 693 111 667 q 222 774 151 720 q 356 860 299 830 q 441 890 413 890 q 522 664 522 890 q 492 419 522 575 z "},"":{"ha":772,"x_min":32,"x_max":708,"o":"m 489 0 l 500 47 q 441 2 471 18 q 364 -14 411 -14 q 280 4 315 -14 q 212 56 245 22 l 153 -236 l 32 -236 l 191 514 l 313 514 l 283 382 q 256 215 256 257 q 291 120 256 156 q 379 83 327 83 q 459 112 427 83 q 511 194 491 141 q 549 332 530 246 l 587 514 l 708 514 l 599 0 l 489 0 z "},"":{"ha":686,"x_min":36,"x_max":646,"o":"m 149 926 l 95 996 q 215 1031 146 1019 q 347 1028 283 1043 q 474 968 416 1012 q 580 842 533 924 q 623 730 608 792 q 642 622 638 669 q 646 546 646 574 q 640 449 646 514 q 616 310 633 384 q 574 182 600 235 q 512 73 542 113 q 430 4 483 34 q 289 -29 361 -34 q 159 16 216 -24 q 104 63 128 37 q 63 129 81 90 q 42 216 46 168 q 60 355 36 292 q 119 460 85 418 q 205 534 158 508 q 316 558 253 560 q 416 537 376 556 q 524 464 456 518 q 539 625 536 531 q 526 740 541 669 q 495 846 511 810 q 438 925 479 886 q 340 970 397 965 q 279 972 302 973 q 241 966 256 970 q 197 948 225 961 q 149 926 170 935 m 513 415 q 445 483 473 460 q 363 504 416 505 q 230 429 283 502 q 188 354 202 390 q 166 282 173 319 q 160 205 160 245 q 172 107 160 155 q 224 32 184 60 q 281 12 254 13 q 340 25 308 12 q 452 154 410 56 q 491 280 476 214 q 513 415 505 347 z "},"":{"ha":990,"x_min":20,"x_max":965,"o":"m 857 1035 l 865 814 l 838 814 q 803 908 816 883 q 750 953 791 933 q 625 972 709 972 l 260 972 l 639 475 l 231 4 l 746 4 q 833 17 802 4 q 885 62 863 31 q 933 161 907 94 l 965 161 q 927 -5 935 36 q 905 -150 920 -45 q 851 -140 879 -145 q 799 -135 823 -135 l 100 -135 q 75 -136 90 -135 q 44 -138 60 -137 q 20 -139 29 -139 l 504 414 l 22 1044 q 94 1039 44 1043 q 167 1035 143 1035 l 857 1035 z "},"":{"ha":1143,"x_min":35,"x_max":1116,"o":"m 981 873 l 981 4 q 997 -67 981 -43 q 1042 -100 1013 -92 q 1116 -109 1072 -109 l 1116 -140 l 690 -140 l 690 -109 q 791 -86 758 -109 q 823 4 823 -64 l 823 966 l 326 966 l 326 4 q 342 -67 326 -43 q 388 -100 358 -92 q 461 -109 417 -109 l 461 -140 l 35 -140 l 35 -109 q 137 -86 104 -109 q 170 4 170 -64 l 170 873 q 37 1011 170 1011 l 37 1043 l 1111 1043 l 1111 1011 q 981 873 981 1011 z "},"":{"ha":508,"x_min":4,"x_max":528,"o":"m 4 208 q 55 259 28 228 q 114 331 83 290 q 65 325 80 330 q 44 319 50 319 q 41 323 41 319 q 48 350 41 333 q 68 390 55 368 q 97 435 84 418 q 126 462 110 452 q 164 474 142 471 q 222 477 186 477 q 301 476 260 477 q 382 474 342 475 q 460 469 422 472 q 528 463 497 467 q 487 391 510 427 q 439 316 465 355 l 365 319 q 363 319 364 319 l 362 319 q 305 151 305 215 q 343 103 305 103 q 411 131 369 103 q 522 215 452 158 l 522 170 q 252 -29 339 -29 q 202 -5 220 -29 q 184 56 184 18 q 188 91 184 73 q 224 205 199 149 q 284 322 250 261 l 224 326 l 222 324 l 184 327 q 148 290 169 310 q 102 248 126 269 q 52 204 77 227 q 4 161 27 182 l 4 208 z "},"":{"ha":380,"x_min":3,"x_max":414,"o":"m 268 677 l 267 378 q 219 -29 265 131 q 179 -114 205 -81 q 128 -142 168 -129 q 57 -142 88 -156 q 29 -117 42 -134 q 11 -87 16 -100 q 11 -43 3 -64 q 44 -11 19 -23 q 85 -7 67 1 q 123 -39 103 -16 q 156 -41 143 -59 q 175 15 170 -24 q 179 103 180 53 q 176 199 178 155 q 174 280 175 243 q 172 390 172 317 q 171 539 171 464 l 171 739 q 172 869 171 800 q 177 992 174 939 q 188 1087 181 1046 q 207 1169 195 1128 q 232 1220 214 1192 q 269 1260 251 1249 q 308 1272 287 1271 q 348 1266 328 1273 q 378 1253 368 1259 q 405 1212 396 1241 q 396 1160 414 1183 q 367 1140 386 1147 q 329 1134 348 1132 q 297 1150 310 1136 q 270 1166 282 1165 q 250 1159 257 1168 q 241 1136 243 1149 q 243 1094 241 1118 q 252 976 245 1069 q 264 811 260 884 q 268 677 268 739 z "},"":{"ha":435,"x_min":100,"x_max":486,"o":"m 486 694 l 486 669 q 418 598 447 625 q 367 556 389 571 q 325 542 344 542 q 292 582 292 542 q 295 612 292 595 q 304 648 298 629 q 315 688 309 667 q 174 557 207 564 q 124 594 148 551 q 100 677 100 637 q 131 747 100 709 q 208 819 161 785 q 304 875 255 853 q 387 897 353 897 q 416 882 405 897 q 428 856 428 866 q 399 838 428 850 l 415 800 q 416 798 416 799 q 418 793 417 796 q 419 789 418 791 q 419 785 419 787 q 414 771 419 777 q 371 712 385 735 q 357 669 357 689 q 366 644 357 654 q 390 635 376 635 q 417 643 402 635 q 454 669 431 651 q 486 694 476 687 m 374 823 q 207 734 256 771 q 158 654 158 698 q 191 627 158 615 q 266 687 209 633 q 374 823 323 741 z "},"":{"ha":347,"x_min":97,"x_max":395,"o":"m 395 693 l 395 663 q 349 630 366 638 q 294 621 332 623 q 238 568 258 584 q 192 553 218 553 q 125 589 153 553 q 97 671 97 625 q 129 762 97 713 q 208 844 161 811 q 297 876 255 876 q 340 850 340 876 q 330 829 340 842 q 361 790 361 823 q 354 743 361 764 q 337 700 347 722 q 326 673 326 677 q 340 663 326 663 q 395 693 352 663 m 298 812 q 199 748 243 793 q 155 650 155 703 q 189 614 155 614 q 229 625 204 614 q 260 647 253 636 q 253 689 253 673 q 264 746 253 718 q 298 812 276 774 z "},"":{"ha":1067,"x_min":47,"x_max":1022,"o":"m 435 211 l 457 0 l 47 0 l 47 225 l 68 225 q 99 156 81 172 q 160 140 116 140 l 379 140 l 376 179 q 278 215 316 197 q 205 262 239 233 q 144 330 172 290 q 83 474 98 400 q 80 618 68 549 q 122 741 92 688 q 194 836 157 805 q 281 895 231 866 q 396 939 328 922 q 534 956 464 956 q 674 939 606 956 q 789 895 742 922 q 875 836 838 866 q 947 741 911 806 q 989 618 977 688 q 986 474 1001 549 q 925 330 972 400 q 832 238 884 271 q 693 179 779 205 l 690 140 l 909 140 q 971 157 954 140 q 1002 225 989 174 l 1022 225 l 1022 0 l 612 0 l 635 211 q 672 228 652 218 q 714 252 693 237 q 758 296 735 267 q 799 370 780 326 q 831 516 824 428 q 816 693 838 604 q 736 839 793 782 q 534 911 664 911 q 334 839 405 911 q 254 693 276 782 q 238 516 231 604 q 271 370 245 428 q 312 296 290 326 q 355 252 334 267 q 397 227 377 236 q 435 211 416 218 z "},"":{"ha":708,"x_min":3,"x_max":724,"o":"m 151 399 q 264 468 201 440 q 377 509 328 496 q 440 521 427 521 q 471 502 454 521 q 488 465 488 483 q 479 440 488 457 q 447 386 470 424 q 551 469 507 441 q 639 496 595 496 q 717 435 717 496 q 685 353 717 397 q 587 268 652 310 q 424 192 522 227 l 424 163 q 443 109 424 133 q 500 85 463 85 q 593 116 540 85 q 724 212 646 148 l 724 172 q 581 31 650 79 q 452 -17 511 -17 q 306 178 304 -17 q 180 48 231 92 q 103 4 129 4 q 61 30 85 4 q 20 96 37 56 q 3 178 3 136 q 39 283 3 231 q 151 399 75 335 m 406 406 q 359 390 382 401 q 156 270 224 329 q 87 158 87 212 q 117 110 87 110 q 182 145 135 110 q 289 246 230 180 q 406 406 349 313 m 435 233 q 573 325 524 271 q 623 407 623 378 q 604 428 623 428 q 547 398 588 428 q 472 325 505 369 q 435 233 439 281 z "},"":{"ha":435,"x_min":-29,"x_max":497,"o":"m 447 215 l 447 170 q 376 115 402 128 q 297 104 349 102 q 214 26 252 52 q 140 0 177 0 q 64 32 98 0 q 15 -47 32 -16 q -7 -79 -3 -79 q -21 -59 -12 -73 q -29 -37 -29 -46 q -13 2 -29 -29 q 35 68 3 34 q 4 191 4 121 q 52 319 4 249 q 171 439 100 390 q 301 488 242 488 q 366 467 348 488 q 482 545 454 545 q 489 542 486 545 q 495 535 492 539 q 497 526 497 530 q 486 494 497 506 q 436 456 475 482 q 374 412 397 431 q 394 392 389 405 q 400 355 400 380 q 385 274 400 322 q 343 180 370 225 l 354 168 l 364 168 q 392 176 378 168 q 447 215 406 184 m 306 393 q 210 332 250 359 q 142 276 170 304 q 104 220 114 248 q 95 180 102 212 q 89 138 89 147 q 151 93 89 93 q 249 143 180 93 q 236 204 236 189 q 241 250 236 227 q 255 296 246 273 q 273 336 264 319 q 306 393 281 352 z "},"":{"ha":449,"x_min":-65,"x_max":393,"o":"m 269 -160 q 243 -139 269 -151 q 215 -113 215 -128 q 218 -103 215 -104 q 233 -106 222 -102 q 248 -111 243 -111 q 300 -118 269 -117 q 340 -124 331 -119 q 350 -153 350 -130 q 332 -215 350 -174 q 294 -272 313 -255 q 198 -317 271 -294 q 68 -340 124 -340 q -29 -305 7 -340 q -65 -203 -65 -269 q -41 -93 -65 -156 q 29 40 -17 -30 q 132 171 75 111 q 194 242 175 215 q 214 294 214 270 q 212 316 214 300 q 210 330 210 331 q 231 359 210 359 q 257 346 243 359 q 279 310 270 332 q 288 261 288 288 q 263 185 288 228 q 187 86 239 142 q 54 -39 134 31 q 0 -93 16 -73 q -16 -140 -16 -113 q 77 -208 -16 -208 q 158 -200 110 -208 q 238 -181 206 -192 q 269 -160 269 -170 m 334 576 q 371 556 349 576 q 393 503 393 535 q 367 413 393 463 q 322 363 340 363 q 283 391 304 363 q 262 446 262 420 q 274 494 262 461 q 302 552 286 528 q 334 576 319 576 z "},"":{"ha":478,"x_min":-115,"x_max":400,"o":"m 4 -290 q -22 -294 -8 -294 q -69 -281 -43 -294 q -115 -240 -95 -267 q 29 -27 -32 -118 q 133 130 90 64 q 224 271 176 195 q 210 286 210 274 q 227 314 210 294 q 256 335 243 335 q 280 322 265 335 q 306 290 294 309 q 317 261 317 272 q 304 223 317 250 q 268 155 292 197 q 207 49 244 112 q 129 -83 170 -14 q 4 -290 51 -220 m 339 575 q 380 557 361 575 q 400 505 400 540 q 377 411 400 465 q 330 357 355 357 q 300 367 315 357 q 275 397 286 378 q 265 439 265 416 q 290 525 265 474 q 339 575 315 575 z "},"":{"ha":926,"x_min":115,"x_max":859,"o":"m 115 541 l 115 647 l 859 647 l 859 210 l 753 210 l 753 541 l 115 541 z "},"":{"ha":762,"x_min":14,"x_max":715,"o":"m 36 579 l 14 625 l 216 725 l 490 165 l 667 1274 l 715 1267 l 507 -53 l 170 644 l 36 579 z "},"":{"ha":608,"x_min":-214,"x_max":671,"o":"m -98 -183 q -89 -195 -98 -195 q -65 -176 -84 -195 q -32 -140 -46 -158 q 62 3 16 -77 q 183 233 107 84 q 120 228 148 232 q 72 219 92 224 q 45 215 52 215 q 26 231 26 215 q 73 277 26 258 q 214 296 120 296 q 383 602 314 488 q 512 777 452 715 q 623 838 572 838 q 671 777 671 838 q 657 695 671 743 q 624 590 644 648 q 604 529 604 533 q 608 517 604 528 q 611 501 611 506 q 587 464 611 492 q 534 412 563 436 q 493 389 506 389 q 469 433 469 389 q 486 508 469 467 q 526 597 502 548 q 550 657 550 647 q 542 667 550 667 q 446 567 515 667 q 288 296 378 468 q 395 275 361 288 q 429 240 429 262 q 401 216 429 216 q 362 223 408 216 q 253 233 316 229 q 84 -95 155 31 q -48 -287 14 -221 q -165 -353 -110 -353 q -214 -279 -214 -353 q -205 -215 -214 -248 q -184 -149 -197 -183 q -172 -107 -172 -114 q -179 -92 -172 -99 q -186 -81 -186 -84 q -163 -40 -186 -71 q -112 16 -141 -9 q -58 41 -82 41 q -39 16 -39 41 q -49 -48 -39 -20 q -79 -121 -60 -77 q -98 -183 -98 -165 z "},"":{"ha":911,"x_min":85,"x_max":825,"o":"m 825 420 l 825 306 q 628 216 721 216 q 548 229 586 216 q 417 285 507 241 q 286 326 332 326 q 85 231 196 326 l 85 345 q 292 433 191 433 q 490 368 355 433 q 627 323 581 323 q 825 420 714 323 m 825 748 l 825 633 q 628 544 720 544 q 546 557 585 544 q 417 612 505 570 q 286 654 332 654 q 85 558 195 654 l 85 673 q 292 760 191 760 q 490 695 355 760 q 627 651 581 651 q 825 748 714 651 z "},"":{"ha":850,"x_min":8,"x_max":844,"o":"m 453 956 l 844 0 l 8 0 l 453 956 m 403 718 l 100 68 l 672 68 l 403 718 z "},"":{"ha":564,"x_min":66,"x_max":514,"o":"m 267 489 q 289 481 279 489 q 298 460 298 473 q 281 412 298 450 q 242 331 264 375 q 211 262 221 286 q 201 221 201 238 q 208 187 201 205 q 232 129 215 169 q 259 64 250 89 q 269 28 269 40 q 241 0 269 0 q 172 51 213 0 q 99 161 132 101 q 66 237 66 222 q 91 295 66 254 q 152 381 116 336 q 220 458 187 427 q 267 489 252 489 m 481 489 q 504 481 494 489 q 514 460 514 473 q 502 421 514 448 q 466 348 490 395 q 429 270 443 302 q 415 221 415 239 q 428 175 415 208 q 454 112 441 142 q 476 61 467 82 q 485 28 485 40 q 476 7 485 14 q 456 0 467 0 q 387 50 427 0 q 313 161 346 100 q 281 237 281 221 q 305 294 281 253 q 365 381 330 336 q 433 458 401 427 q 481 489 466 489 z "},"":{"ha":564,"x_min":65,"x_max":514,"o":"m 311 0 q 289 7 299 0 q 279 28 279 15 q 290 62 279 41 q 325 132 300 83 q 364 215 349 180 q 379 267 379 250 q 370 306 379 283 q 342 373 361 330 q 315 435 322 417 q 309 461 309 453 q 317 482 309 475 q 338 489 325 489 q 406 438 365 489 q 481 326 448 388 q 514 250 514 264 q 471 165 514 227 q 380 52 429 103 q 311 0 331 0 m 97 0 q 75 7 85 0 q 65 28 65 15 q 75 62 65 41 q 111 133 85 83 q 150 216 136 182 q 164 267 164 250 q 155 306 164 283 q 131 365 146 330 q 105 426 115 399 q 94 461 94 453 q 123 489 94 489 q 192 438 151 489 q 266 327 233 388 q 298 250 298 266 q 257 166 298 228 q 166 53 215 105 q 97 0 117 0 z "},"":{"ha":1389,"x_min":154,"x_max":1236,"o":"m 652 -22 q 627 -11 637 -22 q 616 18 616 0 q 661 112 616 66 q 742 158 705 158 q 767 149 760 158 q 774 121 774 140 q 733 27 774 77 q 652 -22 692 -22 m 189 -22 q 154 18 154 -22 q 198 112 154 66 q 279 158 243 158 q 304 149 298 158 q 310 121 310 140 q 270 27 310 76 q 189 -22 229 -22 m 1114 -22 q 1080 18 1080 -22 q 1101 81 1080 48 q 1152 136 1122 114 q 1204 158 1181 158 q 1236 121 1236 158 q 1195 27 1236 77 q 1114 -22 1154 -22 z "},"":{"ha":390,"x_min":0,"x_max":0,"o":""},"":{"ha":882,"x_min":-85,"x_max":1082,"o":"m 604 279 q 485 277 523 277 q 323 279 427 277 q 271 223 302 256 q 212 164 239 191 q 164 117 184 136 q 131 85 144 98 q 33 -11 56 12 q -15 -51 10 -33 q -61 -69 -40 -69 q -85 -47 -85 -69 q -51 26 -85 -24 q 26 113 -17 75 q 96 151 68 151 q 117 144 103 151 l 245 282 q 182 287 221 286 q 129 292 142 288 q 115 315 115 297 q 178 407 115 345 q 241 451 212 441 q 355 461 271 460 q 285 445 306 454 q 262 418 264 436 q 299 418 282 418 q 342 418 315 418 q 382 419 369 418 q 584 608 493 528 q 775 761 675 688 q 990 893 876 833 q 1013 832 1013 864 q 995 771 1013 806 q 922 641 978 736 q 808 439 866 546 q 840 438 827 439 q 867 437 852 438 q 914 436 905 437 q 922 422 922 435 q 912 403 922 417 q 875 357 901 389 q 823 292 848 325 l 724 283 q 644 115 644 134 q 673 87 644 87 q 791 147 688 87 l 786 111 q 700 45 730 69 q 646 5 669 21 q 605 -19 623 -11 q 567 -26 586 -26 q 523 -6 545 -26 q 501 53 501 15 q 513 97 501 68 q 537 153 524 126 q 604 279 551 179 m 476 433 l 696 437 q 759 544 734 503 q 811 632 783 585 q 861 713 840 680 q 907 789 882 747 q 807 721 858 758 q 692 631 756 684 q 579 533 629 578 q 476 433 530 488 m 1053 1008 q 998 1051 1031 1008 q 934 1141 958 1104 q 910 1200 910 1179 q 954 1229 910 1229 q 1015 1205 993 1229 q 1061 1116 1036 1181 q 1082 1038 1082 1059 q 1074 1017 1082 1026 q 1053 1008 1066 1008 z "},"":{"ha":882,"x_min":-85,"x_max":1198,"o":"m 604 279 q 485 277 523 277 q 323 279 427 277 q 271 223 302 256 q 212 164 239 191 q 164 117 184 136 q 131 85 144 98 q 33 -11 56 12 q -15 -51 10 -33 q -61 -69 -40 -69 q -85 -47 -85 -69 q -51 26 -85 -24 q 26 113 -17 75 q 96 151 68 151 q 117 144 103 151 l 245 282 q 182 287 221 286 q 129 292 142 288 q 115 315 115 297 q 178 407 115 345 q 241 451 212 441 q 355 461 271 460 q 285 445 306 454 q 262 418 264 436 q 299 418 282 418 q 342 418 315 418 q 382 419 369 418 q 584 608 493 528 q 775 761 675 688 q 990 893 876 833 q 1013 832 1013 864 q 995 771 1013 806 q 922 641 978 736 q 808 439 866 546 q 840 438 827 439 q 867 437 852 438 q 914 436 905 437 q 922 422 922 435 q 912 403 922 417 q 875 357 901 389 q 823 292 848 325 l 724 283 q 644 115 644 134 q 673 87 644 87 q 791 147 688 87 l 786 111 q 700 45 730 69 q 646 5 669 21 q 605 -19 623 -11 q 567 -26 586 -26 q 523 -6 545 -26 q 501 53 501 15 q 513 97 501 68 q 537 153 524 126 q 604 279 551 179 m 476 433 l 696 437 q 759 544 734 503 q 811 632 783 585 q 861 713 840 680 q 907 789 882 747 q 807 721 858 758 q 692 631 756 684 q 579 533 629 578 q 476 433 530 488 m 907 1097 q 872 1088 886 1097 q 838 1065 858 1080 q 792 1042 808 1042 q 773 1062 773 1042 q 795 1114 773 1082 q 858 1167 818 1145 q 951 1190 899 1190 q 1005 1182 982 1190 q 1056 1158 1027 1173 q 1097 1143 1084 1143 q 1143 1161 1119 1143 q 1177 1176 1162 1176 q 1198 1144 1198 1176 q 1182 1102 1198 1129 q 1136 1056 1166 1076 q 1072 1037 1107 1037 q 1019 1052 1049 1037 q 960 1082 989 1067 q 907 1097 930 1097 z "},"":{"ha":796,"x_min":54,"x_max":812,"o":"m 524 696 q 561 705 542 701 q 598 713 579 710 q 636 717 618 717 q 704 699 675 717 q 746 651 732 682 q 760 586 760 621 q 740 460 760 531 q 682 316 720 389 q 595 178 645 243 q 430 36 526 90 q 254 -18 334 -18 q 150 14 195 -18 q 80 107 105 46 q 54 252 54 169 q 115 474 54 363 q 268 676 176 586 q 455 822 361 767 q 608 876 549 876 q 682 847 656 876 q 730 751 708 817 q 621 736 667 749 q 524 696 574 723 m 353 558 q 257 427 305 507 q 178 269 208 347 q 149 151 149 192 q 243 50 149 50 q 413 139 309 50 q 594 353 517 228 q 671 581 671 478 q 611 656 671 656 q 498 619 565 656 q 371 515 432 583 q 285 396 349 491 q 353 558 297 460 m 522 1097 q 486 1088 500 1097 q 452 1065 472 1080 q 406 1042 422 1042 q 387 1062 387 1042 q 410 1114 387 1082 q 472 1167 432 1145 q 565 1190 513 1190 q 619 1182 596 1190 q 670 1158 642 1173 q 711 1143 699 1143 q 757 1161 733 1143 q 791 1176 776 1176 q 812 1144 812 1176 q 796 1102 812 1129 q 750 1056 780 1076 q 686 1037 721 1037 q 633 1052 663 1037 q 574 1082 604 1067 q 522 1097 544 1097 z "},"":{"ha":1186,"x_min":60,"x_max":1239,"o":"m 256 -21 q 159 11 203 -21 q 87 109 114 43 q 60 267 60 174 q 115 495 60 382 q 257 698 171 608 q 434 840 343 787 q 589 892 524 892 q 651 881 624 892 q 713 846 677 869 q 803 904 762 882 q 888 935 844 926 q 1000 943 932 943 q 1126 938 1072 943 q 1192 929 1180 932 q 1233 903 1227 919 q 1239 836 1239 886 q 1236 782 1239 798 q 1214 754 1232 767 q 1146 725 1195 741 q 1117 713 1133 722 q 1079 692 1100 705 q 1044 670 1058 679 q 993 637 1031 661 q 1038 702 1015 678 q 1107 758 1062 726 q 1013 784 1057 777 q 916 790 970 790 q 852 787 880 790 q 808 781 825 784 q 765 771 791 777 q 781 715 774 747 q 789 643 789 682 q 737 431 789 569 q 870 437 797 433 q 962 441 943 441 q 989 436 979 441 q 999 421 999 431 q 986 387 999 412 q 956 339 973 362 q 920 306 938 317 q 785 285 886 285 l 667 285 q 519 102 606 180 q 568 60 532 73 q 664 46 603 46 q 823 72 733 46 q 983 143 912 98 q 1150 267 1029 173 q 1134 152 1149 199 q 1068 56 1118 105 q 952 -26 1023 12 q 797 -85 880 -64 q 636 -107 713 -107 q 521 -94 568 -107 q 444 -53 473 -80 q 396 17 415 -26 q 256 -21 317 -21 m 375 633 q 251 446 302 539 q 174 277 200 353 q 149 153 149 201 q 172 79 149 106 q 236 52 196 52 q 342 87 279 52 q 467 189 405 123 q 588 352 536 263 q 667 523 640 441 q 694 656 694 604 q 679 727 694 705 q 627 749 663 749 q 534 720 581 749 q 450 650 488 691 q 380 568 412 610 q 322 493 348 527 q 340 552 329 520 q 360 601 352 584 q 375 633 368 618 z "},"":{"ha":665,"x_min":7,"x_max":681,"o":"m 596 496 q 668 436 668 496 q 652 379 668 409 q 602 315 637 349 q 512 251 567 282 q 383 195 457 220 q 382 167 382 183 q 400 110 382 132 q 452 87 418 87 q 550 119 494 87 q 681 211 606 150 l 681 171 q 532 30 605 77 q 408 -18 460 -18 q 325 6 355 -18 q 275 79 295 31 q 136 -1 185 -1 q 75 24 105 -1 q 25 91 44 50 q 7 178 7 133 q 35 286 7 231 q 110 387 64 341 q 205 460 155 433 q 298 488 256 488 q 433 431 360 488 q 523 479 479 463 q 596 496 567 496 m 392 395 q 346 403 369 403 q 191 319 287 403 q 92 144 92 237 q 104 107 92 122 q 135 92 117 92 q 267 155 190 92 q 301 282 269 222 q 392 395 332 342 m 393 233 q 497 293 454 259 q 561 359 539 327 q 583 411 583 392 q 562 428 583 428 q 506 398 547 428 q 431 324 465 368 q 393 233 397 279 z "},"":{"ha":694,"x_min":-8,"x_max":703,"o":"m -8 319 l -8 386 l 703 386 l 703 319 l -8 319 z "},"":{"ha":1389,"x_min":-8,"x_max":1397,"o":"m -8 319 l -8 386 l 1397 386 l 1397 319 l -8 319 z "},"":{"ha":652,"x_min":261,"x_max":583,"o":"m 390 914 q 401 904 401 914 q 374 869 401 894 q 354 846 354 850 q 368 841 354 840 q 391 838 381 842 q 400 812 400 833 q 369 748 400 784 q 301 713 338 713 q 272 726 283 713 q 261 758 261 739 q 286 823 261 786 q 342 887 311 859 q 390 914 374 914 m 572 914 q 583 904 583 914 q 555 869 583 892 q 536 846 536 850 q 550 841 536 840 q 573 838 564 842 q 582 812 582 833 q 551 748 582 784 q 484 713 519 713 q 454 726 465 713 q 443 758 443 739 q 468 823 443 786 q 525 887 493 860 q 572 914 557 914 z "},"":{"ha":652,"x_min":319,"x_max":621,"o":"m 518 757 q 514 761 518 761 q 486 789 486 761 q 504 841 486 811 q 547 892 522 871 q 593 914 573 914 q 621 878 621 914 q 594 798 621 840 q 533 726 567 757 q 492 696 500 696 q 488 700 488 696 q 503 728 488 708 q 518 757 518 745 m 353 757 q 347 761 353 761 q 319 789 319 761 q 337 841 319 811 q 380 892 355 871 q 427 914 406 914 q 454 878 454 914 q 428 799 454 841 q 368 727 401 758 q 326 696 335 696 q 322 700 322 696 q 336 728 322 711 q 353 757 353 748 z "},"":{"ha":463,"x_min":258,"x_max":399,"o":"m 387 914 q 399 904 399 914 q 371 869 399 894 q 351 846 351 850 q 365 841 351 840 q 388 838 378 842 q 397 812 397 833 q 367 748 397 784 q 298 713 336 713 q 269 726 280 713 q 258 758 258 739 q 283 823 258 786 q 340 887 308 859 q 387 914 372 914 z "},"":{"ha":463,"x_min":310,"x_max":444,"o":"m 343 757 q 338 761 343 761 q 310 789 310 761 q 328 841 310 811 q 371 892 345 871 q 416 914 397 914 q 444 878 444 914 q 418 799 444 841 q 358 727 391 758 q 317 696 326 696 q 313 700 313 696 q 326 728 313 709 q 343 757 343 749 z "},"":{"ha":926,"x_min":115,"x_max":859,"o":"m 418 710 q 438 756 418 737 q 485 775 458 775 q 511 770 498 775 q 533 755 524 764 q 548 733 543 745 q 553 708 553 722 q 519 648 553 665 q 452 649 486 631 q 418 710 418 667 m 418 147 q 438 196 418 178 q 486 214 458 214 q 533 197 513 214 q 553 147 553 180 q 533 100 553 120 q 486 81 513 81 q 438 100 458 81 q 418 147 418 120 m 115 374 l 115 476 l 859 476 l 859 374 l 115 374 z "},"":{"ha":926,"x_min":71,"x_max":855,"o":"m 201 715 q 225 650 213 689 q 244 583 238 611 q 255 519 251 555 q 259 457 259 484 q 253 360 259 405 q 234 273 246 315 q 201 189 221 231 q 331 232 265 217 q 464 247 397 247 q 596 232 531 247 q 724 189 662 217 q 676 342 686 286 q 667 454 667 397 q 724 715 667 576 q 461 656 606 656 q 201 715 331 656 m 71 770 l 146 843 q 463 760 302 760 q 616 777 542 760 q 782 843 690 795 l 855 770 q 770 452 770 634 q 855 134 770 283 l 782 60 q 465 143 638 143 q 146 60 296 143 l 71 134 q 156 450 156 279 q 71 770 156 610 z "},"":{"ha":521,"x_min":3,"x_max":572,"o":"m 323 187 l 203 85 q 87 9 117 9 q 32 70 61 9 q 3 176 3 131 q 15 242 3 215 q 56 311 26 269 q 135 409 97 369 q 202 471 173 449 q 243 493 231 493 q 278 474 261 493 q 296 435 296 455 q 277 393 296 422 q 218 321 258 365 q 106 216 178 277 l 93 179 q 87 160 87 168 q 106 142 87 142 q 195 190 125 142 q 347 319 265 238 q 400 376 379 351 q 438 421 421 400 q 466 454 455 443 q 486 465 477 465 q 513 451 503 467 q 522 403 522 435 q 506 357 522 385 q 445 263 490 330 q 356 126 400 197 q 265 -33 311 56 q 307 7 267 -31 q 391 88 347 46 q 463 156 435 130 q 534 215 492 181 l 534 170 q 369 -17 443 71 q 254 -158 294 -105 q 207 -220 214 -211 q 174 -264 189 -243 q 150 -296 159 -285 q 134 -307 140 -307 q 108 -279 119 -307 q 97 -229 97 -251 q 104 -195 97 -210 q 323 187 153 -85 m 278 646 q 252 656 262 646 q 241 682 241 666 q 258 725 241 694 q 297 782 274 757 q 345 807 321 807 q 373 797 362 807 q 383 770 383 787 q 346 693 383 741 q 278 646 309 646 m 471 646 q 446 654 456 646 q 435 676 435 663 q 452 723 435 691 q 493 781 469 755 q 539 807 517 807 q 563 798 553 807 q 572 774 572 789 q 539 694 572 743 q 471 646 505 646 z "},"":{"ha":766,"x_min":-93,"x_max":794,"o":"m -89 472 l -77 551 q -55 618 -71 592 q 0 674 -39 644 q 121 762 39 705 q 428 900 318 900 q 475 886 461 900 q 489 839 489 873 q 471 774 489 815 q 405 643 453 732 q 321 482 357 553 q 253 358 291 424 q 202 269 215 293 q 189 232 189 244 q 198 209 189 218 q 220 199 207 199 q 259 218 237 199 q 346 300 281 237 q 413 374 377 331 q 501 484 448 416 q 599 608 554 551 q 649 673 627 644 q 687 716 671 701 q 713 732 703 732 q 739 711 721 732 l 755 690 q 774 653 774 665 q 723 554 774 640 q 637 405 673 468 q 546 224 602 342 q 439 -39 490 106 q 627 100 576 65 q 701 135 678 135 q 717 122 717 135 q 702 85 717 108 q 662 35 687 62 q 586 -44 637 7 q 476 -157 536 -96 q 405 -243 439 -194 q 351 -320 370 -293 q 317 -351 332 -347 q 275 -341 294 -358 q 256 -288 256 -324 q 282 -181 256 -262 q 361 20 308 -100 q 425 156 392 92 q 499 297 457 220 q 583 443 542 374 q 652 561 623 512 q 517 388 584 472 q 368 212 450 304 q 201 39 286 119 q 149 -8 165 4 q 107 -21 133 -21 q 76 -10 91 -21 q 50 19 60 1 q 40 54 40 37 q 48 104 40 83 q 78 170 57 126 q 212 425 170 356 q 363 696 363 667 q 356 711 363 705 q 339 717 349 717 q 294 700 320 717 q 227 651 267 684 q 130 573 187 618 q 9 486 73 528 q -47 448 -16 470 q -83 425 -79 425 q -93 435 -93 425 q -89 472 -93 444 m 500 1036 q 473 1046 484 1036 q 463 1072 463 1056 q 479 1115 463 1084 q 519 1172 496 1147 q 566 1197 543 1197 q 594 1187 584 1197 q 605 1160 605 1177 q 568 1083 605 1131 q 500 1036 530 1036 m 692 1036 q 667 1044 678 1036 q 656 1066 656 1053 q 674 1113 656 1081 q 715 1171 691 1145 q 761 1197 739 1197 q 784 1188 774 1197 q 794 1164 794 1179 q 761 1084 794 1133 q 692 1036 727 1036 z "},"":{"ha":14,"x_min":-289,"x_max":454,"o":"m 439 908 q 454 893 454 908 q 430 829 454 869 q 365 739 405 789 q 264 617 326 689 q 114 441 202 545 q -51 235 13 323 q -148 92 -114 146 q -203 2 -181 37 q -237 -33 -226 -33 q -271 1 -254 -33 q -289 61 -289 35 q -250 148 -289 85 q -125 317 -211 211 q 75 547 -39 424 q 357 849 299 789 q 439 908 415 908 z "},"":{"ha":671,"x_min":26,"x_max":681,"o":"m 149 471 q 403 700 260 615 q 603 785 546 785 q 665 770 650 785 q 681 724 681 755 q 627 606 681 672 q 543 541 573 541 q 524 576 524 541 q 528 605 524 579 l 530 616 q 522 625 530 625 q 396 564 509 625 q 257 471 283 502 l 393 471 q 453 447 453 471 q 438 419 453 431 q 404 407 424 407 q 360 411 397 407 q 216 416 323 414 q 196 357 200 382 l 387 354 q 418 330 418 354 q 397 304 418 319 q 361 290 377 290 q 330 294 353 290 q 191 302 310 298 l 191 298 q 229 187 191 233 q 326 140 267 140 q 457 175 373 140 q 640 277 541 210 l 640 203 q 417 31 485 65 q 293 -4 349 -4 q 150 87 210 -4 q 90 301 90 178 l 90 302 q 26 332 26 304 q 48 349 26 341 q 82 357 69 357 l 96 357 q 117 419 104 393 q 55 429 63 423 q 46 446 46 435 q 62 463 46 455 q 89 471 77 471 l 149 471 z "},"":{"ha":347,"x_min":71,"x_max":301,"o":"m 201 224 q 237 115 201 199 q 272 26 272 31 q 241 3 272 3 q 209 12 220 3 q 178 51 198 20 q 153 90 159 81 q 71 235 71 209 q 81 267 71 248 q 111 313 91 286 q 152 367 130 340 q 221 453 174 395 q 273 489 251 489 q 293 482 286 489 q 301 461 301 475 q 289 426 301 452 q 252 351 276 399 q 215 271 229 303 q 201 224 201 239 z "},"":{"ha":347,"x_min":71,"x_max":301,"o":"m 171 269 q 135 379 171 296 q 100 467 100 463 q 131 489 100 489 q 163 481 152 489 q 194 443 174 473 q 220 403 214 412 q 301 258 301 283 q 284 214 301 242 q 236 145 268 185 q 151 40 205 105 q 124 12 135 20 q 98 3 114 3 q 79 12 88 3 q 71 32 71 20 q 121 144 71 43 q 171 269 171 246 z "},"":{"ha":694,"x_min":138,"x_max":733,"o":"m 460 699 q 496 803 482 762 q 522 868 510 843 q 544 905 533 894 q 568 916 554 916 q 599 886 599 916 q 594 853 599 872 q 574 789 589 833 q 543 699 559 745 q 657 701 629 701 q 720 700 706 701 q 733 684 733 699 q 708 632 733 667 q 661 591 683 598 q 505 587 641 587 q 446 407 453 430 q 523 408 478 407 q 578 410 568 410 q 628 393 628 410 q 624 382 628 388 q 616 369 621 376 q 608 359 611 363 q 588 329 599 345 q 558 304 578 313 q 504 296 539 296 q 476 297 499 296 q 416 300 452 298 q 387 209 405 261 q 366 144 369 156 q 341 69 357 121 q 318 -1 326 17 q 301 -20 310 -20 q 277 18 292 -20 q 261 85 261 55 q 269 137 261 110 q 293 211 277 165 q 322 296 310 258 q 263 295 283 296 q 218 294 242 295 q 157 298 176 294 q 138 313 138 302 q 157 342 138 322 q 226 380 176 361 q 359 404 276 399 q 422 585 398 502 q 261 579 363 583 q 218 579 231 578 q 205 591 205 581 q 210 603 205 597 q 221 614 214 609 q 232 624 227 620 q 301 673 277 660 q 355 691 326 687 q 460 699 384 695 z "},"":{"ha":463,"x_min":195,"x_max":321,"o":"m 225 346 q 203 355 212 346 q 195 379 195 365 q 227 452 195 401 q 290 503 259 503 q 321 467 321 503 q 304 416 321 445 q 266 367 288 388 q 225 346 243 346 z "},"":{"ha":463,"x_min":94,"x_max":229,"o":"m 127 -16 q 122 -11 127 -11 q 94 17 94 -11 q 113 70 94 41 q 156 121 131 100 q 201 142 181 142 q 229 106 229 142 q 202 27 229 69 q 143 -46 176 -15 q 102 -77 111 -77 q 97 -72 97 -77 q 111 -45 97 -64 q 127 -16 127 -22 z "},"":{"ha":652,"x_min":100,"x_max":401,"o":"m 298 -16 q 294 -11 298 -11 q 267 17 267 -11 q 285 70 267 41 q 328 121 303 100 q 374 142 353 142 q 401 106 401 142 q 375 27 401 68 q 314 -45 349 -14 q 272 -77 280 -77 q 268 -72 268 -77 q 283 -45 268 -66 q 298 -16 298 -24 m 134 -16 q 127 -11 134 -11 q 100 17 100 -11 q 118 70 100 41 q 161 121 136 100 q 207 142 186 142 q 235 106 235 142 q 208 27 235 69 q 149 -46 181 -15 q 107 -77 116 -77 q 103 -72 103 -77 q 117 -45 103 -63 q 134 -16 134 -22 z "},"":{"ha":1215,"x_min":143,"x_max":1156,"o":"m 493 771 q 523 752 513 766 q 533 704 533 738 q 502 582 533 649 q 419 469 471 515 q 307 422 367 422 q 233 456 262 422 q 204 549 204 490 q 239 667 204 608 q 330 766 273 727 q 443 806 386 806 q 472 797 462 806 q 493 771 483 789 m 319 507 q 402 541 362 507 q 466 622 442 575 q 490 700 490 668 q 469 737 490 737 q 443 732 467 737 q 408 733 420 726 q 405 736 407 734 q 400 737 402 737 q 359 709 391 737 q 303 640 328 681 q 278 555 278 599 q 290 520 278 534 q 319 507 302 507 m 772 317 q 805 293 797 308 q 812 237 812 279 q 774 112 812 174 q 685 11 735 50 q 604 -29 634 -29 q 541 12 573 -29 q 509 110 509 52 q 541 214 509 157 q 623 309 572 270 q 724 347 673 347 q 772 317 751 347 m 567 106 q 582 54 567 68 q 623 53 597 40 q 681 104 649 66 q 734 191 715 147 q 754 258 754 235 q 733 290 754 290 q 674 265 716 290 q 600 197 633 239 q 567 106 567 155 m 143 28 q 193 120 143 60 q 383 329 242 180 q 513 458 451 400 q 610 547 575 517 q 716 634 646 576 q 799 704 787 692 q 870 760 849 749 q 890 739 890 771 q 863 682 890 715 q 757 574 836 649 q 594 414 677 498 q 412 216 510 329 q 325 110 363 160 q 252 11 286 60 q 205 -52 217 -39 q 183 -65 194 -65 q 156 -31 169 -65 q 143 28 143 4 m 1117 317 q 1148 294 1141 308 q 1156 237 1156 279 q 1133 142 1156 191 q 1074 54 1109 94 q 1005 -7 1038 14 q 949 -29 971 -29 q 884 11 917 -29 q 851 110 851 52 q 883 214 851 157 q 966 309 916 271 q 1067 347 1017 347 q 1117 317 1095 347 m 909 106 q 943 46 909 47 q 1023 104 976 45 q 1077 191 1057 147 q 1097 258 1097 235 q 1078 290 1097 290 q 1018 265 1060 290 q 943 197 977 240 q 909 106 909 155 z "},"":{"ha":882,"x_min":-85,"x_max":1155,"o":"m 604 279 q 485 277 523 277 q 323 279 427 277 q 271 223 302 256 q 212 164 239 191 q 164 117 184 136 q 131 85 144 98 q 33 -11 56 12 q -15 -51 10 -33 q -61 -69 -40 -69 q -85 -47 -85 -69 q -51 26 -85 -24 q 26 113 -17 75 q 96 151 68 151 q 117 144 103 151 l 245 282 q 182 287 221 286 q 129 292 142 288 q 115 315 115 297 q 178 407 115 345 q 241 451 212 441 q 355 461 271 460 q 285 445 306 454 q 262 418 264 436 q 299 418 282 418 q 342 418 315 418 q 382 419 369 418 q 584 608 493 528 q 775 761 675 688 q 990 893 876 833 q 1013 832 1013 864 q 995 771 1013 806 q 922 641 978 736 q 808 439 866 546 q 840 438 827 439 q 867 437 852 438 q 914 436 905 437 q 922 422 922 435 q 912 403 922 417 q 875 357 901 389 q 823 292 848 325 l 724 283 q 644 115 644 134 q 673 87 644 87 q 791 147 688 87 l 786 111 q 700 45 730 69 q 646 5 669 21 q 605 -19 623 -11 q 567 -26 586 -26 q 523 -6 545 -26 q 501 53 501 15 q 513 97 501 68 q 537 153 524 126 q 604 279 551 179 m 476 433 l 696 437 q 759 544 734 503 q 811 632 783 585 q 861 713 840 680 q 907 789 882 747 q 807 721 858 758 q 692 631 756 684 q 579 533 629 578 q 476 433 530 488 m 1030 1104 q 1014 1094 1024 1104 q 995 1074 1004 1084 q 902 1005 934 1005 q 871 1031 871 1005 q 907 1096 871 1046 q 987 1186 943 1145 q 1062 1226 1031 1226 q 1112 1187 1093 1226 q 1141 1102 1128 1154 q 1155 1036 1155 1050 q 1148 1016 1155 1025 q 1130 1006 1141 1006 q 1089 1028 1112 1006 q 1044 1090 1066 1050 q 1030 1104 1039 1104 z "},"":{"ha":854,"x_min":46,"x_max":904,"o":"m 904 854 l 904 808 q 893 772 904 780 q 811 732 882 765 q 675 656 740 700 q 721 710 700 692 q 777 754 741 728 q 692 766 746 766 q 510 733 608 766 q 345 654 413 700 q 277 576 277 608 q 297 550 277 560 q 364 533 318 539 q 478 526 410 528 q 647 524 547 524 q 741 518 720 524 q 762 493 762 513 q 738 436 762 468 q 672 397 713 404 q 572 380 609 387 q 483 356 534 373 q 370 307 432 339 q 224 208 277 258 q 172 119 172 158 q 210 67 172 86 q 317 49 247 49 q 807 265 557 49 q 792 148 808 199 q 728 52 777 98 q 609 -22 687 13 q 438 -79 530 -58 q 264 -100 345 -100 q 108 -55 170 -100 q 46 65 46 -9 q 76 173 46 119 q 168 276 106 227 q 324 365 229 325 q 542 428 418 405 q 559 439 559 431 q 539 449 559 447 q 463 451 518 450 q 366 456 408 452 q 277 473 323 460 q 202 526 229 488 q 176 608 176 563 q 218 726 176 667 q 337 832 260 785 q 523 908 414 880 q 761 937 631 937 q 865 929 836 937 q 899 906 895 920 q 904 854 904 892 m 752 1104 q 736 1094 746 1104 q 717 1074 726 1084 q 624 1005 656 1005 q 593 1031 593 1005 q 629 1096 593 1046 q 709 1186 665 1145 q 784 1226 753 1226 q 833 1187 815 1226 q 863 1102 850 1154 q 877 1036 877 1050 q 870 1016 877 1025 q 852 1006 863 1006 q 811 1028 834 1006 q 766 1090 788 1050 q 752 1104 761 1104 z "},"":{"ha":882,"x_min":-85,"x_max":1209,"o":"m 604 279 q 485 277 523 277 q 323 279 427 277 q 271 223 302 256 q 212 164 239 191 q 164 117 184 136 q 131 85 144 98 q 33 -11 56 12 q -15 -51 10 -33 q -61 -69 -40 -69 q -85 -47 -85 -69 q -51 26 -85 -24 q 26 113 -17 75 q 96 151 68 151 q 117 144 103 151 l 245 282 q 182 287 221 286 q 129 292 142 288 q 115 315 115 297 q 178 407 115 345 q 241 451 212 441 q 355 461 271 460 q 285 445 306 454 q 262 418 264 436 q 299 418 282 418 q 342 418 315 418 q 382 419 369 418 q 584 608 493 528 q 775 761 675 688 q 990 893 876 833 q 1013 832 1013 864 q 995 771 1013 806 q 922 641 978 736 q 808 439 866 546 q 840 438 827 439 q 867 437 852 438 q 914 436 905 437 q 922 422 922 435 q 912 403 922 417 q 875 357 901 389 q 823 292 848 325 l 724 283 q 644 115 644 134 q 673 87 644 87 q 791 147 688 87 l 786 111 q 700 45 730 69 q 646 5 669 21 q 605 -19 623 -11 q 567 -26 586 -26 q 523 -6 545 -26 q 501 53 501 15 q 513 97 501 68 q 537 153 524 126 q 604 279 551 179 m 476 433 l 696 437 q 759 544 734 503 q 811 632 783 585 q 861 713 840 680 q 907 789 882 747 q 807 721 858 758 q 692 631 756 684 q 579 533 629 578 q 476 433 530 488 m 1009 1006 q 988 1014 998 1006 q 979 1031 979 1022 q 1049 1160 979 1057 q 1100 1216 1080 1202 q 1159 1230 1121 1230 q 1209 1196 1209 1230 q 1165 1131 1209 1176 q 1072 1046 1122 1085 q 1009 1006 1022 1006 z "},"":{"ha":854,"x_min":46,"x_max":932,"o":"m 904 854 l 904 808 q 893 772 904 780 q 811 732 882 765 q 675 656 740 700 q 721 710 700 692 q 777 754 741 728 q 692 766 746 766 q 510 733 608 766 q 345 654 413 700 q 277 576 277 608 q 297 550 277 560 q 364 533 318 539 q 478 526 410 528 q 647 524 547 524 q 741 518 720 524 q 762 493 762 513 q 738 436 762 468 q 672 397 713 404 q 572 380 609 387 q 483 356 534 373 q 370 307 432 339 q 224 208 277 258 q 172 119 172 158 q 210 67 172 86 q 317 49 247 49 q 807 265 557 49 q 792 148 808 199 q 728 52 777 98 q 609 -22 687 13 q 438 -79 530 -58 q 264 -100 345 -100 q 108 -55 170 -100 q 46 65 46 -9 q 76 173 46 119 q 168 276 106 227 q 324 365 229 325 q 542 428 418 405 q 559 439 559 431 q 539 449 559 447 q 463 451 518 450 q 366 456 408 452 q 277 473 323 460 q 202 526 229 488 q 176 608 176 563 q 218 726 176 667 q 337 832 260 785 q 523 908 414 880 q 761 937 631 937 q 865 929 836 937 q 899 906 895 920 q 904 854 904 892 m 638 1036 q 612 1046 622 1036 q 602 1072 602 1056 q 618 1115 602 1084 q 657 1172 634 1147 q 705 1197 681 1197 q 733 1187 722 1197 q 743 1160 743 1177 q 706 1083 743 1131 q 638 1036 669 1036 m 831 1036 q 806 1044 817 1036 q 795 1066 795 1053 q 812 1113 795 1081 q 853 1171 829 1145 q 899 1197 878 1197 q 923 1188 913 1197 q 932 1164 932 1179 q 899 1084 932 1133 q 831 1036 865 1036 z "},"":{"ha":854,"x_min":46,"x_max":904,"o":"m 904 854 l 904 808 q 893 772 904 780 q 811 732 882 765 q 675 656 740 700 q 721 710 700 692 q 777 754 741 728 q 692 766 746 766 q 510 733 608 766 q 345 654 413 700 q 277 576 277 608 q 297 550 277 560 q 364 533 318 539 q 478 526 410 528 q 647 524 547 524 q 741 518 720 524 q 762 493 762 513 q 738 436 762 468 q 672 397 713 404 q 572 380 609 387 q 483 356 534 373 q 370 307 432 339 q 224 208 277 258 q 172 119 172 158 q 210 67 172 86 q 317 49 247 49 q 807 265 557 49 q 792 148 808 199 q 728 52 777 98 q 609 -22 687 13 q 438 -79 530 -58 q 264 -100 345 -100 q 108 -55 170 -100 q 46 65 46 -9 q 76 173 46 119 q 168 276 106 227 q 324 365 229 325 q 542 428 418 405 q 559 439 559 431 q 539 449 559 447 q 463 451 518 450 q 366 456 408 452 q 277 473 323 460 q 202 526 229 488 q 176 608 176 563 q 218 726 176 667 q 337 832 260 785 q 523 908 414 880 q 761 937 631 937 q 865 929 836 937 q 899 906 895 920 q 904 854 904 892 m 775 1008 q 720 1051 753 1008 q 656 1141 680 1104 q 632 1200 632 1179 q 675 1229 632 1229 q 736 1205 715 1229 q 783 1116 758 1181 q 804 1038 804 1059 q 796 1017 804 1026 q 775 1008 788 1008 z "},"":{"ha":608,"x_min":41,"x_max":695,"o":"m 248 -20 l 205 11 q 196 28 196 19 q 228 89 196 37 q 290 191 251 126 q 353 298 329 256 q 411 409 376 340 q 473 542 445 477 q 539 733 539 692 q 501 782 539 782 q 420 753 473 782 q 311 677 368 724 q 218 580 255 631 q 180 490 180 529 q 184 481 180 484 q 196 478 187 478 q 249 497 212 478 q 265 494 265 505 q 214 438 265 484 q 138 393 162 393 q 79 430 117 393 q 41 496 41 466 q 62 551 41 507 q 120 649 83 594 q 197 743 157 703 q 304 827 244 790 q 419 884 364 863 q 509 904 475 904 q 585 867 557 904 q 612 764 612 830 q 543 509 612 675 q 330 118 474 342 q 335 103 332 111 q 338 89 338 96 q 336 84 338 87 q 331 76 334 80 q 328 71 328 72 l 278 -11 q 261 -25 270 -25 q 248 -20 253 -25 m 495 1006 q 474 1014 484 1006 q 465 1031 465 1022 q 535 1160 465 1057 q 586 1216 566 1202 q 645 1230 607 1230 q 695 1196 695 1230 q 651 1131 695 1176 q 558 1046 608 1085 q 495 1006 508 1006 z "},"":{"ha":608,"x_min":41,"x_max":641,"o":"m 248 -20 l 205 11 q 196 28 196 19 q 228 89 196 37 q 290 191 251 126 q 353 298 329 256 q 411 409 376 340 q 473 542 445 477 q 539 733 539 692 q 501 782 539 782 q 420 753 473 782 q 311 677 368 724 q 218 580 255 631 q 180 490 180 529 q 184 481 180 484 q 196 478 187 478 q 249 497 212 478 q 265 494 265 505 q 214 438 265 484 q 138 393 162 393 q 79 430 117 393 q 41 496 41 466 q 62 551 41 507 q 120 649 83 594 q 197 743 157 703 q 304 827 244 790 q 419 884 364 863 q 509 904 475 904 q 585 867 557 904 q 612 764 612 830 q 543 509 612 675 q 330 118 474 342 q 335 103 332 111 q 338 89 338 96 q 336 84 338 87 q 331 76 334 80 q 328 71 328 72 l 278 -11 q 261 -25 270 -25 q 248 -20 253 -25 m 516 1104 q 500 1094 510 1104 q 481 1074 490 1084 q 388 1005 420 1005 q 357 1031 357 1005 q 393 1096 357 1046 q 473 1186 429 1145 q 548 1226 517 1226 q 597 1187 579 1226 q 627 1102 614 1154 q 641 1036 641 1050 q 634 1016 641 1025 q 616 1006 627 1006 q 575 1028 598 1006 q 530 1090 552 1050 q 516 1104 525 1104 z "},"":{"ha":608,"x_min":41,"x_max":696,"o":"m 248 -20 l 205 11 q 196 28 196 19 q 228 89 196 37 q 290 191 251 126 q 353 298 329 256 q 411 409 376 340 q 473 542 445 477 q 539 733 539 692 q 501 782 539 782 q 420 753 473 782 q 311 677 368 724 q 218 580 255 631 q 180 490 180 529 q 184 481 180 484 q 196 478 187 478 q 249 497 212 478 q 265 494 265 505 q 214 438 265 484 q 138 393 162 393 q 79 430 117 393 q 41 496 41 466 q 62 551 41 507 q 120 649 83 594 q 197 743 157 703 q 304 827 244 790 q 419 884 364 863 q 509 904 475 904 q 585 867 557 904 q 612 764 612 830 q 543 509 612 675 q 330 118 474 342 q 335 103 332 111 q 338 89 338 96 q 336 84 338 87 q 331 76 334 80 q 328 71 328 72 l 278 -11 q 261 -25 270 -25 q 248 -20 253 -25 m 402 1036 q 376 1046 386 1036 q 366 1072 366 1056 q 382 1115 366 1084 q 421 1172 398 1147 q 469 1197 445 1197 q 497 1187 486 1197 q 507 1160 507 1177 q 470 1083 507 1131 q 402 1036 433 1036 m 595 1036 q 570 1044 581 1036 q 559 1066 559 1053 q 576 1113 559 1081 q 617 1171 593 1145 q 663 1197 642 1197 q 687 1188 677 1197 q 696 1164 696 1179 q 663 1084 696 1133 q 595 1036 629 1036 z "},"":{"ha":608,"x_min":41,"x_max":612,"o":"m 248 -20 l 205 11 q 196 28 196 19 q 228 89 196 37 q 290 191 251 126 q 353 298 329 256 q 411 409 376 340 q 473 542 445 477 q 539 733 539 692 q 501 782 539 782 q 420 753 473 782 q 311 677 368 724 q 218 580 255 631 q 180 490 180 529 q 184 481 180 484 q 196 478 187 478 q 249 497 212 478 q 265 494 265 505 q 214 438 265 484 q 138 393 162 393 q 79 430 117 393 q 41 496 41 466 q 62 551 41 507 q 120 649 83 594 q 197 743 157 703 q 304 827 244 790 q 419 884 364 863 q 509 904 475 904 q 585 867 557 904 q 612 764 612 830 q 543 509 612 675 q 330 118 474 342 q 335 103 332 111 q 338 89 338 96 q 336 84 338 87 q 331 76 334 80 q 328 71 328 72 l 278 -11 q 261 -25 270 -25 q 248 -20 253 -25 m 539 1008 q 484 1051 517 1008 q 420 1141 444 1104 q 396 1200 396 1179 q 439 1229 396 1229 q 500 1205 479 1229 q 547 1116 522 1181 q 568 1038 568 1059 q 560 1017 568 1026 q 539 1008 552 1008 z "},"":{"ha":796,"x_min":54,"x_max":823,"o":"m 524 696 q 561 705 542 701 q 598 713 579 710 q 636 717 618 717 q 704 699 675 717 q 746 651 732 682 q 760 586 760 621 q 740 460 760 531 q 682 316 720 389 q 595 178 645 243 q 430 36 526 90 q 254 -18 334 -18 q 150 14 195 -18 q 80 107 105 46 q 54 252 54 169 q 115 474 54 363 q 268 676 176 586 q 455 822 361 767 q 608 876 549 876 q 682 847 656 876 q 730 751 708 817 q 621 736 667 749 q 524 696 574 723 m 353 558 q 257 427 305 507 q 178 269 208 347 q 149 151 149 192 q 243 50 149 50 q 413 139 309 50 q 594 353 517 228 q 671 581 671 478 q 611 656 671 656 q 498 619 565 656 q 371 515 432 583 q 285 396 349 491 q 353 558 297 460 m 623 1006 q 602 1014 612 1006 q 593 1031 593 1022 q 663 1160 593 1057 q 714 1216 694 1202 q 773 1230 735 1230 q 823 1196 823 1230 q 780 1131 823 1176 q 686 1046 736 1085 q 623 1006 636 1006 z "},"":{"ha":796,"x_min":54,"x_max":769,"o":"m 524 696 q 561 705 542 701 q 598 713 579 710 q 636 717 618 717 q 704 699 675 717 q 746 651 732 682 q 760 586 760 621 q 740 460 760 531 q 682 316 720 389 q 595 178 645 243 q 430 36 526 90 q 254 -18 334 -18 q 150 14 195 -18 q 80 107 105 46 q 54 252 54 169 q 115 474 54 363 q 268 676 176 586 q 455 822 361 767 q 608 876 549 876 q 682 847 656 876 q 730 751 708 817 q 621 736 667 749 q 524 696 574 723 m 353 558 q 257 427 305 507 q 178 269 208 347 q 149 151 149 192 q 243 50 149 50 q 413 139 309 50 q 594 353 517 228 q 671 581 671 478 q 611 656 671 656 q 498 619 565 656 q 371 515 432 583 q 285 396 349 491 q 353 558 297 460 m 644 1104 q 628 1094 638 1104 q 609 1074 618 1084 q 516 1005 548 1005 q 486 1031 486 1005 q 522 1096 486 1046 q 601 1186 557 1145 q 676 1226 645 1226 q 726 1187 707 1226 q 755 1102 742 1154 q 769 1036 769 1050 q 762 1016 769 1025 q 744 1006 755 1006 q 703 1028 726 1006 q 658 1090 680 1050 q 644 1104 653 1104 z "},"":{"ha":796,"x_min":54,"x_max":760,"o":"m 524 696 q 561 705 542 701 q 598 713 579 710 q 636 717 618 717 q 704 699 675 717 q 746 651 732 682 q 760 586 760 621 q 740 460 760 531 q 682 316 720 389 q 595 178 645 243 q 430 36 526 90 q 254 -18 334 -18 q 150 14 195 -18 q 80 107 105 46 q 54 252 54 169 q 115 474 54 363 q 268 676 176 586 q 455 822 361 767 q 608 876 549 876 q 682 847 656 876 q 730 751 708 817 q 621 736 667 749 q 524 696 574 723 m 353 558 q 257 427 305 507 q 178 269 208 347 q 149 151 149 192 q 243 50 149 50 q 413 139 309 50 q 594 353 517 228 q 671 581 671 478 q 611 656 671 656 q 498 619 565 656 q 371 515 432 583 q 285 396 349 491 q 353 558 297 460 m 667 1008 q 612 1051 645 1008 q 548 1141 572 1104 q 524 1200 524 1179 q 568 1229 524 1229 q 629 1205 607 1229 q 675 1116 650 1181 q 696 1038 696 1059 q 688 1017 696 1026 q 667 1008 680 1008 z "},"":{"ha":868,"x_min":-54,"x_max":956,"o":"m 832 534 q 720 357 766 437 q 652 222 675 278 q 629 139 629 166 q 673 89 629 89 q 885 216 720 89 l 884 170 q 604 -25 693 -25 q 498 85 498 -25 q 563 271 498 151 q 760 583 627 392 q 500 304 604 414 q 285 93 396 195 q 237 47 258 68 q 193 15 215 26 q 146 3 172 3 q 79 34 106 3 q 53 122 53 65 q 75 207 53 159 q 140 320 96 256 q 249 461 184 385 q 393 638 353 587 q 433 704 433 690 q 422 714 433 714 q 379 702 410 714 q 300 664 349 690 q 172 587 250 637 q 57 528 114 551 q -22 505 1 505 q -45 513 -36 505 q -54 532 -54 520 q -40 585 -54 548 q -3 662 -26 622 q 37 721 20 701 q 171 817 86 775 q 345 880 256 858 q 493 903 435 903 q 556 888 536 903 q 576 840 576 873 q 558 728 576 768 q 497 625 540 688 q 451 558 481 601 q 388 476 420 516 q 336 408 357 435 q 294 349 316 381 q 220 237 235 262 q 204 193 204 212 q 227 170 204 170 q 266 184 247 170 q 347 253 285 199 q 487 382 419 315 q 610 512 555 450 q 751 671 666 573 q 873 810 847 782 q 917 838 900 838 q 944 813 932 838 q 956 746 956 789 q 932 685 956 723 q 832 534 909 646 m 731 1006 q 710 1014 720 1006 q 701 1031 701 1022 q 771 1160 701 1057 q 822 1216 802 1202 q 881 1230 843 1230 q 931 1196 931 1230 q 887 1131 931 1176 q 794 1046 844 1085 q 731 1006 744 1006 z "},"":{"ha":868,"x_min":-54,"x_max":956,"o":"m 832 534 q 720 357 766 437 q 652 222 675 278 q 629 139 629 166 q 673 89 629 89 q 885 216 720 89 l 884 170 q 604 -25 693 -25 q 498 85 498 -25 q 563 271 498 151 q 760 583 627 392 q 500 304 604 414 q 285 93 396 195 q 237 47 258 68 q 193 15 215 26 q 146 3 172 3 q 79 34 106 3 q 53 122 53 65 q 75 207 53 159 q 140 320 96 256 q 249 461 184 385 q 393 638 353 587 q 433 704 433 690 q 422 714 433 714 q 379 702 410 714 q 300 664 349 690 q 172 587 250 637 q 57 528 114 551 q -22 505 1 505 q -45 513 -36 505 q -54 532 -54 520 q -40 585 -54 548 q -3 662 -26 622 q 37 721 20 701 q 171 817 86 775 q 345 880 256 858 q 493 903 435 903 q 556 888 536 903 q 576 840 576 873 q 558 728 576 768 q 497 625 540 688 q 451 558 481 601 q 388 476 420 516 q 336 408 357 435 q 294 349 316 381 q 220 237 235 262 q 204 193 204 212 q 227 170 204 170 q 266 184 247 170 q 347 253 285 199 q 487 382 419 315 q 610 512 555 450 q 751 671 666 573 q 873 810 847 782 q 917 838 900 838 q 944 813 932 838 q 956 746 956 789 q 932 685 956 723 q 832 534 909 646 m 752 1104 q 736 1094 746 1104 q 717 1074 726 1084 q 624 1005 656 1005 q 593 1031 593 1005 q 629 1096 593 1046 q 709 1186 665 1145 q 784 1226 753 1226 q 833 1187 815 1226 q 863 1102 850 1154 q 877 1036 877 1050 q 870 1016 877 1025 q 852 1006 863 1006 q 811 1028 834 1006 q 766 1090 788 1050 q 752 1104 761 1104 z "},"":{"ha":868,"x_min":-54,"x_max":956,"o":"m 832 534 q 720 357 766 437 q 652 222 675 278 q 629 139 629 166 q 673 89 629 89 q 885 216 720 89 l 884 170 q 604 -25 693 -25 q 498 85 498 -25 q 563 271 498 151 q 760 583 627 392 q 500 304 604 414 q 285 93 396 195 q 237 47 258 68 q 193 15 215 26 q 146 3 172 3 q 79 34 106 3 q 53 122 53 65 q 75 207 53 159 q 140 320 96 256 q 249 461 184 385 q 393 638 353 587 q 433 704 433 690 q 422 714 433 714 q 379 702 410 714 q 300 664 349 690 q 172 587 250 637 q 57 528 114 551 q -22 505 1 505 q -45 513 -36 505 q -54 532 -54 520 q -40 585 -54 548 q -3 662 -26 622 q 37 721 20 701 q 171 817 86 775 q 345 880 256 858 q 493 903 435 903 q 556 888 536 903 q 576 840 576 873 q 558 728 576 768 q 497 625 540 688 q 451 558 481 601 q 388 476 420 516 q 336 408 357 435 q 294 349 316 381 q 220 237 235 262 q 204 193 204 212 q 227 170 204 170 q 266 184 247 170 q 347 253 285 199 q 487 382 419 315 q 610 512 555 450 q 751 671 666 573 q 873 810 847 782 q 917 838 900 838 q 944 813 932 838 q 956 746 956 789 q 932 685 956 723 q 832 534 909 646 m 775 1008 q 720 1051 753 1008 q 656 1141 680 1104 q 632 1200 632 1179 q 675 1229 632 1229 q 736 1205 715 1229 q 783 1116 758 1181 q 804 1038 804 1059 q 796 1017 804 1026 q 775 1008 788 1008 z "},"":{"ha":318,"x_min":5,"x_max":335,"o":"m 335 214 l 335 164 q 212 36 269 79 q 115 -7 155 -7 q 33 52 60 -7 q 5 179 5 110 q 11 230 5 205 q 24 269 16 254 q 52 318 31 285 q 228 468 148 468 q 269 436 269 468 q 242 368 269 414 q 195 302 216 322 q 118 223 136 245 q 100 172 100 201 q 118 132 100 148 q 165 115 136 115 q 236 139 197 115 q 335 214 274 162 z "},"":{"ha":463,"x_min":178,"x_max":461,"o":"m 336 714 q 320 704 330 714 q 301 684 311 694 q 208 615 240 615 q 178 642 178 615 q 214 706 178 656 q 293 796 250 755 q 368 836 337 836 q 418 798 399 836 q 448 712 434 764 q 461 646 461 660 q 454 626 461 635 q 436 616 447 616 q 395 638 418 616 q 350 700 372 661 q 336 714 345 714 z "},"":{"ha":463,"x_min":79,"x_max":504,"o":"m 214 707 q 178 699 193 707 q 144 675 164 690 q 98 652 115 652 q 79 672 79 652 q 102 724 79 692 q 164 778 124 755 q 257 800 205 800 q 311 792 288 800 q 362 768 334 783 q 403 753 391 753 q 449 771 425 753 q 484 786 468 786 q 504 754 504 786 q 488 712 504 739 q 443 666 472 686 q 378 647 413 647 q 326 662 355 647 q 266 692 296 677 q 214 707 236 707 z "},"":{"ha":463,"x_min":72,"x_max":515,"o":"m 505 671 l 72 671 l 82 772 l 515 772 l 505 671 z "},"":{"ha":463,"x_min":115,"x_max":475,"o":"m 150 814 q 192 789 167 814 q 241 754 218 764 q 296 743 264 743 q 408 787 353 743 q 446 808 433 808 q 466 800 458 808 q 475 775 475 791 q 448 717 475 749 q 376 664 421 686 q 283 642 331 642 q 164 686 213 642 q 115 774 115 731 q 125 802 115 790 q 150 814 135 814 z "},"":{"ha":463,"x_min":281,"x_max":422,"o":"m 317 646 q 291 656 300 646 q 281 682 281 667 q 296 725 281 694 q 336 782 312 756 q 383 807 359 807 q 412 797 401 807 q 422 770 422 787 q 405 722 422 753 q 362 669 387 692 q 317 646 337 646 z "},"":{"ha":463,"x_min":215,"x_max":444,"o":"m 314 612 q 243 642 272 612 q 215 711 215 671 q 232 773 215 742 q 280 824 250 804 q 346 844 310 844 q 417 817 390 844 q 444 745 444 790 q 425 682 444 713 q 376 632 406 651 q 314 612 346 612 m 321 654 q 357 668 338 654 q 389 700 376 681 q 401 737 401 720 q 390 771 401 758 q 358 783 378 783 q 320 770 340 783 q 290 736 301 757 q 278 700 278 716 q 290 667 278 680 q 321 654 302 654 z "},"":{"ha":463,"x_min":-66,"x_max":172,"o":"m 97 -122 q 152 -141 132 -122 q 172 -192 172 -159 q 143 -267 172 -233 q 68 -320 114 -300 q -25 -340 22 -340 q -66 -321 -66 -340 q -59 -308 -66 -311 q -36 -302 -52 -306 q 40 -272 8 -296 q 72 -220 72 -248 q 65 -199 72 -206 q 46 -192 58 -192 q 36 -192 40 -192 q 26 -193 31 -193 q 9 -176 9 -193 q 38 -140 9 -157 q 97 -122 66 -122 z "},"":{"ha":463,"x_min":179,"x_max":639,"o":"m 210 616 q 190 624 200 616 q 179 640 179 632 q 250 770 179 669 q 299 826 281 812 q 355 840 317 840 q 396 833 382 840 q 410 804 410 827 q 366 742 410 787 q 273 656 323 696 q 210 616 223 616 m 439 616 q 418 625 428 616 q 408 640 408 633 q 479 770 408 666 q 528 826 509 812 q 585 840 547 840 q 625 833 612 840 q 639 804 639 827 q 595 742 639 787 q 502 656 552 696 q 439 616 452 616 z "},"":{"ha":463,"x_min":77,"x_max":403,"o":"m 386 -150 l 403 -192 q 235 -224 311 -224 q 120 -192 163 -224 q 77 -115 77 -161 q 107 -45 77 -78 q 196 14 138 -12 l 244 14 q 190 -35 209 -12 q 171 -89 171 -58 q 198 -146 171 -122 q 273 -171 225 -171 q 386 -150 316 -171 z "},"":{"ha":463,"x_min":227,"x_max":510,"o":"m 353 737 q 362 741 357 737 q 374 753 367 745 q 386 768 380 762 q 481 836 446 836 q 510 810 510 836 q 474 745 510 794 q 394 656 439 696 q 319 615 349 615 q 282 633 296 615 q 253 697 268 651 q 227 806 227 774 q 233 825 227 816 q 252 835 240 835 q 277 825 262 835 q 309 794 292 814 q 338 751 326 773 q 344 743 339 748 q 353 737 349 737 z "},"":{"ha":897,"x_min":14,"x_max":958,"o":"m 713 196 q 662 252 696 227 q 586 293 628 277 q 497 315 543 308 q 241 404 360 336 q 220 427 231 410 q 208 461 208 445 q 228 581 208 521 q 279 675 248 641 q 460 773 330 731 q 754 815 591 815 q 905 800 852 815 q 958 754 958 785 q 944 675 958 703 q 915 638 930 648 q 859 614 899 629 q 784 583 816 599 q 730 551 753 566 q 703 536 708 536 q 696 542 696 536 q 720 577 696 553 q 779 618 744 600 q 817 643 817 637 q 775 652 817 652 q 543 629 650 652 q 375 570 437 607 q 314 496 314 534 q 339 462 314 472 q 452 429 365 452 q 607 376 538 406 q 753 289 705 334 q 800 187 800 243 q 782 110 800 149 q 727 38 763 71 q 644 -16 691 5 q 544 -47 604 -33 q 412 -71 483 -62 q 277 -79 341 -79 q 86 -57 158 -79 q 14 11 14 -35 q 38 74 14 31 q 96 132 62 117 q 152 145 125 144 q 179 139 179 147 q 177 135 179 137 q 172 132 175 133 q 167 129 170 130 q 145 120 153 123 q 131 114 136 117 q 126 106 126 111 q 267 92 126 92 q 467 100 389 92 q 604 132 545 109 q 713 196 664 155 m 768 1127 q 778 1131 772 1127 q 789 1143 783 1135 q 802 1158 796 1152 q 897 1226 862 1226 q 926 1200 926 1226 q 890 1135 926 1184 q 810 1046 854 1086 q 735 1005 765 1005 q 697 1023 711 1005 q 669 1087 684 1041 q 642 1196 642 1164 q 649 1215 642 1206 q 667 1225 656 1225 q 693 1215 678 1225 q 724 1184 707 1204 q 753 1141 741 1163 q 760 1133 755 1138 q 768 1127 764 1127 z "},"":{"ha":433,"x_min":8,"x_max":510,"o":"m 8 195 l 8 211 q 249 469 183 395 q 321 553 264 553 q 351 545 335 553 l 355 532 q 353 509 353 524 q 362 461 353 496 q 378 402 372 426 q 383 349 383 378 q 363 263 383 304 q 304 184 342 222 q 204 107 265 146 q 243 103 229 103 q 303 117 271 103 q 369 154 335 131 q 447 215 402 178 l 447 170 q 292 41 360 85 q 174 -3 223 -3 q 56 52 110 -3 q 16 114 24 84 q 8 195 8 144 m 261 298 l 249 397 q 69 215 207 350 q 125 191 110 206 q 167 134 140 176 q 238 185 213 153 q 262 275 262 218 q 262 288 262 282 q 261 298 262 293 m 353 737 q 362 741 357 737 q 374 753 367 745 q 386 768 380 762 q 481 836 446 836 q 510 810 510 836 q 474 745 510 794 q 394 656 439 696 q 319 615 349 615 q 282 633 296 615 q 253 697 268 651 q 227 806 227 774 q 233 825 227 816 q 252 835 240 835 q 277 825 262 835 q 309 794 292 814 q 338 751 326 773 q 344 743 339 748 q 353 737 349 737 z "},"":{"ha":753,"x_min":359,"x_max":468,"o":"m 359 -349 l 359 218 l 468 218 l 468 -349 l 359 -349 m 359 406 l 359 936 l 468 936 l 468 406 l 359 406 z "},"":{"ha":897,"x_min":-28,"x_max":878,"o":"m 878 564 q 811 341 878 449 q 635 151 745 233 q 387 20 525 68 q 114 -28 248 -28 q 74 -22 89 -28 q 54 -1 60 -17 q 47 46 47 15 q 61 133 47 89 q 102 229 75 178 q 191 382 129 279 q 71 363 126 374 q 18 353 16 353 q -4 371 -4 353 q 52 429 -4 409 q 235 453 109 448 q 414 710 302 557 q 307 689 365 705 q 196 656 248 674 q 108 621 144 637 q 72 596 72 604 q 81 591 72 591 q 136 600 87 591 q 225 608 185 608 q 148 584 180 596 q 82 556 116 571 q 33 535 47 541 q 7 530 18 530 q -28 575 -28 530 q 31 737 -28 690 q 107 782 54 756 q 225 832 159 808 q 371 872 292 855 q 528 889 450 889 q 673 866 607 889 q 785 801 740 843 q 853 699 829 760 q 878 564 878 639 m 311 454 l 326 454 q 451 444 410 454 q 493 401 493 433 q 471 383 493 383 q 439 387 467 383 q 394 392 411 390 q 358 393 376 393 q 271 390 315 393 q 181 229 220 306 q 142 136 142 153 q 161 112 142 119 q 216 104 180 104 q 412 138 309 104 q 605 231 515 172 q 750 366 696 291 q 804 524 804 441 q 736 668 804 617 q 536 718 667 718 q 433 714 481 718 q 436 699 433 713 q 439 675 439 685 q 425 635 439 661 q 383 566 411 610 q 311 454 355 523 z "},"":{"ha":435,"x_min":3,"x_max":399,"o":"m 297 471 q 264 561 285 517 q 225 627 244 604 q 185 599 220 623 q 135 571 151 575 q 119 593 119 568 q 191 668 119 633 q 141 716 161 696 q 109 756 121 736 q 97 799 97 776 q 125 835 97 835 q 185 801 149 835 q 261 708 222 767 q 347 736 313 736 q 372 730 360 736 q 385 717 385 725 q 378 704 385 709 q 361 693 372 699 q 328 679 350 688 q 293 661 306 669 q 349 559 326 607 q 386 461 372 511 q 399 357 399 411 q 392 293 399 317 q 370 233 385 269 q 257 60 317 121 q 140 0 197 0 q 73 25 104 0 q 22 93 41 51 q 3 182 3 134 q 54 326 3 251 q 192 454 105 401 q 248 478 224 475 q 297 471 271 480 m 307 433 q 295 409 301 419 q 272 389 288 399 q 172 319 205 347 q 121 260 139 292 q 97 180 103 229 q 92 160 96 173 q 87 140 87 148 q 139 93 87 93 q 223 123 180 93 q 296 207 267 153 q 325 330 325 262 q 307 433 325 368 z "},"":{"ha":766,"x_min":-93,"x_max":793,"o":"m -89 472 l -77 551 q -55 618 -71 592 q 0 674 -39 644 q 121 762 39 705 q 428 900 318 900 q 475 886 461 900 q 489 839 489 873 q 471 774 489 815 q 405 643 453 732 q 321 482 357 553 q 253 358 291 424 q 202 269 215 293 q 189 232 189 244 q 198 209 189 218 q 220 199 207 199 q 259 218 237 199 q 346 300 281 237 q 413 374 377 331 q 501 484 448 416 q 599 608 554 551 q 649 673 627 644 q 687 716 671 701 q 713 732 703 732 q 739 711 721 732 l 755 690 q 774 653 774 665 q 723 554 774 640 q 637 405 673 468 q 546 224 602 342 q 439 -39 490 106 q 627 100 576 65 q 701 135 678 135 q 717 122 717 135 q 702 85 717 108 q 662 35 687 62 q 586 -44 637 7 q 476 -157 536 -96 q 405 -243 439 -194 q 351 -320 370 -293 q 317 -351 332 -347 q 275 -341 294 -358 q 256 -288 256 -324 q 282 -181 256 -262 q 361 20 308 -100 q 425 156 392 92 q 499 297 457 220 q 583 443 542 374 q 652 561 623 512 q 517 388 584 472 q 368 212 450 304 q 201 39 286 119 q 149 -8 165 4 q 107 -21 133 -21 q 76 -10 91 -21 q 50 19 60 1 q 40 54 40 37 q 48 104 40 83 q 78 170 57 126 q 212 425 170 356 q 363 696 363 667 q 356 711 363 705 q 339 717 349 717 q 294 700 320 717 q 227 651 267 684 q 130 573 187 618 q 9 486 73 528 q -47 448 -16 470 q -83 425 -79 425 q -93 435 -93 425 q -89 472 -93 444 m 593 1006 q 572 1014 581 1006 q 562 1031 562 1022 q 633 1160 562 1057 q 684 1216 663 1202 q 743 1230 705 1230 q 793 1196 793 1230 q 749 1131 793 1176 q 655 1046 705 1085 q 593 1006 606 1006 z "},"":{"ha":521,"x_min":3,"x_max":571,"o":"m 323 187 l 203 85 q 87 9 117 9 q 32 70 61 9 q 3 176 3 131 q 15 242 3 215 q 56 311 26 269 q 135 409 97 369 q 202 471 173 449 q 243 493 231 493 q 278 474 261 493 q 296 435 296 455 q 277 393 296 422 q 218 321 258 365 q 106 216 178 277 l 93 179 q 87 160 87 168 q 106 142 87 142 q 195 190 125 142 q 347 319 265 238 q 400 376 379 351 q 438 421 421 400 q 466 454 455 443 q 486 465 477 465 q 513 451 503 467 q 522 403 522 435 q 506 357 522 385 q 445 263 490 330 q 356 126 400 197 q 265 -33 311 56 q 307 7 267 -31 q 391 88 347 46 q 463 156 435 130 q 534 215 492 181 l 534 170 q 369 -17 443 71 q 254 -158 294 -105 q 207 -220 214 -211 q 174 -264 189 -243 q 150 -296 159 -285 q 134 -307 140 -307 q 108 -279 119 -307 q 97 -229 97 -251 q 104 -195 97 -210 q 323 187 153 -85 m 371 616 q 350 624 359 616 q 340 642 340 632 q 411 770 340 667 q 462 826 441 812 q 521 840 483 840 q 571 806 571 840 q 527 741 571 786 q 434 656 484 695 q 371 616 384 616 z "},"":{"ha":868,"x_min":-3,"x_max":871,"o":"m 424 550 q 210 509 315 538 q 17 439 104 480 q 3 439 9 435 q -3 450 -3 442 q 13 487 -3 455 q 48 555 28 518 q 93 628 68 591 q 308 694 205 672 q 507 717 410 717 q 525 716 518 717 q 539 715 531 716 q 597 802 566 751 q 645 873 628 852 q 676 895 662 895 q 692 864 692 895 q 675 808 692 834 q 606 711 659 782 q 804 634 738 696 q 871 476 871 572 q 831 340 871 405 q 721 227 792 275 q 556 151 650 178 q 359 123 463 123 q 316 125 335 123 q 281 130 297 127 q 256 134 266 133 q 222 72 230 91 q 231 43 231 56 q 209 -15 231 15 q 132 -110 188 -45 q 113 -118 125 -118 q 85 -75 85 -118 q 178 150 85 -21 q 122 178 141 163 q 103 221 103 194 q 286 340 103 294 q 424 550 371 465 m 509 554 q 385 358 487 524 q 461 364 435 364 q 486 353 486 364 q 482 345 486 346 q 456 341 477 343 q 413 336 435 338 q 367 326 391 333 q 344 289 351 301 q 332 269 337 277 q 421 267 368 267 q 569 280 501 267 q 684 318 636 294 q 759 375 732 342 q 786 443 786 407 q 721 526 786 497 q 532 555 655 555 q 520 555 525 555 q 509 554 515 555 z "},"":{"ha":564,"x_min":-102,"x_max":574,"o":"m 229 429 l 132 307 q 74 233 103 269 q 1 157 45 198 l 1 205 q 102 325 31 235 l 298 579 q 356 663 326 613 q 408 747 387 713 q 446 798 429 781 q 495 829 466 818 q 546 837 525 840 q 567 815 567 834 q 554 777 567 795 q 494 706 541 758 q 407 600 447 654 q 353 523 384 570 q 285 414 321 475 q 212 285 249 353 q 308 360 238 304 q 415 437 378 416 q 490 458 452 458 q 526 403 526 458 q 504 311 526 361 q 439 211 482 262 q 328 103 397 159 q 361 98 354 98 q 574 212 459 98 l 574 165 q 477 82 530 122 q 374 17 423 41 q 297 -7 326 -7 q 218 14 262 -7 q 132 -35 154 -35 q 118 -21 118 -35 q 134 24 118 -4 q 189 80 151 53 q 286 117 227 106 q 381 235 355 195 q 408 309 408 274 q 376 345 408 345 q 341 335 359 345 q 302 307 323 326 q 257 262 282 289 q 193 196 231 236 q 131 114 158 159 q 78 11 103 69 q 12 -150 54 -47 q -33 -238 -8 -203 q -75 -273 -58 -273 q -94 -256 -87 -273 q -102 -215 -102 -238 q -71 -99 -102 -165 q 22 57 -39 -34 q 130 232 74 133 q 229 429 185 332 z "},"":{"ha":926,"x_min":143,"x_max":833,"o":"m 412 424 l 143 694 l 218 770 l 488 498 l 757 770 l 833 694 l 564 424 l 831 157 l 755 82 l 489 349 l 220 82 l 144 157 l 412 424 z "},"":{"ha":564,"x_min":252,"x_max":489,"o":"m 304 720 l 310 753 q 404 823 378 804 q 460 854 429 841 q 489 794 489 831 q 470 729 489 777 q 419 632 451 682 q 355 501 380 572 q 329 401 329 430 q 333 374 329 391 q 338 353 338 357 q 326 340 338 340 q 303 352 322 340 q 268 381 283 363 q 252 424 252 399 q 264 486 252 448 q 303 576 277 524 q 367 689 329 629 q 397 750 397 741 q 392 757 397 757 q 304 720 380 757 z "},"":{"ha":564,"x_min":155,"x_max":582,"o":"m 554 789 q 582 694 582 741 q 565 625 582 654 q 519 575 547 596 q 426 521 490 555 q 340 476 361 488 q 278 435 306 458 q 250 403 250 412 q 272 392 250 392 q 319 399 286 392 q 390 415 353 406 q 449 429 426 424 q 485 433 471 433 q 498 424 498 433 q 458 340 498 404 q 352 316 408 324 q 258 307 296 307 q 155 386 155 307 q 193 467 155 428 q 293 541 231 505 q 464 631 355 576 q 513 663 495 646 q 532 694 532 680 q 485 728 532 728 q 376 702 448 728 q 304 661 304 676 q 328 648 304 650 q 351 640 351 646 q 304 622 351 633 q 241 610 258 610 q 231 628 231 610 q 240 679 231 646 q 253 721 249 712 q 306 757 260 735 q 411 796 351 779 q 515 812 471 812 q 540 808 532 812 q 554 789 547 803 z "},"":{"ha":564,"x_min":132,"x_max":602,"o":"m 361 600 q 451 594 417 599 q 507 572 484 590 q 530 517 530 555 q 506 447 530 483 q 441 384 481 412 q 349 340 401 357 q 241 323 296 323 q 164 337 197 323 q 132 371 132 351 q 148 412 132 385 q 174 441 163 439 q 187 442 185 444 q 196 427 189 440 q 258 408 205 408 q 356 425 310 408 q 430 468 403 442 q 457 519 457 494 q 437 555 457 541 q 387 568 418 568 q 311 558 360 568 q 257 549 262 549 q 241 552 247 549 q 236 570 236 556 q 250 607 236 597 q 319 631 264 617 q 429 664 374 645 q 551 750 551 705 q 534 774 551 764 q 486 783 517 783 q 405 775 451 783 q 328 754 358 766 q 298 730 298 741 q 302 724 298 727 q 310 721 305 722 q 318 719 315 720 q 326 718 322 719 q 329 714 329 718 q 307 701 329 707 q 267 694 284 694 q 236 706 248 694 q 225 733 225 717 q 264 787 225 762 q 360 829 303 813 q 471 844 416 844 q 541 832 511 844 q 586 796 570 819 q 602 743 602 772 q 573 684 602 708 q 509 648 544 660 q 361 600 474 635 z "},"":{"ha":1143,"x_min":252,"x_max":1054,"o":"m 304 720 l 310 753 q 404 823 378 804 q 460 854 429 841 q 489 794 489 831 q 470 729 489 777 q 419 632 451 682 q 355 501 380 572 q 329 401 329 430 q 333 374 329 391 q 338 353 338 357 q 326 340 338 340 q 303 352 322 340 q 268 381 283 363 q 252 424 252 399 q 264 486 252 448 q 303 576 277 524 q 367 689 329 629 q 397 750 397 741 q 392 757 397 757 q 304 720 380 757 m 986 908 q 1002 893 1002 908 q 977 829 1002 869 q 912 739 952 789 q 811 617 873 689 q 661 441 749 545 q 500 240 568 334 q 399 92 433 146 q 344 2 366 37 q 310 -33 322 -33 q 276 0 294 -33 q 258 61 258 34 q 297 148 258 85 q 422 317 336 211 q 623 547 509 424 q 782 722 718 652 q 888 832 846 791 q 951 891 930 874 q 986 908 973 908 m 1026 449 q 1046 401 1038 427 q 1054 354 1054 376 q 1037 285 1054 314 q 991 236 1020 256 q 913 189 963 215 q 812 136 863 163 q 751 95 780 119 q 722 62 722 71 q 745 52 722 52 q 792 59 758 52 q 862 75 826 66 q 921 88 899 83 q 957 93 944 93 q 971 83 971 93 q 930 0 971 63 q 824 -25 880 -16 q 730 -33 768 -33 q 628 46 628 -33 q 665 126 628 89 q 765 200 702 164 q 936 290 827 236 q 1004 354 1004 325 q 991 379 1004 370 q 957 387 978 387 q 848 361 920 387 q 777 321 777 336 q 800 307 777 309 q 823 300 823 305 q 775 280 823 292 q 714 268 727 268 q 703 288 703 268 q 712 339 703 306 q 725 380 721 372 q 829 438 737 404 q 987 472 922 472 q 1011 468 1004 472 q 1026 449 1018 464 z "},"":{"ha":1143,"x_min":252,"x_max":1057,"o":"m 304 720 l 310 753 q 404 823 378 804 q 460 854 429 841 q 489 794 489 831 q 470 729 489 777 q 419 632 451 682 q 355 501 380 572 q 329 401 329 430 q 333 374 329 391 q 338 353 338 357 q 326 340 338 340 q 303 352 322 340 q 268 381 283 363 q 252 424 252 399 q 264 486 252 448 q 303 576 277 524 q 367 689 329 629 q 397 750 397 741 q 392 757 397 757 q 304 720 380 757 m 994 908 q 1010 893 1010 908 q 985 829 1010 869 q 917 734 960 789 q 797 590 873 679 q 669 441 721 501 q 505 235 568 323 q 408 92 441 146 q 352 2 374 37 q 318 -33 330 -33 q 284 1 302 -33 q 267 61 267 35 q 306 148 267 85 q 431 317 345 211 q 631 547 517 424 q 790 722 726 652 q 896 832 854 791 q 960 891 938 874 q 994 908 981 908 m 720 79 l 663 79 q 627 161 627 140 q 660 223 627 177 q 753 322 694 269 q 888 415 812 375 q 1036 472 994 472 q 1050 469 1044 472 q 1055 457 1055 465 q 1047 436 1055 448 q 1051 428 1049 431 q 1055 420 1053 425 q 1057 411 1057 416 q 1046 363 1057 382 q 997 289 1036 343 q 935 191 958 234 q 993 197 966 193 q 1021 201 1020 201 q 1031 193 1031 201 q 1029 188 1031 192 q 1027 181 1028 183 q 1026 178 1026 178 q 1018 153 1023 167 q 1000 130 1013 140 q 962 112 987 119 q 889 98 937 105 q 873 61 873 75 q 892 20 873 41 q 895 12 895 17 q 868 -19 895 0 q 827 -37 842 -37 q 806 -24 812 -37 q 800 16 800 -10 q 807 86 800 37 q 720 79 745 79 m 707 160 q 723 159 711 160 q 743 158 734 159 q 842 170 768 158 q 1004 412 895 273 q 936 383 968 399 q 848 325 903 366 q 756 241 783 275 q 707 160 729 206 z "},"":{"ha":1143,"x_min":132,"x_max":1068,"o":"m 361 600 q 451 594 417 599 q 507 572 484 590 q 530 517 530 555 q 506 447 530 483 q 441 384 481 412 q 349 340 401 357 q 241 323 296 323 q 164 337 197 323 q 132 371 132 351 q 148 412 132 385 q 174 441 163 439 q 187 442 185 444 q 196 427 189 440 q 258 408 205 408 q 356 425 310 408 q 430 468 403 442 q 457 519 457 494 q 437 555 457 541 q 387 568 418 568 q 311 558 359 568 q 258 549 263 549 q 236 570 236 549 q 250 607 236 597 q 319 631 264 617 q 429 664 374 645 q 551 750 551 705 q 534 774 551 764 q 486 783 517 783 q 405 775 451 783 q 328 754 358 766 q 298 730 298 741 q 302 724 298 727 q 310 721 305 722 q 318 719 315 720 q 326 718 322 719 q 329 714 329 718 q 307 701 329 707 q 267 694 284 694 q 236 706 248 694 q 225 733 225 717 q 264 787 225 762 q 360 829 303 813 q 471 844 416 844 q 541 832 511 844 q 586 796 570 819 q 602 743 602 772 q 573 684 602 708 q 509 648 544 660 q 361 600 474 635 m 1053 908 q 1068 893 1068 908 q 1043 829 1068 869 q 975 734 1019 789 q 855 590 931 679 q 728 441 779 501 q 563 235 627 323 q 466 92 500 146 q 410 2 433 37 q 376 -33 388 -33 q 342 1 360 -33 q 325 61 325 35 q 364 148 325 85 q 489 317 403 211 q 689 547 575 424 q 849 722 785 652 q 955 832 913 791 q 1018 891 996 874 q 1053 908 1040 908 m 721 79 l 664 79 q 628 161 628 140 q 647 203 628 173 q 701 271 667 233 q 782 347 735 309 q 888 415 829 385 q 978 457 937 441 q 1038 472 1020 472 q 1055 457 1055 472 q 1048 436 1055 446 q 1053 428 1050 431 q 1057 420 1055 425 q 1059 411 1059 416 q 1048 362 1059 381 q 999 290 1038 344 q 935 191 960 236 q 994 197 966 193 q 1022 201 1022 201 q 1032 193 1032 201 q 1030 182 1032 188 q 1028 178 1028 176 q 1011 137 1017 146 q 977 117 1005 127 q 890 98 949 106 q 875 61 875 79 q 893 20 875 41 q 896 12 896 17 q 870 -19 896 0 q 828 -37 844 -37 q 808 -24 814 -37 q 802 16 802 -10 q 807 86 802 47 q 721 79 745 79 m 708 160 q 723 159 712 160 q 743 158 734 159 q 843 170 770 158 q 1006 412 897 275 q 850 325 934 389 q 759 241 786 275 q 708 160 731 207 z "},"":{"ha":694,"x_min":-8,"x_max":703,"o":"m -8 1013 l -8 1082 l 703 1082 l 703 1013 l -8 1013 z "},"":{"ha":926,"x_min":149,"x_max":827,"o":"m 237 604 l 149 692 l 220 764 l 309 675 q 494 734 388 734 q 581 719 537 734 q 667 675 625 704 l 755 764 l 827 692 l 739 604 q 798 421 798 516 q 739 245 798 326 l 827 158 l 755 87 l 667 175 q 486 115 578 115 q 309 175 389 115 l 221 87 l 149 158 l 237 245 q 180 429 180 338 q 237 604 180 524 m 281 425 q 343 272 281 328 q 490 217 406 217 q 635 272 574 217 q 697 425 697 326 q 681 505 697 467 q 636 572 665 543 q 569 617 607 602 q 489 633 530 633 q 385 606 433 633 q 309 530 336 578 q 281 425 281 481 z "},"":{"ha":555,"x_min":3,"x_max":569,"o":"m 569 168 q 441 33 493 78 q 355 -12 390 -12 q 311 -3 331 -12 q 273 27 291 7 q 236 80 254 47 q 197 158 218 112 q 132 83 156 111 q 94 43 108 56 q 74 26 80 29 q 62 22 67 22 q 40 35 51 22 q 22 70 30 48 q 8 117 14 91 q 3 172 3 144 q 4 196 3 185 q 9 220 5 208 q 21 250 13 233 q 46 292 30 267 q 126 397 92 363 q 191 431 160 431 q 225 424 211 431 q 239 401 239 417 q 237 390 239 395 q 232 380 236 385 q 222 367 229 374 q 205 349 215 360 q 123 249 149 287 q 97 193 97 211 q 101 179 97 184 q 111 175 105 175 q 128 184 115 175 q 156 209 140 194 q 190 241 172 223 q 224 275 208 258 q 253 304 241 292 q 271 322 265 317 q 413 446 355 406 q 508 486 471 486 q 526 480 518 486 q 540 462 534 473 q 549 436 546 451 q 552 406 552 422 q 538 342 552 372 q 496 283 525 313 q 424 221 468 253 q 320 151 380 189 q 356 107 340 121 q 395 93 372 93 q 425 99 410 93 q 459 118 440 104 q 505 155 479 132 q 569 214 531 178 l 569 168 m 301 179 q 350 218 323 193 q 401 269 377 242 q 441 322 425 296 q 458 367 458 349 q 448 380 458 380 q 412 367 436 380 q 359 330 389 353 q 298 274 330 306 q 237 204 267 241 q 301 179 264 204 z "},"":{"ha":825,"x_min":-74,"x_max":871,"o":"m 749 493 q 652 391 694 423 q 591 359 610 359 q 574 389 574 359 q 598 481 574 426 q 670 612 623 536 q 732 718 714 682 q 751 760 751 753 q 740 771 751 771 q 701 744 728 771 q 631 669 673 718 q 538 553 590 621 q 425 404 486 486 l 465 400 q 486 405 479 404 q 494 406 493 406 q 507 404 496 406 q 531 400 518 403 q 554 394 544 397 q 565 389 565 391 q 554 375 564 386 q 529 352 545 365 q 493 328 513 340 q 455 311 474 316 q 414 304 441 308 q 349 296 387 300 q 307 236 325 262 q 280 196 290 210 q 338 189 313 193 q 386 182 363 186 q 429 173 408 178 q 474 162 450 168 q 528 147 498 155 q 597 128 557 139 q 759 92 708 96 q 710 35 730 58 q 676 -3 690 12 q 653 -26 662 -18 q 636 -38 644 -34 q 623 -43 629 -42 q 608 -43 616 -43 q 583 -41 597 -43 q 550 -35 569 -39 q 505 -25 530 -31 q 447 -9 480 -18 q 284 28 359 13 q 146 43 210 43 q 85 35 111 43 q 56 23 75 31 q 17 8 37 16 q -21 -5 -3 1 q -47 -11 -39 -11 q -74 13 -74 -11 q -64 39 -74 24 q -22 107 -43 75 q 23 158 -1 139 q 91 186 46 176 q 209 197 135 197 l 272 293 l 239 293 q 181 296 201 293 q 161 309 161 299 q 171 329 161 315 q 199 361 181 343 q 351 407 241 404 q 507 619 435 527 q 640 774 580 711 q 745 870 699 838 q 820 903 790 903 q 871 849 871 903 q 835 724 871 808 q 728 514 798 640 l 749 493 z "},"":{"ha":318,"x_min":1,"x_max":447,"o":"m 334 171 q 104 -17 193 -17 q 63 -4 81 -17 q 30 33 44 9 q 8 90 16 57 q 1 163 1 123 q 30 326 1 237 q 110 511 59 415 q 60 514 77 511 q 43 527 43 517 q 53 547 43 532 q 80 578 62 561 q 174 619 109 609 q 230 696 201 661 q 284 759 258 732 q 334 801 311 786 q 374 817 357 817 q 393 804 389 817 q 398 761 398 791 q 390 695 398 730 q 366 622 382 661 q 373 623 370 623 l 376 623 q 388 622 376 623 q 412 618 399 621 q 436 612 425 615 q 447 606 447 609 q 436 593 446 604 q 410 570 426 583 q 375 546 394 557 q 336 529 355 534 q 329 527 333 528 q 319 525 324 526 q 227 388 280 458 q 108 249 174 319 q 101 195 101 215 q 120 124 101 151 q 172 97 138 97 q 208 110 189 97 q 249 143 227 123 l 334 221 l 334 171 m 132 343 q 199 422 166 376 q 261 517 233 469 q 227 514 245 515 q 189 512 209 513 q 132 343 150 431 m 313 621 q 321 646 318 634 q 325 666 325 657 q 313 682 325 682 q 287 666 303 682 q 254 625 271 650 l 313 621 z "},"":{"ha":796,"x_min":-71,"x_max":895,"o":"m 155 58 q 119 31 133 31 q 99 39 111 31 q 76 57 87 47 q 57 79 65 68 q 50 96 50 90 q 55 110 50 100 q 69 135 60 121 q 88 167 77 150 q 109 202 98 184 q 130 235 120 219 q 148 262 140 250 q 389 720 389 657 q 381 740 389 732 q 362 747 374 747 q 243 707 339 747 q 194 685 215 694 q 156 668 173 675 q 126 653 140 660 q 97 637 112 646 q 65 619 82 629 q 24 595 47 609 q -51 558 -41 558 q -71 584 -71 558 q -4 720 -71 633 q 172 868 62 806 q 182 872 177 872 q 185 867 185 872 q 181 861 184 865 q 170 851 178 857 q 141 826 153 839 q 113 789 128 813 q 236 850 186 825 q 321 890 286 875 q 384 912 357 905 q 435 918 410 918 q 501 901 478 918 q 524 850 524 884 q 435 636 524 792 q 406 582 419 606 q 378 533 392 558 q 347 481 363 509 q 308 415 330 453 q 255 328 286 378 q 184 208 225 277 q 425 495 316 374 q 617 696 534 616 q 756 814 700 775 q 840 852 812 852 q 862 834 848 851 q 888 786 882 810 q 895 744 895 763 q 889 702 895 723 q 872 659 884 682 q 844 610 861 636 q 805 554 827 585 q 717 429 758 490 q 638 311 677 369 q 561 194 600 252 q 477 75 522 136 q 379 -52 433 14 q 258 -190 326 -117 q 193 -252 225 -225 q 131 -296 160 -278 q 78 -323 102 -314 q 37 -332 54 -332 q 15 -327 25 -332 q -4 -315 4 -323 q -17 -297 -12 -308 q -22 -273 -22 -286 q -15 -241 -22 -259 q 2 -206 -8 -224 q 26 -171 13 -188 q 52 -141 39 -154 q 77 -119 65 -127 q 95 -111 88 -111 q 109 -118 106 -111 q 112 -132 112 -124 q 112 -140 112 -136 q 111 -147 111 -144 q 119 -159 111 -159 q 130 -154 123 -159 q 189 -115 165 -130 q 223 -87 214 -100 q 341 73 292 5 q 428 193 391 141 q 493 285 465 244 q 548 363 522 326 q 603 441 574 401 q 667 533 631 481 q 712 604 698 576 q 727 643 727 631 q 712 657 727 657 q 437 416 651 657 l 390 361 q 321 275 355 320 l 155 58 z "},"":{"ha":507,"x_min":-52,"x_max":522,"o":"m 522 170 q 371 -23 445 69 q 227 -190 297 -115 q 162 -252 195 -225 q 101 -296 130 -278 q 47 -323 72 -314 q 6 -332 23 -332 q -35 -315 -17 -332 q -52 -273 -52 -299 q -45 -241 -52 -259 q -28 -206 -39 -224 q -4 -171 -18 -188 q 22 -141 9 -154 q 46 -119 35 -127 q 64 -111 58 -111 q 78 -118 75 -111 q 81 -132 81 -124 q 81 -140 81 -136 q 81 -147 81 -144 q 88 -159 81 -159 q 100 -154 92 -159 q 191 -83 146 -121 q 275 -7 235 -46 q 245 13 256 -3 q 233 58 233 29 q 239 99 233 79 q 258 147 244 119 q 294 213 271 174 q 352 311 317 252 q 301 276 330 300 q 244 221 273 252 q 185 156 214 191 q 134 90 157 122 q 108 57 119 70 q 90 36 98 44 q 75 25 81 28 q 62 22 68 22 q 40 35 51 22 q 22 70 30 48 q 8 117 14 91 q 3 172 3 144 q 4 196 3 185 q 9 220 5 208 q 21 250 13 233 q 46 292 30 267 q 126 397 92 363 q 191 431 160 431 q 225 424 211 431 q 239 401 239 417 q 237 390 239 395 q 232 380 236 385 q 222 367 229 374 q 205 349 215 360 q 123 249 149 287 q 97 193 97 211 q 101 179 97 184 q 111 175 105 175 q 142 202 119 175 q 202 270 165 229 q 290 359 239 311 q 405 447 340 406 q 465 472 440 472 q 473 465 467 472 q 484 446 479 457 q 493 420 489 434 q 497 392 497 406 q 496 380 497 386 q 492 368 495 374 q 483 354 489 361 q 467 336 477 347 q 376 221 406 267 q 347 149 347 176 q 354 129 347 136 q 372 122 361 122 q 394 127 382 122 q 422 143 406 132 q 464 172 439 154 q 522 216 488 190 l 522 170 z "},"":{"ha":376,"x_min":-52,"x_max":429,"o":"m 389 214 l 389 167 q 327 108 348 126 q 269 71 306 90 q 263 -35 269 9 q 236 -126 257 -78 q 171 -231 215 -174 q 85 -317 127 -287 q 20 -347 43 -347 q -29 -304 -7 -347 q -52 -196 -52 -260 q -31 -66 -52 -134 q 35 111 -9 3 q 1 197 1 155 q 19 250 1 232 q 69 283 37 269 q 114 347 93 321 q 172 416 136 373 q 338 755 243 590 q 376 818 364 802 q 400 833 387 833 q 420 817 412 833 q 429 772 429 800 q 422 711 429 739 q 402 655 415 684 q 365 588 389 627 q 336 539 342 549 q 260 407 302 479 q 192 292 217 334 q 157 229 168 250 q 215 174 193 197 q 252 119 236 151 q 294 140 275 128 q 338 174 313 153 q 389 214 364 195 m 186 32 l 184 46 q 154 45 165 44 q 127 51 142 46 q 103 60 112 56 q 85 68 95 64 q 33 -142 33 -58 q 46 -212 33 -183 q 75 -241 58 -241 q 120 -210 93 -241 q 166 -118 146 -179 q 186 32 186 -57 z "},"":{"ha":796,"x_min":71,"x_max":789,"o":"m 507 338 q 508 342 508 338 q 505 345 508 345 q 440 337 475 345 q 370 315 406 329 q 300 281 334 300 q 239 240 267 262 q 193 194 212 218 q 170 146 174 170 q 167 123 167 136 q 172 95 167 107 q 184 76 177 83 q 201 65 192 68 q 220 61 211 61 q 293 77 252 61 q 379 124 334 94 q 470 199 424 155 q 555 301 515 244 q 627 426 595 358 q 676 573 659 494 q 682 627 682 602 q 652 716 682 685 q 566 748 621 748 q 505 738 538 748 q 440 709 473 727 q 378 668 408 692 q 323 617 348 644 q 282 562 299 590 q 260 507 266 534 q 258 490 258 498 q 262 480 258 484 q 275 475 265 475 q 327 494 292 475 q 338 498 336 498 q 343 492 343 498 q 332 473 343 487 q 292 435 320 460 q 216 391 241 391 q 190 401 206 391 q 158 427 174 412 q 131 460 142 442 q 119 492 119 477 q 120 497 119 496 q 157 586 130 541 q 225 673 185 631 q 313 752 264 715 q 413 816 362 789 q 516 860 465 844 q 612 876 567 876 q 690 863 657 876 q 746 828 724 851 q 778 773 768 805 q 789 701 789 741 q 775 602 789 656 q 736 488 761 547 q 675 369 711 429 q 598 252 640 309 q 508 146 556 196 q 409 60 460 97 q 304 2 357 24 q 199 -19 252 -19 q 150 -6 174 -19 q 109 28 127 7 q 81 77 92 50 q 71 135 71 105 q 71 151 71 143 q 74 168 72 159 q 119 267 85 220 q 200 352 153 313 q 300 422 246 391 q 406 475 354 454 q 501 508 457 496 q 571 519 545 519 q 594 514 584 519 q 612 501 605 509 q 624 482 620 493 q 628 460 628 471 q 628 454 628 456 q 627 448 627 451 q 604 394 621 419 q 568 349 587 369 q 529 315 548 329 q 498 296 509 302 q 496 296 498 296 q 494 299 494 296 q 496 305 494 300 q 500 316 498 310 q 505 328 503 322 q 507 338 507 334 z "},"":{"ha":390,"x_min":-50,"x_max":406,"o":"m 406 167 q 280 54 340 109 q 165 -57 220 -1 q 46 -255 97 -189 q -31 -321 -5 -321 q -45 -310 -40 -321 q -50 -282 -50 -300 q -4 -150 -50 -218 q 127 -3 41 -81 q 200 143 170 83 q 249 243 230 203 q 276 307 267 283 q 284 345 284 331 q 270 359 284 359 q 168 315 264 359 q 53 272 75 272 q 38 287 38 272 q 42 306 38 294 q 52 335 45 317 l 71 389 l 195 446 q 357 498 307 498 q 386 490 376 498 q 397 464 397 481 q 396 457 397 460 q 395 450 396 454 q 377 400 392 436 q 338 313 361 363 q 286 201 315 262 q 226 77 257 140 q 274 110 253 95 q 315 140 295 125 q 357 174 336 156 q 405 215 378 191 l 406 167 z "},"":{"ha":463,"x_min":216,"x_max":343,"o":"m 246 356 q 225 363 235 356 q 216 387 216 371 q 225 426 216 404 q 250 467 235 448 q 281 500 264 487 q 313 514 298 514 q 335 506 327 514 q 343 481 343 498 q 334 448 343 469 q 312 406 326 427 q 280 371 298 386 q 246 356 263 356 z "},"":{"ha":406,"x_min":51,"x_max":463,"o":"m 342 290 q 346 311 344 301 q 347 328 347 320 q 333 378 347 364 q 295 391 319 391 q 258 385 275 391 q 224 365 241 378 q 189 331 207 351 q 146 281 170 310 q 115 264 132 264 q 98 269 106 264 q 84 281 90 273 q 75 297 78 288 q 71 316 71 307 q 73 329 71 322 q 79 340 75 335 q 194 455 132 412 q 333 497 257 497 q 391 487 367 497 q 432 459 416 477 q 455 415 448 441 q 463 359 463 390 q 460 325 463 342 q 454 290 458 308 q 428 217 447 254 q 383 145 409 180 q 325 81 357 111 q 258 30 292 52 q 188 -5 223 7 q 120 -18 153 -18 q 69 -4 87 -18 q 51 41 51 10 q 124 167 51 104 q 342 290 197 230 m 336 245 q 253 203 289 228 q 194 152 218 178 q 157 105 170 127 q 145 72 145 83 q 159 56 145 56 q 183 63 168 56 q 216 82 198 70 q 253 111 234 94 q 288 149 271 128 q 317 195 304 170 q 336 245 330 219 z "},"":{"ha":463,"x_min":285,"x_max":448,"o":"m 315 612 q 292 620 299 612 q 285 644 285 627 q 287 671 285 656 q 294 708 289 686 q 311 770 302 745 q 334 813 320 796 q 367 837 347 829 q 417 844 387 844 q 439 838 431 844 q 448 817 448 831 q 448 810 448 813 q 447 804 448 808 q 424 744 441 778 q 387 682 407 711 q 347 632 366 652 q 315 612 327 612 z "},"":{"ha":463,"x_min":170,"x_max":604,"o":"m 205 646 q 180 655 191 646 q 170 681 170 665 q 180 718 170 696 q 206 760 191 740 q 239 793 221 779 q 272 807 257 807 q 300 797 290 807 q 311 770 311 787 q 299 729 311 751 q 270 689 287 707 q 235 658 253 670 q 205 646 218 646 m 498 646 q 473 655 484 646 q 463 681 463 665 q 473 718 463 696 q 499 760 484 740 q 532 793 514 779 q 565 807 550 807 q 593 797 583 807 q 604 770 604 787 q 592 729 604 751 q 563 689 580 707 q 528 658 546 670 q 498 646 511 646 m 346 612 q 323 620 330 612 q 316 644 316 627 q 318 671 316 656 q 326 708 320 686 q 342 770 334 745 q 365 813 351 796 q 398 837 378 829 q 448 844 418 844 q 471 838 462 844 q 479 817 479 831 q 479 810 479 813 q 478 804 479 808 q 455 744 472 778 q 418 682 438 711 q 378 632 397 652 q 346 612 358 612 z "},"":{"ha":142,"x_min":-176,"x_max":570,"o":"m 395 634 q 451 681 430 663 q 478 704 472 699 q 530 748 511 732 q 559 763 549 763 q 566 758 563 763 q 570 743 570 753 q 565 716 570 729 q 546 685 560 703 q 505 641 531 667 q 435 574 478 614 q 354 496 395 536 q 272 414 314 457 q 185 322 230 371 q 92 216 140 273 q 0 102 43 159 q -73 3 -43 46 q -98 -32 -88 -18 q -115 -52 -108 -45 q -126 -62 -121 -60 q -137 -65 -132 -65 q -154 -53 -146 -65 q -166 -25 -161 -41 q -174 7 -171 -9 q -176 33 -176 23 q -165 70 -176 49 q -126 124 -154 91 q -53 207 -99 157 q 62 329 -7 256 q 128 397 95 363 q 192 458 161 430 q 247 510 222 487 q 290 547 273 532 l 395 634 z "},"":{"ha":564,"x_min":199,"x_max":593,"o":"m 555 812 q 582 784 572 804 q 593 728 593 764 q 586 667 593 699 q 568 603 580 635 q 540 538 556 570 q 504 478 524 507 q 456 422 482 448 q 404 378 431 397 q 354 350 378 360 q 312 340 330 340 q 269 350 290 340 q 233 380 248 361 q 208 426 217 399 q 199 486 199 452 q 214 570 199 527 q 253 653 229 612 q 310 728 277 693 q 376 790 342 764 q 444 832 410 817 q 506 847 477 847 q 555 812 551 847 m 476 762 q 445 745 460 753 q 414 724 430 736 q 380 694 397 711 q 341 650 362 676 q 277 545 298 596 q 256 456 256 493 q 265 420 256 433 q 290 408 274 408 q 347 430 311 408 q 423 488 382 451 q 475 545 452 513 q 516 609 499 576 q 543 672 534 642 q 553 726 553 703 q 545 758 553 747 q 523 770 537 770 q 497 761 511 770 q 462 732 484 751 l 476 762 z "},"":{"ha":564,"x_min":199,"x_max":599,"o":"m 441 463 q 431 428 435 446 q 425 393 427 411 q 433 382 430 387 q 436 372 436 377 q 427 359 436 368 q 407 343 418 351 q 384 329 395 335 q 369 323 373 323 q 353 335 357 323 q 349 362 349 346 q 353 407 349 383 q 361 449 358 431 q 342 448 355 449 q 317 446 330 447 q 293 443 304 444 q 278 442 282 442 q 239 446 253 442 q 218 462 225 450 q 210 477 214 468 q 204 496 207 486 q 201 515 202 507 q 199 530 199 524 q 207 553 199 536 q 227 590 214 569 q 257 633 239 610 q 297 677 275 656 q 344 717 317 697 q 400 756 371 737 q 457 791 429 774 q 510 820 486 808 q 551 839 534 832 q 574 846 568 846 q 587 842 581 846 q 593 828 593 838 q 592 819 593 825 q 585 801 591 814 q 596 787 593 793 q 599 774 599 780 q 592 747 599 763 q 575 716 585 732 q 557 688 566 701 q 544 669 548 675 l 521 632 q 507 610 513 620 q 495 592 500 601 q 485 574 490 583 q 476 551 480 564 q 526 559 509 557 q 547 562 543 562 q 565 549 565 562 q 555 522 565 538 q 527 481 545 505 l 441 463 m 397 538 q 464 655 429 606 q 534 743 498 703 q 561 775 553 765 q 568 789 568 786 q 559 795 568 795 q 492 759 551 795 q 412 705 448 731 q 347 651 376 679 q 294 593 317 624 q 254 526 271 562 q 397 538 336 531 z "},"":{"ha":564,"x_min":172,"x_max":623,"o":"m 395 737 q 322 641 349 699 q 389 660 361 654 q 436 667 416 667 q 512 640 483 667 q 541 561 541 612 q 514 465 541 508 q 446 390 488 421 q 351 343 404 359 q 247 326 298 326 q 189 339 206 326 q 172 384 172 351 q 183 418 172 403 q 212 445 195 434 q 251 461 229 456 q 292 467 272 467 q 297 464 297 467 q 294 461 296 463 q 290 459 291 459 q 239 429 239 439 q 273 418 239 418 q 328 426 300 418 q 381 446 355 433 q 430 473 407 458 q 469 504 452 488 q 495 534 486 519 q 505 559 505 549 q 489 584 505 575 q 446 593 473 593 q 420 592 433 593 q 396 589 408 591 q 372 583 386 587 q 346 576 359 580 q 322 571 332 573 q 310 568 313 568 q 295 576 302 568 q 283 595 288 585 q 275 618 278 606 q 271 637 271 629 q 410 831 294 724 q 472 829 445 830 q 517 828 498 828 q 571 829 546 828 q 623 831 597 829 q 588 767 604 792 q 566 740 572 743 q 541 737 561 738 q 486 736 521 736 q 431 737 454 736 q 395 737 409 737 z "},"":{"ha":564,"x_min":216,"x_max":599,"o":"m 555 824 q 589 821 580 823 q 599 814 599 819 q 588 805 599 812 q 561 789 576 798 q 528 770 545 780 q 498 752 510 760 q 467 731 486 745 q 428 700 449 718 q 384 661 406 682 q 339 614 361 639 q 326 599 332 607 q 314 583 319 591 q 306 570 309 576 q 302 564 302 565 q 380 633 345 610 q 452 655 414 655 q 514 632 491 655 q 537 568 537 608 q 528 514 537 542 q 503 460 519 486 q 467 410 488 433 q 424 368 447 386 q 377 339 401 350 q 330 329 353 329 q 285 342 306 329 q 249 378 264 356 q 224 427 233 399 q 216 482 216 454 q 238 570 216 523 q 299 664 260 617 q 393 753 339 711 q 513 827 448 795 l 555 824 m 313 395 q 342 403 325 395 q 376 426 359 412 q 411 459 394 441 q 442 498 429 478 q 464 539 456 519 q 473 577 473 559 q 448 610 473 610 q 355 557 417 610 q 299 496 315 524 q 283 435 283 469 q 291 405 283 414 q 313 395 299 395 z "},"":{"ha":564,"x_min":239,"x_max":611,"o":"m 380 387 q 318 345 344 359 q 273 331 292 331 q 248 341 256 331 q 239 370 239 352 q 258 441 239 397 q 314 537 277 485 q 406 647 351 590 q 530 757 460 703 q 478 762 505 760 q 425 764 452 764 q 385 762 401 764 q 354 758 368 761 q 329 750 340 755 q 304 741 317 746 q 295 736 300 739 q 286 731 290 734 q 277 725 281 728 q 273 723 274 723 q 264 727 269 723 q 260 738 260 732 q 277 769 259 745 q 294 793 288 783 q 307 812 301 804 q 317 827 312 821 q 328 837 321 833 q 348 842 332 840 q 386 847 363 845 q 440 851 410 850 q 505 852 471 852 q 533 852 517 852 q 568 850 550 852 l 595 848 q 607 811 603 831 q 611 779 611 791 q 610 770 611 771 q 599 752 609 763 q 573 728 589 742 q 540 697 558 714 q 505 663 522 681 q 454 601 481 636 q 403 528 427 565 q 365 458 380 491 q 349 404 349 425 q 357 390 349 390 q 374 395 366 390 l 380 387 z "},"":{"ha":564,"x_min":191,"x_max":614,"o":"m 403 609 q 433 545 424 570 q 442 496 442 519 q 427 428 442 458 q 389 379 412 399 q 337 349 366 359 q 283 339 309 339 q 250 343 267 339 q 220 356 233 348 q 199 377 208 365 q 191 404 191 389 q 227 482 191 434 q 330 600 262 530 q 284 669 298 637 q 271 731 271 701 q 338 847 271 810 q 536 883 406 883 q 595 880 576 883 q 614 865 614 877 q 599 825 607 843 q 581 798 591 810 q 559 786 571 786 q 553 786 556 786 q 547 787 551 786 q 554 766 554 776 q 544 745 553 755 q 528 729 540 740 q 501 705 515 718 q 471 677 486 691 q 445 652 456 663 q 424 630 435 643 q 403 609 412 618 m 486 739 q 519 769 510 759 q 530 782 529 779 q 476 794 530 794 q 374 775 408 794 q 339 724 339 757 q 349 688 339 709 q 378 644 358 668 l 431 690 l 486 739 m 357 564 q 270 461 299 502 q 241 409 241 420 q 254 391 241 397 q 288 385 267 385 q 319 392 302 385 q 349 412 336 399 q 372 444 363 425 q 380 488 380 463 q 374 529 380 509 q 357 564 368 548 z "},"":{"ha":564,"x_min":235,"x_max":595,"o":"m 353 425 q 396 487 378 460 q 430 537 414 513 q 460 584 446 561 q 494 637 475 608 q 391 559 431 586 q 321 532 351 532 q 294 544 309 532 q 266 575 279 556 q 244 617 253 593 q 235 663 235 640 q 250 714 235 688 q 289 766 265 741 q 343 815 313 792 q 405 854 374 838 q 464 882 435 871 q 513 892 493 892 q 546 883 532 892 q 569 862 559 873 q 584 838 579 850 q 589 821 589 826 q 578 798 589 811 q 551 772 566 785 q 523 752 536 760 q 507 743 510 743 q 505 745 505 743 q 510 754 505 747 q 528 775 514 762 q 541 797 541 788 q 536 802 541 802 q 508 793 529 802 q 460 771 487 785 q 404 738 433 757 q 354 696 376 719 q 334 672 343 685 q 319 648 326 660 q 310 625 313 636 q 307 608 307 614 q 330 588 307 588 q 358 594 339 588 q 399 612 377 601 q 442 638 420 623 q 479 668 464 652 q 516 705 502 691 q 541 726 531 719 q 557 736 551 734 q 572 739 564 739 q 588 733 581 739 q 595 720 595 728 q 588 708 594 718 q 570 677 582 698 q 509 578 534 620 q 467 511 484 537 q 420 440 443 473 q 378 383 398 407 q 340 346 358 359 q 307 332 322 332 q 294 347 294 332 q 298 364 294 351 q 310 391 302 377 q 328 415 317 404 q 353 425 339 425 z "},"":{"ha":564,"x_min":134,"x_max":528,"o":"m 491 439 q 518 412 507 432 q 528 355 528 392 q 522 295 528 327 q 504 231 515 263 q 475 166 492 198 q 439 106 459 134 q 392 50 418 75 q 340 6 366 24 q 289 -22 313 -12 q 248 -33 265 -33 q 204 -22 225 -33 q 168 7 184 -12 q 143 53 153 26 q 134 113 134 80 q 149 197 134 155 q 189 280 164 240 q 245 356 213 321 q 311 418 277 391 q 379 459 345 444 q 441 475 413 475 q 491 439 486 475 m 412 389 q 381 373 396 381 q 349 352 366 364 q 315 321 333 339 q 277 277 298 304 q 213 172 234 224 q 191 84 191 121 q 200 48 191 60 q 225 36 210 36 q 282 57 246 36 q 359 115 318 79 q 411 172 387 140 q 452 237 435 204 q 479 300 469 269 q 488 353 488 330 q 480 386 488 374 q 458 397 473 397 q 433 388 446 397 q 397 359 419 379 l 412 389 z "},"":{"ha":564,"x_min":220,"x_max":457,"o":"m 273 347 l 278 380 q 372 450 346 432 q 428 482 397 469 q 457 422 457 458 q 438 357 457 404 q 387 260 419 310 q 323 129 349 199 q 297 29 297 58 q 301 2 297 18 q 306 -20 306 -15 q 294 -32 306 -32 q 271 -20 290 -32 q 236 9 252 -9 q 220 52 220 27 q 232 113 220 75 q 271 204 245 151 q 335 317 297 256 q 366 378 366 368 q 360 385 366 385 q 273 347 349 385 z "}}}
